<svg xmlns="http://www.w3.org/2000/svg" viewBox="0 0 120.48 107.07" width="24" height="24" fill="none" stroke="currentColor" stroke-width="4" stroke-linecap="round" role="img" aria-label="Draw">
  <!-- Body of the pencil -->
  <g transform="translate(19.22 74.15)">
    <path d="M-1.89 3.72 C12.9 -12.43, 31.58 -24.62, 65.43 -54.9 M0.44 -0.2 C19.3 -15.08, 37.67 -29.02, 62.69 -52.74"/>
  </g>
  <g transform="translate(31.93 92.18)">
    <path d="M-3.07 1.9 C22.58 -16.8, 49.68 -42.64, 61.73 -49.6 M1.29 -0.9 C14.47 -10.62, 27.47 -23.69, 61.43 -51.05"/>
  </g>
  <!-- Ferrule and eraser end -->
  <g transform="translate(79.55 23.19)">
    <path d="M-0.35 1.6 C7.45 4.75, 11.39 14.12, 13.06 17.53 M0.64 0.17 C4.81 4.2, 8.44 10, 15.11 17.98"/>
  </g>
  <g transform="translate(95.2 11.9)">
    <path d="M1.8 -1.9 C5.03 6.58, 8.55 12.21, 14.52 18.38 M0.43 -0.82 C3.66 4.36, 8 9.57, 14.76 16.45"/>
  </g>
  <g transform="translate(110.53 29.51)">
    <path d="M-0.05 0.73 C-7.63 4.28, -12.36 9.09, -17.01 11.76 M-0.2 0.03 C-4.7 4.07, -10.17 5.93, -17.06 9.69"/>
  </g>
  <g transform="translate(94.8 10.64)">
    <path d="M-1.51 0.4 C-2.93 3.76, -6.31 6.28, -13.04 13.12 M0.36 0.81 C-2.91 2.12, -6.73 4.6, -12.88 12.97"/>
  </g>
  <!-- Tip -->
  <g transform="translate(33.67 91.39)">
    <path d="M-0.2 1.29 C-8.39 3.24, -14.59 4.73, -23.67 5.25 M0.03 -0.64 C-7.61 1.04, -12.8 4.32, -21.3 5.68"/>
  </g>
  <g transform="translate(19.73 76.12)">
    <path d="M-0.9 1.28 C-2.13 7.22, -6.57 12.27, -7.57 20.37 M-0.96 -0.87 C-2.43 8.27, -5.19 15.22, -8.31 18.84"/>
  </g>
  <g transform="translate(14.3 86.77)">
    <path d="M0.12 0.29 C1.75 2.69, 4.65 5.95, 6.98 7.86 M0.18 0.24 C1.7 1.89, 2.73 3.48, 6.27 7.62"/>
  </g>
</svg>
