<svg width="480" height="360" viewBox="0 0 480 360" fill="none" xmlns="http://www.w3.org/2000/svg">
<g clip-path="url(#clip0_17344_46416)">
<rect width="480" height="360" fill="#FFFBF0"/>
<path d="M375.625 346.219L446.207 346.115L447.362 346.27L448.426 347.494L448.861 348.724L449.483 364.45L449.121 366.473L447.698 367.887L445.498 368.16L375.275 367.759L373.815 368.136L372.511 366.745L372 365.099L372.548 349.01L373.272 347.506L373.757 346.769L375.718 346.506" fill="#FFF0C9"/>
<path d="M375.441 346.425C395.74 346.168 416.114 346.067 445.882 346.425M375.441 346.425C395.04 345.937 414.622 345.785 445.882 346.425M375.441 346.425C373.395 346.411 372.006 347.719 372.107 349.755M375.441 346.425C373.401 346.428 371.947 347.409 372.107 349.755M445.882 346.425C447.824 346.636 449.124 347.25 449.216 349.755M445.882 346.425C447.755 346.66 449.434 347.375 449.216 349.755M449.216 349.755C449.546 354.766 449.344 359.987 449.216 364.627M449.216 349.755C448.848 352.937 448.902 355.874 449.216 364.627M449.216 364.627C449.037 366.525 447.79 368.095 445.882 367.957M449.216 364.627C448.974 366.618 448.175 368.384 445.882 367.957M445.882 367.957C422.989 368.317 399.942 368.157 375.441 367.957M445.882 367.957C425.919 367.876 405.944 367.942 375.441 367.957M375.441 367.957C373.055 368.098 371.788 366.954 372.107 364.627M375.441 367.957C372.757 367.864 372.226 366.502 372.107 364.627M372.107 364.627C371.89 360.051 372.16 355.774 372.107 349.755M372.107 364.627C372.234 359.799 371.92 355.144 372.107 349.755" stroke="#FFF0C9" stroke-width="2" stroke-linecap="round"/>
<path d="M53.8832 316.705L124.022 316.652L125.502 317.46L126.198 317.597L127.549 319.387L127.448 335.607L126.911 337.072L125.648 338.283L123.836 338.349L53.3915 338.935L52.0363 338.428L50.5352 336.939L50.6664 336.035L50.6091 319.814L50.8341 317.985L52.378 317.305L53.5155 317.12" fill="#FFF0C9"/>
<path d="M53.5584 317.016C79.0128 316.682 104.668 316.644 124 317.016M53.5584 317.016C81.6837 316.434 109.837 316.554 124 317.016M53.5584 317.016C51.1958 316.907 50.401 318.113 50.2249 320.346M53.5584 317.016C51.4375 316.618 50.4072 318.128 50.2249 320.346M124 317.016C126.132 316.731 127.03 318.331 127.334 320.346M124 317.016C126.44 316.857 127.563 318.532 127.334 320.346M127.334 320.346C127.264 323.556 126.995 326.662 127.334 335.218M127.334 320.346C127.077 323.761 127.061 327.011 127.334 335.218M127.334 335.218C127.018 337.575 126.013 338.349 124 338.548M127.334 335.218C127.405 337.865 126.347 338.625 124 338.548M124 338.548C100.114 338.998 76.2158 339.028 53.5584 338.548M124 338.548C104.042 338.677 83.9411 338.633 53.5584 338.548M53.5584 338.548C51.0177 338.655 49.8239 337.357 50.2249 335.218M53.5584 338.548C51.4552 338.204 50.2718 337.375 50.2249 335.218M50.2249 335.218C50.4208 331.04 50.4645 326.193 50.2249 320.346M50.2249 335.218C49.8416 330.728 49.9447 326.633 50.2249 320.346" stroke="#FFF0C9" stroke-width="2" stroke-linecap="round"/>
<path d="M15.9086 346.082L86.0474 346.029L87.5277 346.837L88.2236 346.974L89.5747 348.764L89.4736 364.984L88.9361 366.449L87.6735 367.66L85.8609 367.726L15.4169 368.312L14.0617 367.805L12.5605 366.316L12.6918 365.412L12.6345 349.191L12.8595 347.361L14.4033 346.682L15.5409 346.497" fill="#FFF0C9"/>
<path d="M15.5838 346.393C41.0382 346.059 66.6936 346.021 86.0258 346.393M15.5838 346.393C43.7091 345.811 71.8626 345.931 86.0258 346.393M15.5838 346.393C13.2212 346.283 12.4264 347.49 12.2503 349.723M15.5838 346.393C13.4629 345.995 12.4326 347.505 12.2503 349.723M86.0258 346.393C88.1571 346.108 89.0551 347.708 89.3592 349.723M86.0258 346.393C88.4655 346.234 89.5884 347.909 89.3592 349.723M89.3592 349.723C89.2895 352.933 89.0207 356.039 89.3592 364.595M89.3592 349.723C89.1019 353.138 89.0863 356.388 89.3592 364.595M89.3592 364.595C89.0436 366.952 88.0383 367.726 86.0258 367.925M89.3592 364.595C89.4301 367.241 88.3727 368.002 86.0258 367.925M86.0258 367.925C62.1392 368.375 38.2412 368.405 15.5838 367.925M86.0258 367.925C66.0675 368.054 45.9665 368.01 15.5838 367.925M15.5838 367.925C13.0431 368.032 11.8493 366.734 12.2503 364.595M15.5838 367.925C13.4806 367.581 12.2972 366.752 12.2503 364.595M12.2503 364.595C12.4462 360.417 12.4899 355.57 12.2503 349.723M12.2503 364.595C11.867 360.105 11.9701 356.009 12.2503 349.723" stroke="#FFF0C9" stroke-width="2" stroke-linecap="round"/>
<path d="M-31.4727 316.623L38.9911 317.223L40.1036 316.944L41.7151 317.641L42.3433 319.925L42.0662 335.586L41.6891 336.848L40.8141 337.852L38.7806 338.906L-31.5582 338.607L-33.1114 338.003L-33.9697 337.254L-34.4437 336.219L-35 319.673L-33.7166 317.9L-32.9957 317.299L-31.2311 316.747" fill="#FFF0C9"/>
<path d="M-31.4941 316.987C-6.25752 316.958 19.2177 316.976 38.9478 316.987M-31.4941 316.987C-4.11158 317.552 23.3658 317.453 38.9478 316.987M-31.4941 316.987C-33.5578 316.989 -34.9672 317.987 -34.8276 320.317M-31.4941 316.987C-33.8161 316.75 -34.7266 317.699 -34.8276 320.317M38.9478 316.987C40.8666 317.192 42.4698 317.958 42.2813 320.317M38.9478 316.987C41.3989 317.393 41.9146 318.185 42.2813 320.317M42.2813 320.317C41.799 323.862 41.8979 327.821 42.2813 335.189M42.2813 320.317C42.0865 325.498 42.0177 331.069 42.2813 335.189M42.2813 335.189C42.0709 337.21 41.2312 338.89 38.9478 338.519M42.2813 335.189C42.4063 337.486 41.3573 338.728 38.9478 338.519M38.9478 338.519C11.9194 338.462 -15.0809 338.518 -31.4941 338.519M38.9478 338.519C17.0905 339.043 -4.76578 339.036 -31.4941 338.519M-31.4941 338.519C-34.1172 338.437 -34.7235 337.109 -34.8276 335.189M-31.4941 338.519C-33.6703 338.457 -34.8037 337.115 -34.8276 335.189M-34.8276 335.189C-34.7797 330.672 -34.8714 326.379 -34.8276 320.317M-34.8276 335.189C-34.6589 331.981 -34.5193 328.584 -34.8276 320.317" stroke="#FFF0C9" stroke-width="2" stroke-linecap="round"/>
<path d="M14.5569 288.533L84.653 288.046L86.6812 288.327L87.5698 289.518L88.0219 291.244L87.9053 306.702L87.9157 307.757L86.8198 309.748L84.8916 309.918L14.3548 309.521L13.4444 309.657L11.9808 308.778L11.0078 307.417L11.5099 290.928L11.9704 289.233L13.3183 288.265L14.759 288" fill="#FFF0C9"/>
<path d="M14.5144 288.296C35.6623 288.411 56.6279 288.349 84.9564 288.296M14.5144 288.296C29.087 287.954 43.6346 288.052 84.9564 288.296M14.5144 288.296C12.38 287.951 11.3393 289.409 11.181 291.627M14.5144 288.296C12.7685 288.739 11.0809 289.17 11.181 291.627M84.9564 288.296C87.368 288.158 88.4888 289.76 88.2899 291.627M84.9564 288.296C86.8127 288.385 88.1024 289.263 88.2899 291.627M88.2899 291.627C87.7148 295.42 88.2555 299.578 88.2899 306.498M88.2899 291.627C88.0044 296.165 88.0565 300.465 88.2899 306.498M88.2899 306.498C88.3513 309.09 87.2867 309.895 84.9564 309.829M88.2899 306.498C88.4763 308.928 87.5773 309.808 84.9564 309.829M84.9564 309.829C64.6471 309.93 44.4065 309.974 14.5144 309.829M84.9564 309.829C57.5655 310.04 30.2215 310.003 14.5144 309.829M14.5144 309.829C12.3956 309.529 11.2216 308.664 11.181 306.498M14.5144 309.829C12.3164 309.535 11.2143 308.735 11.181 306.498M11.181 306.498C11.106 301.081 10.8143 294.714 11.181 291.627M11.181 306.498C11.3414 303.114 11.183 299.688 11.181 291.627" stroke="#FFF0C9" stroke-width="2" stroke-linecap="round"/>
<path d="M135.013 17L199.498 17.5062L200.864 17.1811L201.678 18.1556L202.281 19.4354L202.636 33.5292L202.321 34.9143L201.056 36.5334L199.551 36.7382L135.397 37.1582L133.45 36.6273L132.148 35.7362L132.142 34.3199L132.139 19.5255L132.736 17.9527L134.102 17.2759L135.219 17.5792" fill="#FFF0C9"/>
<path d="M135.081 17.2911C158.035 17.4295 180.919 17.3944 199.244 17.2911M135.081 17.2911C153.669 17.0484 172.16 17.1072 199.244 17.2911M135.081 17.2911C133.105 17.0295 131.785 17.9414 132.045 20.3247M135.081 17.2911C133.343 17.5186 132.135 18.1879 132.045 20.3247M199.244 17.2911C201.496 17.5565 202.286 17.9433 202.28 20.3247M199.244 17.2911C201.473 17.4096 201.871 18.1538 202.28 20.3247M202.28 20.3247C201.709 23.1649 202.024 26.3577 202.28 33.8706M202.28 20.3247C202.05 24.202 202.102 28.4177 202.28 33.8706M202.28 33.8706C202.469 35.613 201.418 37.2758 199.244 36.9042M202.28 33.8706C202.29 35.6794 201.658 36.6283 199.244 36.9042M199.244 36.9042C183.153 36.798 167.097 36.5856 135.081 36.9042M199.244 36.9042C185.627 37.1317 172.103 37.1592 135.081 36.9042M135.081 36.9042C132.859 36.9819 132.034 35.7239 132.045 33.8706M135.081 36.9042C133.358 36.7857 131.962 35.9846 132.045 33.8706M132.045 33.8706C131.933 30.4426 132.069 27.811 132.045 20.3247M132.045 33.8706C132.141 30.8247 132.297 27.792 132.045 20.3247" stroke="#FFF0C9" stroke-width="2" stroke-linecap="round"/>
<path d="M423.013 17L487.498 17.5062L488.864 17.1811L489.678 18.1556L490.281 19.4354L490.636 33.5292L490.321 34.9143L489.056 36.5334L487.551 36.7382L423.397 37.1582L421.45 36.6273L420.148 35.7362L420.142 34.3199L420.139 19.5255L420.736 17.9527L422.102 17.2759L423.219 17.5792" fill="#FFF0C9"/>
<path d="M423.081 17.2911C446.035 17.4295 468.919 17.3944 487.244 17.2911M423.081 17.2911C441.669 17.0484 460.16 17.1072 487.244 17.2911M423.081 17.2911C421.105 17.0295 419.785 17.9414 420.045 20.3247M423.081 17.2911C421.343 17.5186 420.135 18.1879 420.045 20.3247M487.244 17.2911C489.496 17.5565 490.286 17.9433 490.28 20.3247M487.244 17.2911C489.473 17.4096 489.871 18.1538 490.28 20.3247M490.28 20.3247C489.709 23.1649 490.024 26.3577 490.28 33.8706M490.28 20.3247C490.05 24.202 490.102 28.4177 490.28 33.8706M490.28 33.8706C490.469 35.613 489.418 37.2758 487.244 36.9042M490.28 33.8706C490.29 35.6794 489.658 36.6283 487.244 36.9042M487.244 36.9042C471.153 36.798 455.097 36.5856 423.081 36.9042M487.244 36.9042C473.627 37.1317 460.103 37.1592 423.081 36.9042M423.081 36.9042C420.859 36.9819 420.034 35.7239 420.045 33.8706M423.081 36.9042C421.358 36.7857 419.962 35.9846 420.045 33.8706M420.045 33.8706C419.933 30.4426 420.069 27.811 420.045 20.3247M420.045 33.8706C420.141 30.8247 420.297 27.792 420.045 20.3247" stroke="#FFF0C9" stroke-width="2" stroke-linecap="round"/>
<path d="M471.013 44L535.498 44.5062L536.864 44.1811L537.678 45.1556L538.281 46.4354L538.636 60.5292L538.321 61.9143L537.056 63.5334L535.551 63.7382L471.397 64.1582L469.45 63.6273L468.148 62.7362L468.142 61.3199L468.139 46.5255L468.736 44.9527L470.102 44.2759L471.219 44.5792" fill="#FFF0C9"/>
<path d="M471.081 44.2911C494.035 44.4295 516.919 44.3944 535.244 44.2911M471.081 44.2911C489.669 44.0484 508.16 44.1072 535.244 44.2911M471.081 44.2911C469.105 44.0295 467.785 44.9414 468.045 47.3247M471.081 44.2911C469.343 44.5186 468.135 45.1879 468.045 47.3247M535.244 44.2911C537.496 44.5565 538.286 44.9433 538.28 47.3247M535.244 44.2911C537.473 44.4096 537.871 45.1538 538.28 47.3247M538.28 47.3247C537.709 50.1649 538.024 53.3577 538.28 60.8706M538.28 47.3247C538.05 51.202 538.102 55.4177 538.28 60.8706M538.28 60.8706C538.469 62.613 537.418 64.2758 535.244 63.9042M538.28 60.8706C538.29 62.6794 537.658 63.6283 535.244 63.9042M535.244 63.9042C519.153 63.798 503.097 63.5856 471.081 63.9042M535.244 63.9042C521.627 64.1317 508.103 64.1592 471.081 63.9042M471.081 63.9042C468.859 63.9819 468.034 62.7239 468.045 60.8706M471.081 63.9042C469.358 63.7857 467.962 62.9846 468.045 60.8706M468.045 60.8706C467.933 57.4426 468.069 54.811 468.045 47.3247M468.045 60.8706C468.141 57.8247 468.297 54.792 468.045 47.3247" stroke="#FFF0C9" stroke-width="2" stroke-linecap="round"/>
<path d="M392.013 44L456.498 44.5062L457.864 44.1811L458.678 45.1556L459.281 46.4354L459.636 60.5292L459.321 61.9143L458.056 63.5334L456.551 63.7382L392.397 64.1582L390.45 63.6273L389.148 62.7362L389.142 61.3199L389.139 46.5255L389.736 44.9527L391.102 44.2759L392.219 44.5792" fill="#FFF0C9"/>
<path d="M392.081 44.2911C415.035 44.4295 437.919 44.3944 456.244 44.2911M392.081 44.2911C410.669 44.0484 429.16 44.1072 456.244 44.2911M392.081 44.2911C390.105 44.0295 388.785 44.9414 389.045 47.3247M392.081 44.2911C390.343 44.5186 389.135 45.1879 389.045 47.3247M456.244 44.2911C458.496 44.5565 459.286 44.9433 459.28 47.3247M456.244 44.2911C458.473 44.4096 458.871 45.1538 459.28 47.3247M459.28 47.3247C458.709 50.1649 459.024 53.3577 459.28 60.8706M459.28 47.3247C459.05 51.202 459.102 55.4177 459.28 60.8706M459.28 60.8706C459.469 62.613 458.418 64.2758 456.244 63.9042M459.28 60.8706C459.29 62.6794 458.658 63.6283 456.244 63.9042M456.244 63.9042C440.153 63.798 424.097 63.5856 392.081 63.9042M456.244 63.9042C442.627 64.1317 429.103 64.1592 392.081 63.9042M392.081 63.9042C389.859 63.9819 389.034 62.7239 389.045 60.8706M392.081 63.9042C390.358 63.7857 388.962 62.9846 389.045 60.8706M389.045 60.8706C388.933 57.4426 389.069 54.811 389.045 47.3247M389.045 60.8706C389.141 57.8247 389.297 54.792 389.045 47.3247" stroke="#FFF0C9" stroke-width="2" stroke-linecap="round"/>
<path d="M171.391 -9.71045L235.309 -9.48483L236.749 -8.91603L238.082 -8.38231L238.797 -6.93093L238.852 7.52125L238.675 8.93566L237.415 9.63907L235.305 10.3112L171.07 10.26L170.04 10.4562L168.938 8.98116L168.322 7.617L168.41 -6.91481L169.134 -8.5302L170.092 -9.41183L171.303 -9.42415" fill="#FFF0C9"/>
<path d="M171.297 -9.33995C195.65 -9.45466 220.061 -9.49068 235.46 -9.33995M171.297 -9.33995C194.113 -9.39304 216.926 -9.34658 235.46 -9.33995M171.297 -9.33995C169.305 -9.04607 168.276 -8.05257 168.261 -6.30636M171.297 -9.33995C169.3 -9.58737 167.889 -8.37205 168.261 -6.30636M235.46 -9.33995C237.347 -9.36554 238.462 -8.50287 238.496 -6.30636M235.46 -9.33995C237.36 -9.6471 238.347 -8.37584 238.496 -6.30636M238.496 -6.30636C238.615 -1.47728 238.553 3.69593 238.496 7.23953M238.496 -6.30636C238.82 -1.28579 238.506 3.72626 238.496 7.23953M238.496 7.23953C238.175 9.4986 237.761 10.4769 235.46 10.2731M238.496 7.23953C238.8 9.2635 237.839 10.3518 235.46 10.2731M235.46 10.2731C215.54 10.7528 195.791 10.8893 171.297 10.2731M235.46 10.2731C210.414 10.4836 185.45 10.4106 171.297 10.2731M171.297 10.2731C169.114 10.5111 168.12 9.23411 168.261 7.23953M171.297 10.2731C169.701 10.2779 168.612 9.36683 168.261 7.23953M168.261 7.23953C168.313 2.89866 167.715 -1.8944 168.261 -6.30636M168.261 7.23953C168.366 3.95757 168.519 0.546689 168.261 -6.30636" stroke="#FFF0C9" stroke-width="2" stroke-linecap="round"/>
<path d="M91.8001 -9.82272L156.309 -10L157.767 -9.28237L158.847 -9.2454L159.618 -7.39017L159.39 6.60128L158.988 8.42712L158.236 9.59505L156.056 9.67847L92.4216 9.63013L91.1558 9.50594L89.2866 8.46125L89.4706 7.55307L89 -7.50677L89.7192 -8.89653L91.1463 -9.61891L91.987 -9.88434" fill="#FFF0C9"/>
<path d="M92.1234 -9.7847C114.71 -9.34672 137.222 -9.29743 156.286 -9.7847M92.1234 -9.7847C114.125 -9.78091 136.093 -9.65008 156.286 -9.7847M92.1234 -9.7847C90.3851 -9.94301 89.3983 -8.64995 89.0871 -6.75112M92.1234 -9.7847C89.8566 -10.1895 89.1611 -8.76086 89.0871 -6.75112M156.286 -9.7847C158.314 -9.71834 159.096 -8.60824 159.322 -6.75112M156.286 -9.7847C158.642 -10.0615 159.091 -8.55989 159.322 -6.75112M159.322 -6.75112C159.338 -2.60364 159.32 1.87374 159.322 6.79478M159.322 -6.75112C159.407 -3.69099 159.545 -0.287687 159.322 6.79478M159.322 6.79478C158.995 8.48032 158.195 9.68901 156.286 9.82836M159.322 6.79478C158.889 8.89269 158.251 10.0341 156.286 9.82836M156.286 9.82836C142.989 9.49657 129.71 9.58947 92.1234 9.82836M156.286 9.82836C139.169 10.3592 121.913 10.3545 92.1234 9.82836M92.1234 9.82836C89.7323 10.0578 89.4306 8.86141 89.0871 6.79478M92.1234 9.82836C89.7143 9.85965 89.144 8.8908 89.0871 6.79478M89.0871 6.79478C89.0235 3.59056 89.3272 1.22152 89.0871 -6.75112M89.0871 6.79478C89.2512 3.60573 89.1326 0.450801 89.0871 -6.75112" stroke="#FFF0C9" stroke-width="2" stroke-linecap="round"/>
</g>
<defs>
<clipPath id="clip0_17344_46416">
<rect width="480" height="360" fill="white"/>
</clipPath>
</defs>
</svg>
