<svg width="480" height="360" viewBox="0 0 480 360" fill="none" xmlns="http://www.w3.org/2000/svg">
<g clip-path="url(#clip0_17628_45023)">
<rect width="480" height="360" fill="#181010"/>
<path fill-rule="evenodd" clip-rule="evenodd" d="M-129.705 103.753L-85.7352 156.891L-65.1941 182.572L-53.3297 199.384L-49.0527 208.143L-45.0712 215.448L-42.194 222.952L-39.1565 229.336L-36.6975 242.805L-36.2167 248.48L-35.205 261.842L-37.306 274.041L-38.7784 286.182L-47.0794 320.426L-50.0168 331.305L-53.3647 342.023L-57.9547 352.351L-74.8924 390.396L-80.0534 404.852L-85.8779 417.314L-87.4179 422.31L-88.5122 427.494L-88.4947 432.693L-86.8846 437.483L-86.1308 439.823L-79.4699 448.703L-72.9418 456.457L-64.1924 465.141L-55.3029 473.689L-45.2815 479.532L-40.997 482.248L-36.4646 483.102L-31.817 483.739L-26.621 483.786L-23.0101 481.992L-18.7831 478.359L-15.325 474.225L-10.9128 467.621L-3.20515 451.624L0.182877 441.219L7.90302 420.073L18.7808 384.363L28.1161 348.776L35.4356 317.523L37.9422 300.172L41.0197 283.722L42.1465 269.025L43.6164 253.674L43.4136 238.14L43.0881 223.894L41.6332 208.516L39.3595 192.839L32.7411 159.292L29.3731 141.448L23.7089 122.832L17.8743 106.289L14.4337 97.3871L11.1558 89.6428L7.04662 82.4146L2.42154 75.3141L-2.20602 69.3211L-8.25842 62.9122L-14.5737 57.9139L-21.0318 52.8804L-29.413 47.4912L-38.9286 43.4249L-48.344 38.4792L-58.115 34.7009L-78.7212 27.147L-98.6188 22.3817L-116.861 18.1625L-131.69 17L-137.142 17.3533L-142.335 18.4381L-143.728 18.7162L-145.39 20.1093L-147.677 23.1333L-148.29 27.1896L-148.738 32.0853L-148.713 38.3814L-147.218 44.5047L-143.815 57.8011L-131.465 95.9164L-129.695 103.117" fill="#FFE79E"/>
<path d="M-129.294 103.455C-114.753 123.321 -55.8737 186.556 -42.0686 222.734C-28.261 258.915 -40.4685 291.321 -46.4533 320.539C-52.4406 349.758 -71.6646 377.749 -77.9849 398.043C-84.3077 418.337 -94.234 428.882 -84.3829 442.304C-74.5317 455.723 -38.8133 499.37 -18.8857 478.567C1.04442 457.765 25.527 365.064 35.1928 317.488C44.8611 269.909 46.2834 235.507 39.1117 193.098C31.94 150.69 22.2892 92.1358 -7.83511 63.0376C-37.9594 33.9394 -121.393 11.8063 -141.632 18.5134C-161.87 25.2204 -131.275 89.1819 -129.264 103.282M-129.612 103.245C-114.988 123.013 -55.3979 186.075 -41.5453 222.344C-27.6951 258.612 -40.446 291.669 -46.5059 320.863C-52.5683 350.056 -71.5418 377.255 -77.9123 397.506C-84.2802 417.758 -94.6171 428.9 -84.7284 442.376C-74.8372 455.853 -38.5954 499.1 -18.5702 478.365C1.4576 457.627 25.845 365.507 35.4282 317.956C45.0113 270.405 46.2008 235.457 38.9289 193.055C31.6595 150.653 21.9937 92.6369 -8.20071 63.5412C-38.3926 34.4455 -122.08 11.8289 -142.233 18.4858C-162.388 25.1453 -131.312 89.267 -129.124 103.49" stroke="#FFE79E" stroke-width="4" stroke-linecap="round"/>
<path fill-rule="evenodd" clip-rule="evenodd" d="M417.003 222.546L461.253 210.025L475.408 206.617L497.137 201.446L515.343 198.569L526.014 197L537.244 197.169L546.7 197.153L566.683 198.72L575.547 199.872L592.782 202.876L608.642 206.59L615.566 208.728L622.805 211.717L635.835 216.959L647.435 224.222L659.97 232.556L671.781 242.687L677.376 248.365L682.831 253.944L687.169 259.627L691.496 265.608L698.86 277.662L702.709 284.158L705.44 291.135L708.103 297.393L709.25 304.682L709.737 311.284L707.92 334.973L707.38 344.384L704.764 353.359L703.419 357.385L701.109 362.146L698.993 365.978L695.745 370.163L691.514 373.332L687.014 377.27L681.79 380.505L675.752 383.285L668.883 385.391L659.835 387.745L640.417 392.024L628.794 394.704L605.226 397.894L592.403 398.756L567.201 401.449L542.223 402.511L530.284 402.715L507.828 402.918L498.475 402.478L488.46 400.935L479.246 400.104L461.07 395.556L444.006 390.438L427.556 384.606L412.289 378.124L392.799 369.186L377.02 361.041L370.076 357.446L366.596 354.186L364.371 350.799L363.281 348.44L363.935 342.01L364.029 338.783L363.473 336.469L354.055 312.898L350.031 300.603L347.825 290.885L347.471 284.009L347 281.417L348.546 276.17L349.657 273.954L353.611 268.08L361.069 260.363L370.404 251.668L384.959 240.086L389.629 236.778L397.77 231.374L405.45 227.524L416.881 222.049" fill="#422424"/>
<path d="M416.892 222.463C433.298 218.455 486.262 201.495 515.644 198.274C545.027 195.056 571.155 198.824 593.189 203.141C615.224 207.459 631.497 213.763 647.854 224.177C664.213 234.591 681.016 249.87 691.336 265.62C701.657 281.372 712.346 299.107 709.781 318.679C707.216 338.253 711.209 369.174 675.945 383.059C640.681 396.942 547.94 405.595 498.196 401.981C448.451 398.369 400.016 372.637 377.474 361.382C354.93 350.126 367.881 346.209 362.935 334.448C357.988 322.688 349.316 301.824 347.796 290.824C346.276 279.823 346.904 277.45 353.818 268.445C360.732 259.438 378.727 244.509 389.284 236.79C399.841 229.071 412.49 224.587 417.163 222.134M417.212 222.365C433.6 218.39 486.26 201.853 515.565 198.584C544.87 195.314 570.983 198.449 593.044 202.748C615.103 207.049 631.472 213.881 647.923 224.381C664.376 234.88 681.509 249.955 691.752 265.746C701.995 281.537 711.985 299.613 709.384 319.126C706.782 338.636 711.362 369.03 676.136 382.819C640.911 396.608 547.849 405.466 498.031 401.859C448.212 398.249 399.714 372.425 377.234 361.17C354.751 349.914 368.05 346.031 363.14 334.323C358.233 322.617 349.273 301.904 347.782 290.925C346.29 279.947 347.289 277.505 354.193 268.459C361.097 259.413 378.737 244.387 389.211 236.649C399.684 228.912 412.323 224.377 417.037 222.037" stroke="#422424" stroke-width="4" stroke-linecap="round"/>
<path d="M-21.6216 287.855C-15.7997 285.716 -7.78293 285.235 -0.518707 284.607C6.743 283.979 14.5189 283.904 21.9512 284.087C29.3835 284.27 36.896 284.785 44.075 285.701C51.2539 286.619 58.4604 287.945 65.0248 289.587C71.5892 291.231 77.7748 293.233 83.4612 295.56C89.1502 297.887 94.5532 300.632 99.1511 303.55C103.751 306.465 107.843 309.715 111.058 313.061C114.274 316.406 116.795 320.01 118.448 323.626C120.101 327.241 120.838 331.125 120.976 334.756C121.112 338.387 120.683 341.792 119.263 345.411C117.846 349.026 115.455 353.005 112.468 356.456C109.48 359.909 105.705 363.204 101.338 366.125C96.9738 369.047 91.8542 371.607 86.2706 373.979C80.687 376.354 74.3283 378.551 67.8342 380.368C61.34 382.184 54.3316 383.808 47.3132 384.884C40.2923 385.958 33.0507 386.528 25.7188 386.811C18.3843 387.091 10.6611 387.096 3.31406 386.576C-4.03543 386.058 -11.4828 385.007 -18.3757 383.693C-25.2662 382.377 -31.8381 380.713 -38.0388 378.689C-44.2395 376.664 -50.4075 374.224 -55.5848 371.545C-60.7595 368.867 -65.2219 365.784 -69.0948 362.621C-72.9702 359.461 -76.3164 356.048 -78.8273 352.575C-81.3406 349.101 -83.2069 345.421 -84.1625 341.782C-85.1207 338.146 -85.2562 334.375 -84.5714 330.752C-83.8891 327.129 -82.3064 323.556 -80.0639 320.042C-77.8239 316.529 -74.8615 312.921 -71.1241 309.668C-67.3891 306.415 -62.6082 303.252 -57.6416 300.522C-52.6776 297.792 -48.7796 295.665 -41.3323 293.285C-33.8849 290.908 -19.2737 287.452 -12.9552 286.256C-6.63911 285.058 -3.97272 285.27 -3.4259 286.104M34.8693 284.74C42.0482 284.45 49.8542 286.086 56.7221 287.482C63.59 288.879 70.0014 291.031 76.0791 293.12C82.1544 295.21 88.1017 297.424 93.1862 300.021C98.2731 302.616 102.778 305.547 106.596 308.702C110.414 311.855 113.795 315.411 116.098 318.946C118.4 322.485 119.742 326.24 120.417 329.919C121.089 333.597 120.976 337.336 120.133 341.017C119.291 344.7 117.65 348.446 115.358 352.007C113.062 355.57 110.133 359.263 106.37 362.381C102.61 365.501 97.9019 368.149 92.7848 370.726C87.6678 373.304 81.8107 375.781 75.6703 377.843C69.5273 379.907 62.8475 381.734 55.9345 383.105C49.0239 384.476 41.4964 385.492 34.1995 386.073C26.9002 386.653 19.488 386.786 12.146 386.593C4.80404 386.398 -2.72356 385.838 -9.85985 384.902C-16.9961 383.966 -24.1048 382.692 -30.6667 380.976C-37.2286 379.259 -43.6751 377.062 -49.2286 374.607C-54.7821 372.155 -59.6483 369.17 -63.9903 366.255C-68.3323 363.337 -72.2077 360.454 -75.2804 357.109C-78.3557 353.766 -80.8716 349.89 -82.4318 346.181C-83.992 342.475 -84.614 338.562 -84.6442 334.871C-84.6743 331.178 -84.2428 327.624 -82.6099 324.026C-80.9769 320.43 -77.9794 316.602 -74.8415 313.286C-71.7035 309.968 -68.1943 306.975 -63.7846 304.128C-59.3724 301.28 -53.9819 298.615 -48.3682 296.2C-42.757 293.786 -36.604 291.356 -30.1048 289.642C-23.6032 287.928 -16.5547 286.834 -9.3657 285.911C-2.17422 284.99 5.6318 284.292 13.0365 284.112C20.4412 283.932 31.4654 284.52 35.0624 284.828C38.6619 285.135 34.9019 285.155 34.626 285.961" fill="#243642"/>
<path fill-rule="evenodd" clip-rule="evenodd" d="M192.809 -83.8075L185.717 -70.5175L182.923 -65.1959L180.927 -60.394L181.111 -52.8758L180.186 -45.4368L184.554 -25.4591L190.424 -1.12006L198.8 24.3251L204.116 36.379L208.883 47.2189L220.807 67.7925L233.966 85.2916L247.23 102.626L263.516 118.103L272.145 125.973L291.08 141.367L301.521 148.359L321.377 160.822L331.844 166.306L341.569 170.54L352.105 174.321L361.555 177.786L381.747 180.781L401.21 183.183L421.918 183.114L445.424 183L471.628 182.141L494.757 179.031L505.601 176.29L514.113 174.454L522.526 170.99L529.391 167.973L534.938 163.339L540.279 159.944L544.708 155.554L548.072 150.632L550.632 144.683L550.343 138.952L550.575 132.768L548.297 127.513L546.342 120.448L542.088 112.471L537.425 105.748L531 97.5229L523.138 89.1585L507.71 76.7148L488.637 62.3535L455.431 40.4677L387.867 -1.25002L293.427 -66.6443L280.489 -74.9042L268.477 -81.3733L257.789 -86.5206L248.773 -89.4937L239.554 -92.565L225.305 -94.042L210.15 -94.0927L205.795 -94.4128L201.863 -92.6981L197.682 -90.2924L193.484 -84.0706" fill="#243642"/>
<path d="M193.406 -84.4794C191.296 -77.985 178.039 -67.1324 180.719 -45.1959C183.399 -23.2594 195.633 19.8339 209.489 47.146C223.349 74.4549 241.814 98.0967 263.875 118.661C285.936 139.228 315.391 159.684 341.861 170.537C368.332 181.393 393.909 183.25 422.705 183.786C451.498 184.325 493.326 181.228 514.633 173.76C535.937 166.29 550.804 154.42 550.535 138.968C550.269 123.52 540.116 104.502 513.027 81.054C485.939 57.6087 428.765 25.406 387.998 -1.71272C347.231 -28.8315 298.123 -66.1657 268.427 -81.6648C238.732 -97.164 222.367 -94.2955 209.835 -94.7076C197.299 -95.1196 196.001 -85.8613 193.226 -84.1403M192.972 -84.8439C190.802 -78.4858 177.643 -67.8424 180.37 -45.7981C183.098 -23.7538 195.396 19.948 209.34 47.4249C223.289 74.9018 242.026 98.5404 264.046 119.066C286.066 139.589 315.112 159.827 341.462 170.578C367.813 181.326 393.241 183.114 422.148 183.567C451.058 184.017 493.396 180.759 514.912 173.282C536.428 165.805 551.475 154.125 551.247 138.705C551.016 123.288 540.727 104.195 513.528 80.775C486.328 57.3552 428.886 25.2222 388.055 -1.81415C347.225 -28.8505 298.303 -65.9153 268.554 -81.443C238.802 -96.9738 222.094 -94.5142 209.543 -94.9833C196.989 -95.4492 196.01 -86.0166 193.235 -84.2544" stroke="#243642" stroke-width="4" stroke-linecap="round"/>
<path d="M-30.2679 302.585C-31.5074 294.51 -31.3958 284.704 -33.2161 273.05M-30.7743 303.52C-31.5499 294.963 -32.0545 287.18 -33.0868 273.052M-26.8807 310.626C-26.4787 292.979 -27.8244 275.961 -30.1475 257.525M-25.6164 310.661C-26.716 294.095 -27.6208 278.255 -29.5473 257.729M-22.2539 316.155C-22.8294 293.597 -24.8497 271.145 -27.0418 243.955M-21.6784 315.409C-24.3557 293.381 -25.4517 271.44 -27.0418 243.239M-17.0853 319.41C-18.0025 301.18 -20.3593 282.944 -23.7182 238.521M-17.1632 319.711C-18.8047 290.307 -21.2021 260.831 -22.801 238.581M-13.073 324.551C-15.5449 290.656 -17.7352 257.508 -18.8064 234.333M-12.8959 324.186C-13.8167 301.088 -15.6883 277.176 -19.3093 233.674M-8.78269 327.302C-11.0633 297.266 -13.3351 268.915 -15.4616 231.5M-8.55959 326.477C-11.6901 290.832 -14.1637 255.174 -15.474 231.332M-4.10106 329.099C-7.06161 295.126 -9.67865 260.108 -11.1448 227.716M-4.61455 329.439C-6.41886 295.227 -8.52595 262.197 -11.6158 228.202M-0.29236 331.421C-2.64734 295.879 -5.32104 260.932 -7.9611 224.846M-0.634098 331.586C-2.72702 299.828 -5.07669 266.991 -7.69019 225.099M3.50217 335.101C0.644321 298.195 -1.2857 262.638 -4.43925 221.673M4.00858 334.775C1.34196 303.509 -0.763355 271.463 -3.83369 221.659M7.93238 336.086C5.4021 299.263 3.19939 263.008 0.291957 219.739M8.08819 335.933C5.18253 297.303 2.48227 257.688 -0.147166 219.707M11.6844 337.154C9.27631 289.969 5.95454 242.677 3.31094 218.036M12.074 337.076C9.95978 300.567 7.03464 264.656 3.55175 218.217M16.1305 337.485C13.7472 306.681 11.3055 276.016 7.91113 216.573M16.3413 337.983C14.691 308.659 12.5361 279.252 7.67563 216.1M19.81 338.463C17.0017 301.568 14.1934 265.037 11.9606 214.778M20.2296 338.362C16.5343 296.774 13.8446 254.887 11.6012 214.939M24.5678 338.972C21.3221 291.59 18.2058 244.306 15.0133 214.271M24.2154 338.91C21.4567 294.58 18.2607 250.023 15.2665 214.273M28.403 339.68C25.809 295.941 22.8909 252.862 18.9583 213.513M28.2862 339.404C25.8975 297.057 23.022 254.606 19.4523 213.508M32.4897 340.322C29.2016 299.339 25.9808 257.8 23.1583 212.411M32.3782 340.465C30.4747 311.235 28.1126 281.408 23.2061 212.434M36.2754 339.326C33.4352 304.698 30.5721 269.229 27.3194 212.447M36.3179 339.549C34.6322 310.321 32.5074 281.55 27.5177 212.33M40.3709 338.75C36.8916 296.761 34.1559 255.849 31.2644 212.999M40.1585 338.485C36.8066 289.657 33.6637 241.457 31.4185 212.622M43.8344 337.344C42.478 305.38 39.9548 273.542 35.645 212.602M44.293 337.19C41.3537 296.014 38.5542 254.971 35.5335 212.803M48.2026 336.226C45.7927 305.139 43.7919 273.817 39.7105 212.425M48.1017 336.305C45.4563 295.835 42.5294 254.515 39.2767 212.551M52.3513 334.913C49.9626 306.016 48.045 278.487 43.6042 214.078M51.8838 334.676C48.9038 291.553 45.8635 248.526 43.7476 214.172M56.075 333.179C53.8315 288.653 50.8869 245.827 47.489 215.237M56.0148 333.062C52.3141 289.303 49.0596 245.363 47.6484 215.131M59.9881 330.755C56.1511 285.595 53.4632 240.21 52.0201 216.833M59.7137 331.359C56.5212 286.008 53.9572 240.399 51.7722 216.5M63.1187 330.22C61.4613 289.147 58.0723 247.762 55.4393 217.058M63.6994 329.954C60.2661 285.701 57.5127 241.009 55.7987 217.145M67.9384 326.868C64.4661 290.91 61.888 254.701 60.5459 219.29M67.3045 327.12C65.6631 290.888 63.0372 255.026 60.1616 219.292M71.3699 324.866C69.5214 290.355 67.2319 255.243 64.622 222.132M71.1114 324.384C69.123 296.069 67.3151 268.203 64.089 222.031M75.3203 321.105C72.6572 296.678 71.0866 273.096 68.8999 225.264M75.3929 320.625C72.7617 298.303 70.713 275.564 68.7016 224.906M79.1892 315.381C78.0312 282.188 75.0069 249.201 72.6537 229.059M78.5712 315.195C77.3831 290.826 75.6373 267.501 72.528 228.731M82.704 309.685C80.3331 283.8 78.2136 256.604 77.2645 232.471M82.4065 310.188C80.3136 282.059 78.3304 253.812 76.7563 232.434M86.1249 308.321C85.0625 290.789 83.9842 273.773 80.7456 235.033M85.962 307.637C85.707 289.84 83.8602 271.707 81.1777 234.866M90.2311 294.051C88.6941 280.852 87.0828 268.635 86.6012 249.704M89.1439 293.594C88.1771 277.869 87.3272 261.924 86.1284 249.287" stroke="#A2F1A6" stroke-linecap="round"/>
<path d="M380.315 30.153C378.789 21.5251 377.502 15.4163 378.141 7.46413M378.803 31.1094C378.969 24.2416 376.71 17.7214 376.93 7.94793M385.422 41.186C385.208 30.2892 384.947 21.4305 382.429 -6.69137M386.378 40.4964C385.217 28.2567 384.533 18.1245 382.21 -5.13707M391.708 47.1918C391.397 28.3123 388.674 12.5802 388.596 -6.73308M391.681 46.6079C391.144 30.9676 389.824 15.522 388.29 -8.00654M399.392 47.5672C398.77 30.4727 396.224 13.0557 393.912 -10.6619M398.364 46.9777C397.083 32.6721 396.208 19.2618 394.979 -9.71099M405.709 47.8035C404.57 33.6063 402.986 21.2943 401.877 -9.93899M404.528 48.2067C403.986 26.2825 401.013 1.93094 400.179 -10.6369M412.846 48.5487C408.532 26.9609 406.093 3.20441 407.813 -12.7473M411.77 47.5005C409.75 35.0077 409.338 20.5658 407.721 -12.1495M417.295 43.9359C416.725 28.6459 416.489 14.2458 412.871 -9.54416M417.867 45.7487C416.341 33.851 415.472 21.3193 413.582 -9.65538M423.3 39.2841C421.497 22.6818 421.113 8.07305 420.835 -8.8824M423.55 41.0136C421.724 21.881 420.171 4.05524 420.463 -8.14279M429.628 37.6353C427.961 27.1806 429.067 17.3599 426.207 -0.49365M429.286 36.5092C429.203 25.5596 428.105 15.6638 426.999 0.582404" stroke="#FFE79E" stroke-linecap="round"/>
<path d="M124.665 0.0690471C131.819 -0.112195 140.416 2.58409 151.373 4.77361M123.486 -0.380819C131.081 1.52948 139.058 2.17419 151.421 4.87626M117.955 2.17215C133.532 5.88408 147.724 8.06193 156.088 10.3637M117.895 2.30822C128.289 4.20386 138.399 6.50944 155.314 9.63353M113.954 5.15504C125.186 8.68391 137.613 10.8456 157.799 13.4395M113.626 5.88526C128.267 8.48058 143.434 11.1161 157.388 14.8224M111.252 9.06209C128.406 13.8734 145.338 16.4666 159.05 17.8888M111.425 9.14707C128.53 12.9456 145.69 16.8249 159.809 18.8881M109.192 13.5411C123.478 15.3058 137.282 19.1884 161.897 23.7652M108.633 12.9091C125.474 16.114 144.468 19.6944 161.554 23.5703M106.689 17.0815C127.543 21.7398 149.536 25.5718 161.06 27.2053M106.76 16.8493C126.89 21.1045 146.156 24.3396 161.48 27.5673M104.839 20.9563C121.328 22.6771 138.218 26.8051 160.733 31.3343M105.449 20.3146C125.159 25.2572 144.835 28.9504 161.786 31.9466M104.799 24.3205C119.044 27.6792 134.628 30.0909 160.322 36.1709M103.644 24.5392C120.492 27.6673 136.82 30.3609 160.022 35.2798M104.456 28.4268C124.345 33.2778 143.922 36.2698 159.211 39.4827M103.9 28.2649C126.216 33.1024 148.293 37.5603 159.094 38.8679M103.664 32.0259C121.187 36.0191 136.631 38.4336 157.639 42.3958M104.348 32.6952C115.656 35.3934 127.832 38.0674 157.973 43.4353M103.337 37.1672C119.597 40.6001 134.57 42.8903 154.942 46.5921M103.407 36.8891C120.581 40.1009 137.335 43.0753 155.145 46.9548M107.82 41.8957C118.615 43.4788 131.158 45.2664 152.421 49.3995M108.715 41.6533C123.718 43.8687 138.951 46.9694 152.361 50.2988M112.788 45.5489C125.173 48.4606 137.181 51.8194 147.978 53.5628M112.451 46.8398C123.653 48.9135 134.581 50.4021 146.714 53.7432M113.568 50.9795C121.906 52.1356 129.527 54.5517 143.095 55.6951M114.145 50.8169C123.309 53.5789 131.653 55.2645 143.066 56.7531" stroke="#FFE79E" stroke-linecap="round"/>
</g>
<defs>
<clipPath id="clip0_17628_45023">
<rect width="480" height="360" fill="white"/>
</clipPath>
</defs>
</svg>
