<svg width="480" height="360" viewBox="0 0 480 360" fill="none" xmlns="http://www.w3.org/2000/svg">
<g clip-path="url(#clip0_17628_43774)">
<rect width="480" height="360" fill="#181610"/>
<path d="M102.132 140.598C107.487 143.723 110.409 150.637 113.81 155.78C117.211 160.922 120.131 165.924 122.533 171.453C124.936 176.984 126.846 182.971 128.223 188.959C129.597 194.947 130.45 201.178 130.787 207.379C131.124 213.58 131.054 220.039 130.247 226.17C129.437 232.298 128.056 238.306 125.939 244.158C123.819 250.009 120.694 255.861 117.537 261.276C114.38 266.689 110.904 271.958 106.994 276.642C103.083 281.327 98.8593 285.431 94.0748 289.381C89.2926 293.33 83.683 297.329 78.2922 300.343C72.9037 303.354 67.6542 305.665 61.7368 307.458C55.8195 309.25 49.0087 310.316 42.7904 311.098C36.5699 311.877 30.5409 312.466 24.423 312.139C18.3073 311.814 12.0982 310.553 6.08973 309.144C0.0812149 307.732 -5.97289 306.226 -11.6281 303.681C-17.281 301.133 -22.7493 297.411 -27.8369 293.864C-32.9246 290.319 -37.8458 286.665 -42.1539 282.407C-46.4642 278.146 -50.2549 273.494 -53.6945 268.309C-57.1364 263.121 -60.3823 256.942 -62.8007 251.284C-65.2192 245.626 -66.9105 240.313 -68.2052 234.355C-69.5022 228.399 -70.3319 221.797 -70.5781 215.537C-70.822 209.277 -70.5803 202.823 -69.6754 196.792C-68.7728 190.761 -67.0564 185.191 -65.1531 179.354C-63.2521 173.518 -61.2599 167.158 -58.2647 161.774C-55.2719 156.391 -51.2008 151.78 -47.1868 147.056C-43.1751 142.334 -39.0197 137.389 -34.1919 133.435C-29.3641 129.479 -23.7295 126.243 -18.2224 123.332C-12.7154 120.419 -7.00774 117.892 -1.15195 115.961C4.70157 114.027 10.881 112.523 16.9078 111.741C22.9368 110.957 28.7903 110.996 35.0154 111.268C41.2382 111.541 48.1721 111.995 54.2513 113.382C60.3327 114.768 65.9127 116.915 71.4927 119.587C77.0727 122.258 81.7181 124.753 87.7357 129.406C93.7534 134.06 103.733 143.161 107.603 147.508C111.473 151.855 112.319 154.398 110.956 155.489M68.4657 118.69C74.7021 119.494 80.51 124.366 85.8233 127.698C91.1389 131.031 95.8983 134.567 100.352 138.685C104.806 142.805 109.046 147.324 112.552 152.41C116.057 157.496 118.774 163.533 121.391 169.198C124.006 174.866 126.597 180.597 128.243 186.407C129.889 192.218 130.855 197.849 131.261 204.064C131.669 210.279 131.573 217.421 130.684 223.695C129.795 229.969 127.789 235.802 125.929 241.701C124.072 247.603 122.394 253.568 119.531 259.096C116.668 264.625 112.615 270.127 108.754 274.871C104.891 279.616 101.009 283.681 96.3542 287.563C91.7019 291.444 86.1516 295.05 80.8314 298.154C75.5136 301.256 70.2185 303.994 64.4402 306.18C58.6619 308.369 52.4027 310.309 46.1617 311.275C39.9207 312.241 33.2922 312.189 26.9964 311.977C20.7007 311.766 14.4437 311.175 8.38965 310.007C2.33783 308.841 -3.63194 307.326 -9.31678 304.983C-15.0016 302.638 -20.7434 299.397 -25.7194 295.943C-30.6953 292.487 -34.7162 288.406 -39.1701 284.252C-43.6218 280.096 -48.6388 275.971 -52.4363 271.017C-56.2338 266.066 -59.4318 260.167 -61.9551 254.54C-64.4807 248.914 -66.0079 243.165 -67.5852 237.263C-69.1626 231.36 -71.0545 225.263 -71.4192 219.121C-71.7816 212.981 -70.5006 206.609 -69.762 200.416C-69.0235 194.222 -68.734 187.825 -66.9834 181.962C-65.2351 176.097 -62.1283 170.821 -59.2699 165.233C-56.4116 159.645 -53.5851 153.273 -49.8355 148.431C-46.0881 143.586 -41.5134 140.134 -36.7836 136.169C-32.0538 132.202 -26.8386 127.87 -21.4614 124.632C-16.0843 121.394 -10.42 118.719 -4.5209 116.733C1.37592 114.747 7.70811 113.784 13.9286 112.718C20.1491 111.65 26.5816 110.257 32.8066 110.332C39.0294 110.407 45.3092 111.795 51.2721 113.166C57.235 114.536 65.7874 117.336 68.5819 118.554C71.3765 119.772 68.5637 118.994 68.044 120.471" fill="#422424"/>
<path d="M25.7556 110.821C31.5909 108.85 38.698 110.932 44.9345 111.832C51.1709 112.734 57.2889 114.256 63.1743 116.227C69.0597 118.197 74.9155 120.549 80.247 123.653C85.5786 126.755 90.5158 130.806 95.1612 134.847C99.8066 138.885 104.174 143.102 108.117 147.888C112.063 152.673 115.895 158.091 118.824 163.558C121.755 169.026 123.895 174.816 125.703 180.69C127.511 186.564 128.853 192.733 129.671 198.803C130.49 204.87 130.825 211.019 130.615 217.1C130.405 223.181 129.824 229.224 128.415 235.286C127.007 241.347 124.732 247.791 122.161 253.47C119.587 259.146 116.588 264.334 112.979 269.352C109.373 274.369 104.903 279.287 100.518 283.579C96.1322 287.872 91.7193 291.733 86.6704 295.109C81.6215 298.486 75.9321 301.427 70.2222 303.84C64.5146 306.255 58.5562 308.23 52.4178 309.596C46.2816 310.961 39.6303 311.725 33.4007 312.03C27.1711 312.334 21.0441 312.302 15.0447 311.425C9.04526 310.546 3.29204 308.791 -2.59566 306.76C-8.48337 304.731 -14.8931 302.279 -20.2861 299.24C-25.6792 296.205 -30.2152 292.512 -34.9564 288.535C-39.6975 284.561 -44.7578 280.198 -48.7308 275.385C-52.7038 270.57 -55.8471 265.061 -58.7944 259.653C-61.7439 254.245 -64.4724 248.748 -66.419 242.935C-68.3656 237.125 -69.7128 230.905 -70.4695 224.781C-71.2263 218.657 -71.3676 212.376 -70.9596 206.197C-70.5493 200.016 -69.5464 193.72 -68.0146 187.702C-66.4851 181.685 -64.2467 175.659 -61.7736 170.094C-59.2981 164.529 -56.6176 159.413 -53.1688 154.316C-49.7224 149.217 -45.485 143.838 -41.088 139.507C-36.691 135.176 -31.9453 131.652 -26.787 128.322C-21.6264 124.993 -15.896 122.028 -10.1314 119.533C-4.36676 117.036 -1.36023 114.538 7.80298 113.343C16.9662 112.148 35.7075 111.414 44.8524 112.363C53.9951 113.313 62.7914 117.492 62.6683 119.042M22.6601 111.77C28.443 109.739 35.8989 111.175 42.2585 111.811C48.6157 112.445 54.9183 113.777 60.8083 115.581C66.696 117.385 72.276 119.831 77.5893 122.639C82.9048 125.448 87.8147 128.566 92.6949 132.429C97.5751 136.292 102.774 141.023 106.871 145.815C110.967 150.61 114.165 155.93 117.269 161.186C120.374 166.442 123.499 171.698 125.496 177.352C127.49 183.005 128.436 188.884 129.243 195.108C130.05 201.334 130.362 208.338 130.339 214.698C130.316 221.057 130.36 227.294 129.108 233.264C127.857 239.233 125.386 244.803 122.835 250.511C120.283 256.222 117.226 262.36 113.793 267.525C110.36 272.692 106.378 277.071 102.236 281.509C98.0971 285.947 93.9349 290.692 88.9475 294.157C83.9625 297.62 77.9768 299.827 72.3216 302.297C66.6663 304.767 60.9154 307.237 55.014 308.982C49.1104 310.725 43.1338 312.266 36.911 312.764C30.6905 313.259 23.9503 312.827 17.6842 311.959C11.4204 311.091 5.06998 309.441 -0.676401 307.557C-6.42506 305.674 -11.4375 303.597 -16.7941 300.654C-22.1507 297.711 -27.8811 293.823 -32.8183 289.896C-37.7578 285.97 -42.255 281.754 -46.4218 277.094C-50.5885 272.435 -54.81 267.309 -57.8234 261.935C-60.8367 256.558 -62.5395 250.641 -64.502 244.846C-66.4623 239.054 -68.4887 233.218 -69.5919 227.176C-70.6952 221.134 -71.2149 214.794 -71.1169 208.592C-71.0188 202.391 -70.2097 196.04 -69.0061 189.973C-67.8026 183.903 -66.3028 177.804 -63.898 172.182C-61.4932 166.558 -58.1858 161.252 -54.5752 156.232C-50.9646 151.21 -46.4491 146.422 -42.2322 142.057C-38.0131 137.692 -34.2019 133.749 -29.2624 130.036C-24.323 126.323 -18.3418 122.387 -12.5886 119.776C-6.83536 117.165 -0.644495 115.833 5.25233 114.37C11.1469 112.907 19.7129 111.136 22.7878 110.996C25.8627 110.855 23.597 111.82 23.6996 113.518" stroke="#422424" stroke-width="8" stroke-linecap="round"/>
<path d="M69.7808 -100.904C76.6919 -104.194 85.1234 -102.697 92.7435 -102.422C100.361 -102.149 107.968 -100.849 115.494 -99.2583C123.021 -97.6676 130.7 -95.3895 137.903 -92.8816C145.104 -90.3738 151.958 -87.859 158.7 -84.211C165.445 -80.5629 172.217 -75.6791 178.363 -70.9979C184.508 -66.3166 190.284 -61.5216 195.57 -56.1235C200.856 -50.7276 205.686 -44.9199 210.078 -38.6115C214.471 -32.3008 218.649 -25.098 221.924 -18.2684C225.2 -11.4388 227.488 -4.88007 229.731 2.37052C231.974 9.62339 234.197 17.716 235.382 25.242C236.567 32.7679 236.811 39.9571 236.845 47.5285C236.879 55.1023 236.677 63.0993 235.585 70.6822C234.495 78.2628 232.633 85.7682 230.299 93.0188C227.967 100.269 225.081 107.331 221.585 114.186C218.086 121.04 213.664 127.968 209.312 134.142C204.963 140.316 200.712 145.817 195.481 151.235C190.252 156.654 184.068 161.899 177.934 166.653C171.798 171.41 165.395 176.055 158.668 179.769C151.942 183.48 144.81 186.391 137.57 188.936C130.333 191.48 122.804 193.571 115.243 195.037C107.68 196.502 99.7572 197.529 92.1942 197.727C84.6311 197.927 77.3848 197.192 69.8628 196.232C62.3431 195.271 54.4472 193.874 47.0642 191.965C39.6812 190.057 32.4692 187.816 25.5603 184.782C18.6514 181.749 12.0411 177.921 5.60866 173.761C-0.821545 169.603 -7.23124 164.972 -13.0232 159.828C-18.8152 154.685 -24.3405 148.789 -29.1432 142.899C-33.9436 137.007 -37.9941 130.979 -41.8349 124.488C-45.678 117.995 -49.2407 111.031 -52.1971 103.949C-55.1535 96.8649 -57.8773 89.5278 -59.5709 81.9905C-61.2645 74.4531 -61.8754 66.3446 -62.3564 58.7276C-62.8373 51.1129 -63.0516 43.8737 -62.4544 36.2908C-61.8572 28.7102 -60.5716 20.6677 -58.7777 13.2373C-56.9815 5.80465 -54.4879 -1.24567 -51.6865 -8.30282C-48.8874 -15.3577 -45.7714 -22.565 -41.9762 -29.1033C-38.1787 -35.6416 -33.7635 -41.6792 -28.9129 -47.5279C-24.0646 -53.3766 -18.6465 -59.041 -12.8773 -64.1956C-7.11043 -69.3525 -0.705296 -74.2545 5.69071 -78.4669C12.0867 -82.6771 18.5716 -86.357 25.4965 -89.4703C32.4236 -92.5812 38.3341 -95.0231 47.2443 -97.1442C56.1567 -99.2629 72.2402 -101.939 78.9622 -102.19C85.6842 -102.442 87.494 -101.159 87.5761 -98.653M206.741 -42.4962C213.069 -38.1518 214.648 -29.736 218.343 -23.0202C222.038 -16.3044 226.321 -9.31326 228.908 -2.20149C231.495 4.908 232.514 12.1358 233.868 19.6481C235.22 27.1604 236.779 35.3873 237.025 42.8701C237.271 50.3528 236.335 56.9843 235.345 64.5422C234.358 72.1 233.077 80.7911 231.099 88.2169C229.12 95.6405 226.572 102.258 223.474 109.09C220.379 115.92 216.606 122.706 212.522 129.199C208.437 135.694 203.942 142.453 198.966 148.054C193.99 153.654 188.526 158.044 182.666 162.81C176.806 167.575 170.464 172.671 163.804 176.646C157.144 180.622 149.836 183.836 142.706 186.66C135.576 189.484 128.341 191.944 121.029 193.592C113.719 195.242 106.377 195.938 98.8386 196.555C91.3006 197.169 83.5461 197.793 75.8007 197.288C68.053 196.78 59.838 195.406 52.357 193.514C44.8783 191.625 37.9466 188.913 30.9215 185.941C23.8963 182.968 16.7116 179.493 10.2108 175.681C3.70991 171.872 -2.22338 167.944 -8.08601 163.074C-13.9509 158.206 -19.8455 152.111 -24.9719 146.47C-30.0982 140.83 -34.7072 135.482 -38.842 129.231C-42.9746 122.979 -46.5236 115.961 -49.7741 108.963C-53.0245 101.965 -56.357 94.6824 -58.3401 87.2384C-60.3231 79.7921 -60.8588 71.8451 -61.6726 64.2896C-62.484 56.734 -63.3958 49.3742 -63.2203 41.9074C-63.0425 34.4383 -62.1421 26.9829 -60.6103 19.4888C-59.0786 11.9947 -56.6259 4.15699 -54.0274 -3.05946C-51.4266 -10.2759 -48.5956 -17.1942 -45.0101 -23.8053C-41.4269 -30.4164 -37.1553 -36.6634 -32.5258 -42.7283C-27.894 -48.7932 -22.8315 -54.7444 -17.2242 -60.1948C-11.6168 -65.6453 -5.20484 -71.0684 1.11823 -75.4288C7.4413 -79.7892 13.949 -83.1118 20.7097 -86.357C27.4704 -89.6045 34.3725 -92.6313 41.6825 -94.9025C48.9926 -97.176 56.9477 -98.8965 64.5655 -99.9957C72.1832 -101.097 79.8785 -101.493 87.3892 -101.505C94.8998 -101.518 102.185 -101.058 109.627 -100.066C117.072 -99.074 124.685 -97.7472 132.047 -95.5511C139.41 -93.3573 146.87 -90.3783 153.806 -86.8964C160.743 -83.4122 167.433 -79.2248 173.662 -74.6505C179.894 -70.0762 185.7 -64.6917 191.193 -59.4507C196.684 -54.2073 204.407 -46.2899 206.616 -43.1949C208.824 -40.0975 206.363 -42.4393 204.443 -40.8736" fill="#FCEECA"/>
<path d="M203.455 -47.1637C210.07 -43.1151 212.796 -34.8791 216.696 -28.3454C220.596 -21.8117 224.093 -15.1027 226.858 -7.96139C229.625 -0.817764 231.677 7.01542 233.293 14.5072C234.911 21.9968 235.987 29.3725 236.561 36.9827C237.136 44.5928 237.398 52.5171 236.737 60.1682C236.076 67.817 234.487 75.4613 232.597 82.8826C230.708 90.3039 228.276 97.691 225.399 104.698C222.52 111.703 219.14 118.469 215.331 124.921C211.522 131.372 207.376 137.485 202.543 143.409C197.711 149.333 192.092 155.363 186.339 160.461C180.586 165.557 174.52 169.919 168.022 173.986C161.523 178.053 154.304 181.815 147.348 184.862C140.389 187.909 133.566 190.36 126.279 192.274C118.99 194.186 111.233 195.538 103.617 196.339C95.9995 197.142 88.3065 197.42 80.5771 197.09C72.8476 196.76 64.7694 195.777 57.236 194.354C49.7048 192.934 42.4267 191.154 35.3787 188.565C28.3285 185.973 21.6636 182.509 14.937 178.808C8.2128 175.11 1.0851 171.012 -4.97584 166.367C-11.0345 161.72 -16.1426 156.454 -21.4217 150.937C-26.6986 145.421 -32.2239 139.556 -36.6436 133.261C-41.0611 126.966 -44.5987 120.016 -47.9312 113.171C-51.2637 106.328 -54.3455 99.4252 -56.6386 92.1973C-58.9294 84.9695 -60.607 77.3525 -61.6852 69.8061C-62.761 62.2596 -63.2146 54.5584 -63.1007 46.9164C-62.9867 39.2721 -62.2732 31.4981 -61.0013 23.9448C-59.7294 16.3938 -57.7441 8.8019 -55.4738 1.60365C-53.2012 -5.59232 -50.7053 -12.3878 -47.3728 -19.2401C-44.038 -26.0901 -39.8827 -33.2838 -35.4697 -39.5012C-31.0568 -45.7186 -26.245 -51.1964 -20.8952 -56.5444C-15.5454 -61.8948 -9.54833 -66.9538 -3.36658 -71.5941C2.81516 -76.2344 9.51662 -80.7677 16.1953 -84.3861C22.8739 -88.0046 29.5936 -90.847 36.7031 -93.3003C43.8148 -95.7559 51.2183 -97.6015 58.8521 -99.1195C66.4858 -100.637 74.8147 -102.11 82.5077 -102.408C90.1984 -102.708 97.4789 -101.825 105.005 -100.917C112.532 -100.009 120.243 -99.0398 127.667 -96.962C135.089 -94.8843 142.595 -91.7482 149.543 -88.4484C156.49 -85.1463 163.037 -81.3321 169.355 -77.1629C175.676 -72.9937 180.041 -70.9022 187.461 -63.4332C194.878 -55.9641 208.502 -40.4866 213.865 -32.3485C219.231 -24.2126 221.752 -15.9744 219.648 -14.6089M142.258 -92.0555C149.743 -91.5229 156.028 -84.9574 162.741 -80.886C169.456 -76.8124 176.597 -72.3951 182.546 -67.6229C188.496 -62.8506 193.51 -57.944 198.441 -52.2478C203.369 -46.5493 207.991 -39.8358 212.122 -33.4386C216.25 -27.0414 219.926 -20.8013 223.215 -13.8625C226.502 -6.92137 229.76 0.977812 231.85 8.20109C233.942 15.4266 234.911 22.0446 235.759 29.4841C236.607 36.9235 237.124 45.0025 236.942 52.8334C236.762 60.6666 236.156 68.9003 234.674 76.4786C233.19 84.0569 230.735 91.2529 228.05 98.2986C225.367 105.342 222.044 112.081 218.57 118.746C215.096 125.412 211.718 132.271 207.212 138.298C202.705 144.321 197.118 149.679 191.532 154.897C185.943 160.118 180.034 165.206 173.679 169.614C167.324 174.02 160.128 177.991 153.397 181.344C146.668 184.698 140.452 187.399 133.297 189.734C126.145 192.069 118.146 194.117 110.478 195.349C102.808 196.58 94.9806 197.137 87.2785 197.121C79.5787 197.106 71.9131 196.436 64.2702 195.255C56.6274 194.072 48.6905 192.242 41.4215 190.028C34.1547 187.814 27.3028 185.199 20.6675 181.969C14.0344 178.74 7.93699 174.942 1.61392 170.652C-4.71143 166.362 -11.6727 161.633 -17.2823 156.233C-22.8897 150.835 -27.5374 144.31 -32.0369 138.25C-36.5388 132.192 -40.5254 126.498 -44.2865 119.877C-48.0498 113.255 -51.9931 105.684 -54.6099 98.5262C-57.2244 91.3712 -58.494 84.3983 -59.9756 76.9429C-61.4549 69.4875 -63.1098 61.5063 -63.4973 53.7915C-63.8825 46.0767 -63.3377 38.2708 -62.2938 30.6515C-61.2521 23.0345 -59.2234 15.3333 -57.238 8.0782C-55.255 0.823058 -53.3129 -5.99058 -50.3884 -12.877C-47.464 -19.7635 -43.9856 -26.7456 -39.6912 -33.2429C-35.3945 -39.7402 -29.7188 -46.0714 -24.6106 -51.8586C-19.5025 -57.6459 -14.7226 -63.1032 -9.0423 -67.9619C-3.35974 -72.823 2.96561 -77.2539 9.47787 -81.0203C15.9924 -84.7867 22.9036 -87.8362 30.0335 -90.5671C37.1658 -93.2958 44.7972 -95.4851 52.2669 -97.4058C59.7388 -99.3243 67.2198 -101.32 74.8558 -102.085C82.494 -102.849 90.4036 -102.67 98.0897 -101.991C105.774 -101.313 113.578 -99.7385 120.968 -98.0134C128.36 -96.2907 138.893 -93.3049 142.429 -91.6436C145.962 -89.98 143.026 -90.3009 142.173 -88.0388" stroke="#FCEECA" stroke-width="8" stroke-linecap="round"/>
<path d="M293.558 163.643C297.069 156.779 304.949 153.769 311.231 149.496C317.513 145.224 324.39 141.478 331.253 138.007C338.116 134.536 345.091 130.976 352.413 128.671C359.734 126.367 367.552 125.283 375.175 124.177C382.797 123.07 390.52 122.126 398.149 122.037C405.778 121.947 413.407 122.387 420.954 123.64C428.504 124.894 436.267 127.23 443.436 129.553C450.607 131.874 457.186 134.172 463.967 137.567C470.75 140.962 477.867 145.512 484.13 149.927C490.396 154.342 496.022 158.775 501.556 164.053C507.089 169.332 512.632 175.439 517.334 181.597C522.035 187.753 526.147 194.269 529.76 201C533.375 207.73 536.552 214.729 539.018 221.98C541.485 229.229 543.069 237.023 544.56 244.5C546.05 251.978 547.612 259.247 547.963 266.847C548.314 274.443 547.612 282.327 546.666 290.088C545.722 297.85 544.341 305.94 542.292 313.413C540.242 320.888 537.555 327.96 534.373 334.932C531.189 341.903 527.423 348.785 523.199 355.241C518.976 361.697 514.045 368.027 509.026 373.663C504.005 379.296 498.912 384.252 493.077 389.047C487.244 393.839 480.613 398.392 474.021 402.424C467.431 406.453 460.564 410.282 453.534 413.23C446.504 416.179 439.308 418.392 431.848 420.119C424.385 421.849 416.475 423.09 408.766 423.599C401.057 424.11 393.155 423.778 385.594 423.175C378.033 422.573 370.782 421.677 363.406 419.982C356.028 418.289 348.515 415.899 341.33 413.012C334.148 410.124 326.815 406.699 320.3 402.655C313.784 398.611 308.017 393.656 302.232 388.751C296.446 383.846 290.652 378.939 285.585 373.223C280.52 367.505 275.929 360.907 271.836 354.449C267.744 347.993 264.204 341.472 261.031 334.478C257.858 327.484 254.923 319.873 252.798 312.483C250.674 305.094 249.162 297.733 248.283 290.139C247.405 282.544 247.161 274.668 247.526 266.913C247.893 259.156 249.033 251.204 250.48 243.598C251.927 235.994 253.664 228.5 256.21 221.284C258.756 214.065 262.025 207.006 265.757 200.289C269.486 193.572 271.963 188.656 278.587 180.979C285.211 173.304 298.626 159.884 305.5 154.236C312.377 148.591 318.238 145.242 319.845 147.1M435.506 127.705C443.21 127.187 451.387 132.183 458.4 135.194C465.414 138.206 471.231 141.631 477.588 145.773C483.946 149.918 490.832 155.132 496.542 160.053C502.254 164.974 507.048 169.435 511.857 175.299C516.667 181.167 521.385 188.605 525.401 195.247C529.415 201.888 532.996 208.177 535.95 215.151C538.905 222.125 541.248 229.524 543.126 237.087C545.006 244.647 546.468 252.954 547.229 260.519C547.992 268.086 548.186 274.902 547.705 282.485C547.224 290.065 546.11 298.434 544.343 306.013C542.577 313.594 539.942 320.831 537.106 327.96C534.268 335.09 531.043 342.238 527.323 348.792C523.603 355.349 519.518 361.282 514.786 367.292C510.052 373.299 504.72 379.599 498.928 384.843C493.136 390.089 486.453 394.682 480.03 398.767C473.609 402.852 467.283 406.263 460.393 409.352C453.504 412.44 445.987 415.104 438.695 417.297C431.405 419.489 424.207 421.574 416.649 422.511C409.088 423.448 401.026 423.086 393.337 422.916C385.646 422.749 378.017 422.74 370.513 421.498C363.012 420.257 355.663 418.039 348.314 415.468C340.968 412.898 333.143 409.778 326.432 406.075C319.719 402.376 314.105 397.844 308.042 393.262C301.979 388.68 295.523 383.919 290.053 378.586C284.58 373.253 279.599 367.514 275.218 361.262C270.837 355.007 267.206 347.963 263.764 341.067C260.325 334.173 257.017 327.11 254.576 319.892C252.135 312.673 250.355 305.346 249.115 297.761C247.877 290.175 247.116 282.228 247.147 274.379C247.179 266.53 248.134 258.244 249.306 250.663C250.475 243.082 252.019 236.106 254.173 228.897C256.329 221.685 258.875 214.289 262.23 207.396C265.588 200.502 269.898 193.806 274.309 187.54C278.717 181.277 283.566 175.409 288.69 169.808C293.814 164.209 299.116 158.83 305.049 153.938C310.982 149.047 317.522 144.307 324.287 140.465C331.052 136.623 338.374 133.45 345.638 130.884C352.903 128.319 360.395 126.417 367.872 125.07C375.35 123.723 382.877 123.219 390.504 122.807C398.133 122.394 405.983 121.842 413.64 122.593C421.296 123.345 432.734 126.067 436.445 127.311C440.154 128.555 436.682 127.576 435.898 130.06" fill="#244236"/>
<path d="M335.765 135.377C341.381 130.057 350.125 129.246 357.426 127.23C364.729 125.214 372.08 124.14 379.579 123.278C387.076 122.417 394.753 121.801 402.417 122.06C410.078 122.319 418.083 123.361 425.553 124.836C433.02 126.309 440.139 128.337 447.228 130.903C454.319 133.466 461.353 136.639 468.096 140.22C474.836 143.801 481.457 147.851 487.682 152.39C493.908 156.93 500.064 161.888 505.446 167.46C510.828 173.029 515.573 179.501 519.973 185.81C524.374 192.12 528.491 198.498 531.846 205.313C535.204 212.131 537.745 219.442 540.116 226.713C542.484 233.985 544.772 241.433 546.063 248.943C547.355 256.455 547.845 264.132 547.859 271.777C547.872 279.419 547.371 287.211 546.145 294.803C544.916 302.398 542.805 309.935 540.496 317.335C538.185 324.735 535.509 332.288 532.281 339.207C529.051 346.128 525.514 352.579 521.117 358.856C516.72 365.136 511.174 371.312 505.897 376.879C500.618 382.446 495.51 387.569 489.449 392.259C483.386 396.946 476.279 401.345 469.529 405.012C462.782 408.678 456.113 411.617 448.96 414.256C441.805 416.893 434.121 419.287 426.606 420.841C419.088 422.396 411.443 423.253 403.864 423.583C396.283 423.911 388.638 423.668 381.12 422.809C373.603 421.947 366.067 420.44 358.759 418.421C351.449 416.403 344.324 413.739 337.269 410.696C330.212 407.652 322.948 404.334 316.424 400.158C309.903 395.984 303.876 390.726 298.134 385.645C292.394 380.563 286.839 375.447 281.978 369.667C277.113 363.89 272.807 357.599 268.955 350.971C265.103 344.343 261.802 337.016 258.862 329.901C255.922 322.785 253.18 315.66 251.308 308.281C249.439 300.899 248.14 293.376 247.645 285.621C247.15 277.864 247.736 269.444 248.34 261.742C248.947 254.038 249.626 246.883 251.274 239.394C252.92 231.905 255.334 223.921 258.222 216.805C261.11 209.691 264.738 203.178 268.602 196.706C272.468 190.234 276.651 183.925 281.412 177.968C286.172 172.014 291.519 166.207 297.163 160.972C302.809 155.735 308.141 151.086 315.28 146.557C322.419 142.025 334.826 135.819 340.002 133.787C345.176 131.757 345.297 132.057 346.334 134.374M309.706 150.58C314.311 144.513 323.479 142.264 330.342 138.745C337.203 135.224 343.786 131.81 350.879 129.459C357.975 127.107 365.415 125.853 372.912 124.632C380.411 123.411 388.088 122.206 395.87 122.138C403.65 122.071 411.999 123.237 419.601 124.227C427.203 125.219 434.235 125.957 441.483 128.083C448.734 130.209 456.14 133.416 463.101 136.983C470.06 140.55 477.013 145.029 483.242 149.487C489.472 153.943 495.063 158.582 500.484 163.723C505.904 168.864 510.93 174.305 515.762 180.33C520.595 186.358 525.673 193.217 529.478 199.879C533.284 206.544 536.061 213.187 538.595 220.308C541.13 227.428 543.298 235.073 544.688 242.601C546.079 250.129 546.48 257.857 546.933 265.474C547.389 273.092 548.114 280.666 547.417 288.311C546.721 295.955 544.845 303.88 542.753 311.344C540.66 318.806 537.993 326.098 534.859 333.09C531.723 340.08 528.137 346.852 523.943 353.285C519.747 359.72 514.709 365.86 509.692 371.695C504.675 377.53 499.476 383.232 493.841 388.295C488.204 393.361 482.476 398.027 475.875 402.08C469.276 406.133 461.39 409.821 454.237 412.614C447.084 415.409 440.239 417.049 432.963 418.845C425.685 420.644 418.281 422.683 410.577 423.397C402.873 424.112 394.368 423.645 386.734 423.129C379.103 422.612 372.242 421.968 364.786 420.3C357.33 418.634 349.181 416.043 342.003 413.129C334.826 410.217 328.126 406.742 321.721 402.827C315.316 398.914 309.517 394.38 303.57 389.645C297.623 384.911 291.341 380.029 286.037 374.419C280.733 368.808 275.782 362.474 271.745 355.979C267.708 349.482 264.95 342.499 261.816 335.438C258.682 328.38 255.217 320.991 252.942 313.614C250.665 306.235 249.134 298.64 248.158 291.172C247.185 283.701 246.804 276.329 247.096 268.796C247.385 261.266 248.466 253.689 249.902 245.98C251.338 238.271 253.161 229.948 255.712 222.544C258.263 215.139 261.538 208.211 265.206 201.558C268.871 194.903 273.177 188.752 277.71 182.619C282.242 176.488 286.874 170.076 292.399 164.768C297.924 159.46 307.564 152.889 310.864 150.77C314.167 148.651 310.944 150.142 312.212 152.058" stroke="#244236" stroke-width="8" stroke-linecap="round"/>
<path d="M386.373 19.5247C389.583 14.5303 396.268 10.9995 401.473 7.89729C406.675 4.79247 411.891 2.81929 417.596 0.903603C423.298 -1.00947 429.704 -2.8964 435.694 -3.58898C441.68 -4.27894 447.633 -4.05679 453.523 -3.24661C459.416 -2.43643 465.39 -0.648807 471.04 1.27472C476.691 3.19824 482.214 5.31517 487.426 8.29454C492.639 11.2765 497.91 14.8857 502.315 19.164C506.72 23.4449 510.573 28.9411 513.863 33.9694C517.151 38.9978 519.902 43.8797 522.046 49.3315C524.188 54.7832 525.766 60.7655 526.725 66.6824C527.684 72.5967 528.028 78.7724 527.798 84.8304C527.566 90.8885 526.858 97.1974 525.339 103.028C523.82 108.859 521.642 114.483 518.691 119.817C515.739 125.151 511.652 130.399 507.629 135.033C503.607 139.669 499.259 144.034 494.557 147.627C489.854 151.223 484.866 154.041 479.416 156.607C473.966 159.171 467.68 161.683 461.854 163.021C456.029 164.359 450.512 164.79 444.465 164.631C438.419 164.471 431.533 163.402 425.575 162.062C419.617 160.718 414.089 159.119 408.717 156.578C403.346 154.038 398.109 150.429 393.342 146.825C388.577 143.218 384.013 139.562 380.121 134.947C376.231 130.329 372.811 124.474 370.003 119.119C367.194 113.764 364.821 108.464 363.268 102.809C361.716 97.1556 360.973 91.291 360.687 85.1911C360.397 79.0912 360.507 72.1498 361.538 66.212C362.57 60.2715 364.555 55.0785 366.879 49.5536C369.205 44.0287 368.888 40.4273 375.489 33.0599C382.088 25.6951 397.51 10.861 406.48 5.35175C415.447 -0.157472 428.79 -1.23423 429.303 0.0097909M460.515 -1.35967C466.291 -1.41979 472.692 1.71117 478.267 4.11035C483.839 6.50953 489.143 9.65093 493.955 13.038C498.767 16.4251 503.133 19.8278 507.137 24.4354C511.138 29.043 515.171 35.2918 517.972 40.6861C520.77 46.0777 522.354 51.1217 523.93 56.793C525.508 62.4668 526.78 68.747 527.439 74.7267C528.098 80.7037 528.624 86.7932 527.879 92.6657C527.134 98.5355 525.146 104.437 522.966 109.951C520.785 115.466 518.06 120.601 514.801 125.752C511.545 130.904 507.866 136.543 503.422 140.858C498.98 145.176 493.374 148.508 488.14 151.652C482.907 154.796 477.477 157.624 472.02 159.73C466.559 161.839 461.195 163.598 455.389 164.299C449.584 164.999 443.186 164.662 437.186 163.941C431.189 163.219 425.242 161.711 419.404 159.966C413.566 158.222 407.368 156.401 402.163 153.471C396.961 150.541 392.495 146.642 388.181 142.385C383.864 138.13 379.738 132.79 376.271 127.932C372.803 123.071 369.885 118.612 367.379 113.221C364.876 107.829 362.33 101.504 361.236 95.5875C360.145 89.6706 360.564 83.6544 360.825 77.7217C361.085 71.7891 361.304 65.9166 362.797 59.9866C364.292 54.0593 367.043 47.7033 369.789 42.147C372.537 36.5933 375.447 31.3298 379.279 26.6569C383.114 21.984 388.022 17.724 392.792 14.1148C397.562 10.5055 402.645 7.64117 407.899 5.00155C413.157 2.35931 418.609 -0.269852 424.325 -1.73079C430.043 -3.19173 436.196 -3.80067 442.199 -3.76669C448.204 -3.73533 457.363 -2.10974 460.349 -1.53216C463.332 -0.951971 460.148 -1.57659 460.104 -0.301214" fill="#423324"/>
<path d="M409.327 3.74958C413.868 0.158652 420.287 -0.209849 426.055 -1.45125C431.822 -2.69266 437.895 -3.69624 443.936 -3.70408C449.978 -3.70931 456.472 -2.8364 462.3 -1.49568C468.128 -0.154966 473.575 1.8156 478.908 4.34284C484.238 6.86747 489.482 10.0821 494.288 13.6599C499.098 17.2378 503.703 21.3226 507.749 25.8126C511.795 30.3052 515.671 35.2107 518.566 40.6049C521.457 45.9992 523.515 52.316 525.107 58.1806C526.699 64.0479 527.853 69.8289 528.116 75.7955C528.379 81.7621 527.613 88.0737 526.686 93.9854C525.761 99.8971 524.675 105.733 522.562 111.26C520.452 116.785 517.406 122.18 514.017 127.14C510.63 132.1 506.697 136.867 502.231 141.025C497.766 145.181 492.413 148.887 487.223 152.088C482.034 155.29 476.639 158.267 471.092 160.235C465.543 162.203 459.953 163.251 453.94 163.893C447.93 164.536 441.006 164.714 435.019 164.089C429.032 163.465 423.731 162.046 418.02 160.143C412.307 158.24 405.972 155.799 400.748 152.669C395.525 149.535 391.034 145.471 386.683 141.347C382.333 137.223 378.06 132.837 374.645 127.919C371.23 123.003 368.372 117.447 366.189 111.846C364.003 106.248 362.445 100.294 361.539 94.3277C360.635 88.3638 360.371 82.0966 360.754 76.0516C361.137 70.0066 362.325 63.8022 363.834 58.0604C365.342 52.316 367.111 46.9662 369.805 41.5928C372.498 36.2195 376.135 30.4254 379.993 25.8152C383.854 21.205 385.816 18.3093 392.956 13.9317C400.097 9.55674 415.342 2.17888 422.837 -0.439836C430.335 -3.05593 437.635 -3.11082 437.934 -1.7701M379.17 26.6515C381.681 21.2861 388.298 17.8206 393.027 14.2506C397.753 10.6805 402.077 7.82139 407.53 5.23404C412.98 2.64669 419.643 0.195241 425.739 -1.27354C431.836 -2.74232 438.114 -3.46886 444.103 -3.57863C450.09 -3.6884 455.954 -3.06377 461.662 -1.93214C467.37 -0.797883 472.822 0.728392 478.348 3.21904C483.873 5.70969 489.938 9.26926 494.815 13.0092C499.691 16.7491 503.68 21.1894 507.603 25.6558C511.524 30.1223 515.572 34.6932 518.344 39.8078C521.114 44.9198 522.752 50.4003 524.227 56.3407C525.704 62.2812 526.649 69.2148 527.199 75.4479C527.749 81.6811 528.384 87.8567 527.53 93.7423C526.676 99.6253 524.422 105.108 522.07 110.751C519.717 116.391 516.779 122.561 513.418 127.595C510.057 132.626 506.058 136.765 501.911 140.947C497.766 145.126 493.593 149.65 488.536 152.671C483.48 155.692 477.298 157.242 471.574 159.074C465.853 160.909 460.06 162.707 454.203 163.669C448.344 164.63 442.464 165.326 436.434 164.842C430.403 164.359 423.869 162.785 418.02 160.768C412.172 158.748 406.336 155.826 401.34 152.731C396.343 149.634 392.316 146.344 388.033 142.191C383.753 138.038 379.191 132.861 375.653 127.82C372.115 122.778 369.229 117.504 366.806 111.94C364.386 106.376 362.044 100.42 361.127 94.4323C360.212 88.4474 360.911 82.0208 361.309 76.0203C361.708 70.0223 362.117 64.1995 363.516 58.4367C364.917 52.6714 367.025 46.8224 369.703 41.4308C372.384 36.0392 377.823 28.4758 379.597 26.0844C381.371 23.6957 379.256 26.121 380.35 27.0906" stroke="#423324" stroke-width="8" stroke-linecap="round"/>
<path d="M13.3778 276.18C18.8365 270.706 24.7351 262.829 31.6187 255.671M13.2266 276.218C18.4196 269.936 24.1601 263.89 31.0391 256.822M11.4627 283.931C20.4858 274.382 27.8619 266.386 43.0126 249.424M11.7743 283.712C18.5433 276.414 25.5804 269.044 41.9383 249.075M11.3322 289.121C24.9092 274.903 38.1334 259.457 53.0803 242.766M11.2543 289.74C27.1861 271.697 42.9119 253.792 52.6222 243.313M11 295.351C26.0591 278.543 39.7072 262.714 58.0603 243.169M11.6849 294.779C24.8817 280.235 37.9708 264.757 57.8267 242.59M11.2474 301.176C31.1147 276.806 52.3679 253.992 63.2602 242.502M11.1878 300.778C21.4594 288.738 31.6049 277.061 63.3175 242M12.8028 304.427C28.0406 287.33 42.0391 270.875 67.3995 242.246M13.2541 304.343C32.4479 283.104 51.4974 261.324 67.6217 242.863M14.4429 308.274C25.7522 294.32 38.3007 279.926 71.2891 242.984M13.9825 308.58C36.3765 284.235 58.3695 259.049 71.9466 243.383M15.1737 313.365C32.2898 293.509 50.2627 273.285 76.0836 244.246M15.4211 312.885C28.233 298.41 41.3519 283.956 76.1569 244.131M15.9594 317.081C30.0472 300.942 44.1695 285.555 80.8918 243.953M16.0189 317.372C39.1116 291.132 61.5101 265.983 80.6627 244.291M18.4219 320.298C39.2719 295.892 60.3006 271.839 83.8239 245.94M18.06 320.566C38.0991 297.674 58.074 275.108 83.9705 246.041M19.7253 324.157C38.7221 303.348 57.2792 282.332 87.2508 247.735M19.9406 323.853C41.2167 300.194 62.3439 276.443 87.2645 247.766M21.1112 328.09C45.844 300.293 70.6477 272.515 90.6136 249.42M21.6312 327.777C36.1474 312.187 50.4781 295.948 90.838 249.564M24.1349 330.331C42.2979 309.727 59.941 289.085 93.8366 251.084M23.7501 330.432C43.2577 309.035 61.9614 287.688 93.8137 251.319M26.3592 332.971C51.2913 303.99 77.1694 275.671 96.6152 253.384M26.3455 333.189C49.6351 307.785 72.281 282.154 96.8443 253.308M28.9225 335.669C47.7132 313.185 67.0101 292.292 99.868 256.042M28.8973 335.629C57.8244 303.697 86.0115 271.695 99.7168 255.567M31.8294 338.636C56.0605 311.087 80.4749 284.039 102.658 257.79M31.4469 338.156C46.4762 321.057 62.1103 303.204 102.397 257.849M34.8257 340.238C49.3442 324.497 63.6565 308.288 105.073 259.881M34.9494 340.044C54.1065 318.242 73.4218 296.525 105.35 260.387M38.3694 341.949C59.153 317.991 79.6159 295.203 107.693 263.633M38.0945 341.63C57.1142 320.393 75.7835 299.433 107.748 263.075M41.8306 343.202C67.3697 314.464 93.328 286.314 109.803 266.003M41.6428 343.278C58.4016 324.274 74.9634 305.817 109.723 266.467M45.143 344.995C62.7288 325.959 79.3593 307.121 111.995 269.85M45.5187 344.452C59.4164 328.626 73.2821 312.788 111.631 269.623M49.1655 346.094C69.0168 322.992 89.6927 300.352 113.727 273.502M49.335 345.984C65.1707 326.871 81.382 308.188 113.255 273.191M52.8054 347.579C68.6686 328.95 84.0209 312.385 114.886 276.847M52.6428 347.216C76.7616 319.89 100.993 292.554 114.941 276.646M56.4385 349.518C77.8199 324.627 99.6321 299.564 116.725 280.991M56.1476 348.993C71.2823 333.122 86.1031 316.329 116.407 280.94M60.5824 348.856C78.7454 328.833 96.1708 308.362 117.108 285.888M60.745 348.998C79.2104 328.414 97.9621 307.366 116.881 285.731M65.6609 350C79.2814 334.462 93.2983 318.028 117.284 290.281M65.5349 349.588C83.1069 329.502 100.548 310.333 117.44 290.524M70.5859 349.153C85.0655 331.806 101.398 313.619 118.647 294.664M70.1026 349.272C87.9517 330.869 105.029 311.256 119 294.304M75.5499 348.437C91.6352 328.68 108.88 310.506 118.004 300.178M75.9622 348.493C84.6554 337.212 93.6739 327.52 118.107 301.12M82.8847 346.63C95.3782 332.554 107.352 318.647 116.657 307.328M82.3235 346.851C93.4861 333.525 105.803 319.931 116.732 307.418M94.013 338.742C100.464 332.908 104.617 326.698 110.618 319.136M94.1664 339.143C100.821 331.662 107.379 324.132 111.289 320.066" stroke="#243642" stroke-linecap="round"/>
<path d="M440.735 401.702C439.549 392.172 440.242 383.477 439.641 367.783M441.338 400.76C440.965 392.853 440.284 384.713 438.438 367.859M445.546 416.786C444.582 404.264 443.797 389.715 441.343 352.488M445.474 415.872C445.064 402.095 443.899 389.06 441.491 352.255M449.576 421.906C448.259 405.212 447.496 388.812 445.209 345.523M449.202 421.33C448.444 402.837 447.572 385.869 444.685 345.224M453.755 426.871C451.581 394.863 450.539 362.69 447.791 337.717M453.576 426.801C451.561 397.454 449.553 366.844 448.159 338.446M457.667 428.67C455.185 395.428 452.815 361.373 451.787 334.221M456.891 428.584C455.301 396.615 453.639 366.038 451.529 333.381M461.016 431.722C458.502 400.777 456.754 367.329 455.339 329.394M460.931 431.606C459.785 408.686 458.326 385.579 455.209 329.171M465.203 438.464C462.965 406.712 461.24 372.878 458.315 324.831M464.899 438.824C462.45 394.688 460.022 351.616 458.126 325.653M469.028 440.465C466.304 395.373 463.116 349.426 462.178 322.849M468.836 440.535C466.345 402.334 464.033 365.116 461.925 323.134M472.506 443.204C470.156 410.931 468.338 377.891 465.149 320.585M472.705 442.645C471.144 414.153 469.333 385.68 465.5 320.49M476.222 444.393C473.873 405.876 471.269 367.335 469.057 318.229M476.359 444.311C473.565 412.081 471.87 379.854 468.775 318.403M479.75 445.325C477.653 404.077 474.992 364.084 472.916 316.726M479.811 445.15C477.554 402.954 474.756 361.57 472.469 316.785M483.623 445.995C482.287 416.284 480.784 386.819 476.526 315.143M483.605 445.901C482.071 410.859 480.149 376.423 476.131 315.087M487.44 446.88C485.291 409.287 482.951 371.146 480.04 313.525M487.262 447.021C485.114 411.309 483.375 375.925 479.593 313.737M491.538 447.664C489.158 406.229 486.561 363.958 482.732 311.064M491.229 447.931C488.289 398.738 485.236 350.719 483.057 310.873M494.973 448.143C492.048 415.162 490.376 380.926 486.892 311.337M495.084 448.309C492.322 411.519 490.363 375.402 486.564 311.098M498.509 447.662C496.148 405.079 493.513 361.789 490.046 310.667M498.517 447.576C495.202 403.772 492.473 359.117 490.475 310.797M502.237 447.004C499.881 409.268 497.877 371.327 493.75 310.477M501.991 447.475C499.844 404.325 497.404 360.652 493.933 310.595M505.848 446.935C503.375 415.807 501.562 384.314 497.678 310.971M505.754 446.737C503.011 397.681 500.084 347.53 497.479 310.633M509.305 446.178C506.697 410.594 504.976 374.09 501.776 311.068M509.469 446.441C507.874 418.468 506.257 390.611 501.578 311.196M512.725 445.171C509.871 410.607 508.436 376.354 505.121 312.172M512.88 445.007C510.541 411.191 508.581 376.884 504.977 311.648M516.573 443.383C514.282 402.181 511.347 359.811 508.583 312.584M516.494 443.549C513.757 403.295 511.462 364.082 508.659 311.987M519.836 441.214C516.974 390.938 514.163 338.94 512.814 312.609M520.085 441.363C517.164 395.188 514.592 349.066 512.482 312.888M523.45 438.719C521.279 395.006 518.142 351.345 515.981 314.317M523.663 438.78C521.027 395.617 518.415 351.088 516.228 314.681M526.912 436.022C524.828 403.568 523.115 370.03 519.706 316.382M527.067 436.114C525.397 410.418 523.658 384.145 519.959 316.102M530.548 434.385C529.167 401.637 527.881 369.719 523.8 319.961M530.601 434.036C528.925 397.925 526.519 361.476 523.755 319.236M534.425 432.3C532.552 395.853 530.208 359.243 527.515 323.454M534.207 432.489C531.733 390.741 529.428 349.701 527.475 323.01M537.901 428.418C534.992 402.217 533.677 375.705 531.738 326.693M537.324 428.54C534.666 396.613 532.895 364.376 531.884 326.844M540.923 425.254C539.808 404.823 537.664 384.393 535.5 330.241M540.749 424.41C539.249 389.999 537.218 356.547 535.319 329.253M543.649 420.49C544.303 401.387 542.857 381.73 540.037 335.069M544.685 420.561C543.33 397.248 541.863 373.262 539.287 335.499M547.474 414.189C545.731 387.119 545.348 360.355 542.99 341.132M547.495 413.955C546.07 393.707 545.201 373.092 543.148 340.544M550.931 406.702C548.624 382.603 547.867 358.213 547.032 342.101M550.899 405.996C549.928 386.527 548.892 367.567 547.438 341.826M552.888 390.354C552.483 381.062 552.322 373.603 551.935 358.728M553.374 389.495C552.253 382.514 552.443 375.463 551.695 358.203" stroke="#DAFBDD" stroke-linecap="round"/>
<path d="M413.642 208.557C418.893 208.154 423.301 207.61 433.991 206.015M414.639 209.537C418.161 208.695 422.983 208.146 433.886 207.725M410.319 213.589C417.163 212.925 423.616 212.868 442.57 210.274M409.835 214.124C421.457 212.734 432.896 211.691 442.055 210.972M406.517 217.906C416.737 217.012 428.463 216.151 445.206 215.354M406.77 217.991C421.469 217.294 436.287 215.662 446.221 215.099M400.21 223.997C411.183 221.933 420.761 222.717 449.941 219.593M401.026 223.367C418.829 221.464 437.222 220.087 449.052 219.088M400.187 227.87C414.578 225.74 431.87 224.667 451.633 222.977M400.155 227.724C416.272 225.676 432.368 224.745 451.151 222.987M398.822 233.053C413.312 230.702 428.087 228.587 452.927 228.15M398.994 232.506C414.214 230.631 430.722 229.665 452.71 227.559M398.079 236.438C416.141 235.046 434.779 233.359 454.28 230.763M398.364 236.291C414.958 235.618 429.714 234.155 453.784 231.545M398.761 241.945C417.533 239.312 435.547 237.952 455.499 235.924M398.722 240.629C411.025 239.651 422.512 239.126 454.924 235.877M398.621 245.236C418.26 244.052 438.02 241.779 455.294 240.365M399.093 244.964C415.584 244.155 432.834 242.178 454.927 240.562M398.822 250.015C417.56 247.509 437.102 246.268 455.847 245.208M398.642 249.621C417.501 247.892 436.257 246.253 455.318 244.735M401.116 254.149C415.142 252.153 428.247 250.697 453.92 248.495M400.618 253.937C413.254 252.43 425.414 251.701 454.52 249.293M403.041 257.474C412.956 256.545 424.746 255.883 453.083 253.687M403.22 257.797C416.626 256.386 430.328 255.69 452.398 254.043M407.576 261.572C416.756 260.505 429.111 259.51 449.794 258.533M406.675 261.224C418.212 261.597 429.296 259.956 449.219 257.775M410.107 266.31C423.335 264.71 435.34 264.168 445.72 262.286M410.135 265.728C420.271 264.937 430.052 264.551 446.137 262.487M417.529 270.113C422.471 268.522 428.028 267.573 439.95 268.428M417.071 269.099C422.216 269.132 428.19 268.426 440.186 267.341" stroke="#244236" stroke-linecap="round"/>
<path d="M465.252 79.806C465.563 74.7795 464.96 71.754 464.312 63.4445M465.6 78.5813C465.049 73.4575 464.812 67.7175 464.464 61.9489M470.149 84.5827C469.017 76.3952 468.877 69.4954 467.692 55.7511M469.52 86.0325C468.635 75.7676 467.839 65.5276 467.478 54.9899M473.611 88.1995C472.536 79.4913 472.894 70.598 470.974 52.863M473.445 87.2323C473.101 79.5351 472.65 72.3587 471.114 51.1404M477.047 88.6077C477.366 79.5886 475.908 72.2805 474.997 50.3144M476.743 88.995C476.132 75.3918 475.735 62.1874 474.941 49.2404M480.762 88.8538C480.166 80.2696 478.906 72.4408 478.868 48.2084M480.707 88.4685C480.35 79.4035 479.41 69.8788 477.882 48.0672M484.571 88.1194C483.999 80.0788 482.551 69.6633 482.115 45.8659M484.648 88.0316C483.751 74.8291 482.308 61.4167 482.308 46.4839M487.408 86.0515C486.681 78.0072 486.71 70.7353 485.071 47.1287M488.083 86.0687C486.536 76.1835 485.886 65.106 485.386 47.4454M491.458 84.6685C490.667 74.1748 489.87 62.7902 489.651 49.0821M491.645 84.4282C490.591 74.0927 489.389 62.9638 488.891 48.4068M495.334 79.2376C493.687 70.0009 494.559 60.1672 493.528 52.9335M494.767 80.2219C494.64 70.1669 494.137 60.0375 493.37 52.4185" stroke="#FCEECA" stroke-linecap="round"/>
<path d="M387.28 -4.29409C391.641 -4.96063 394.751 -3.39795 403.26 -2.28765M386.902 -4.86966C392.721 -3.38284 398.037 -2.86243 403.752 -1.0261M379.197 -2.84709C389.618 0.881663 399.563 0.763146 410.914 3.79168M378.746 -1.92503C385.972 -0.408072 392.827 1.07548 410.644 4.33949M375.969 1.16729C385.976 3.55612 395.48 5.77063 413.393 8.87933M375.653 1.80324C385.983 3.68377 396.966 5.42843 413.049 8.82146M372.352 4.27352C383.914 6.3008 394.954 10.1221 414.382 12.5591M372.076 5.86204C384.943 8.03768 398.647 10.2279 415.339 12.1785M369.608 9.30127C387.317 12.2953 403.017 13.8935 416.631 16.9309M370.273 9.289C381.069 10.0792 392.555 12.4663 415.584 16.9925M368.147 14.0185C381.819 14.1368 393.742 17.0199 417.046 20.3296M368.527 12.9841C383.51 15.7087 399.198 18.2813 417.179 20.8077M367.674 17.1708C382.298 18.9009 398.99 21.2995 415.882 25.5516M367.538 17.0605C380.906 19.1449 394.339 21.7143 416.468 24.8694M366.374 20.2147C381.503 23.0025 397.5 26.3978 415.657 28.7338M366.291 20.9081C377.582 22.1038 388.979 24.098 414.893 29.0023M365.94 24.9765C382.226 27.9659 400.479 31.2424 414.725 32.1378M365.674 24.7218C378.287 26.3017 391.382 29.0516 414.281 33.5316M365.575 29.402C376.079 30.1069 385.338 31.8207 412.54 37.874M366.099 28.6913C378.644 29.9464 390.526 32.6768 412.407 36.8686M366.664 32.9091C377.827 35.0124 389.235 37.2835 411.184 40.3503M367.046 33.3189C380.366 35.7653 394.778 37.6969 410.647 40.4156M366.711 37.2247C380.386 39.1892 391.508 41.1878 408.191 43.9561M366.951 37.0803C382.182 39.8237 398.835 42.9878 407.233 44.6675M370.995 42.4029C381.961 43.7731 394.113 46.6259 402.475 47.6821M371.314 42.0694C382.534 44.5056 394.078 45.7933 403.47 47.3908M377.031 47.8803C382.363 48.268 389.843 49.62 394.761 50.3983M377.184 47.1418C381.792 47.8727 386.658 49.0101 395.32 50.0667" stroke="#FCEECA" stroke-linecap="round"/>
<path d="M91.6715 60.8309C90.8483 54.2358 91.2097 49.9776 89.5428 37.3954M91.5019 60.0435C90.6437 52.1011 90.2158 43.7143 89.8621 35.9263M96.2397 70.1815C94.4514 59.6963 93.4387 49.2699 92.2901 28.463M95.1266 69.5188C94.1323 53.5843 93.5033 38.3888 92.6607 28.8866M98.2911 73.9266C97.4901 55.7643 96.064 36.4989 96.4989 25.9311M99.4951 73.9057C99.3048 59.7895 98.2322 47.2898 96.8855 25.3857M104.299 77.8955C101.402 61.9958 101.569 45.5157 99.1745 21.4748M103.387 78.0166C101.429 56.4934 100.776 35.9587 99.5325 21.9477M107.224 79.8777C105.615 64.3279 104.468 49.2496 103.004 16.4084M107.415 79.3732C106.169 61.1879 104.933 43.3161 103.201 17.175M110.512 81.816C108.761 55.0915 107.676 31.3893 106.701 14.425M110.501 80.7766C109.071 54.8269 107.529 29.1446 106.281 15.2344M114.314 80.8915C114.48 68.2609 112.692 53.1776 110.212 11.2115M114.408 82.1459C112.976 58.8316 111.054 36.5523 110.345 12.4053M118.26 81.3869C117.676 67.6033 117.077 53.6999 114.385 11.8619M118.02 82.1439C116.909 67.9075 116.013 52.9862 114.017 11.7443M121.474 83.8284C120.337 64.2699 119.289 43.5964 117.028 12.4159M121.629 83.5118C119.893 57.6158 118.249 32.8659 117.414 12.0358M125.304 81.2149C124.251 59.4394 123.049 38.3948 120.658 11.9846M125.563 81.9381C124.128 57.136 122.223 32.8599 120.579 11.5814M128.846 80.158C128.449 59.2901 126.686 40.2739 125.228 12.711M128.713 80.1859C127.427 58.5727 126.582 37.9896 124.905 12.5973M132.548 79.0734C131.295 63.0142 130.883 47.9394 128.968 13.6748M132.755 79.1257C130.689 55.6316 129.955 32.2389 128.381 13.4193M135.023 76.5447C134.805 58.1457 133.136 37.1388 131.57 12.9992M135.818 76.5542C134.494 57.2589 133.005 38.4378 131.892 13.2249M138.762 72.8934C138.233 53.4403 136.964 35.1371 135.582 15.8738M139.722 73.2C138.248 53.5677 136.959 34.5025 135.808 17.1745M142.258 66.5048C140.913 49.3945 140.985 31.1488 139.388 20.1554M142.557 67.4182C142.405 54.6645 141.089 42.331 139.312 20.6262M146.074 62.0615C144.652 49.9403 143.62 37.5757 143.42 28.9468M145.996 63.1651C146.008 56.3212 145.648 48.4458 144.276 29.2035" stroke="#422424" stroke-linecap="round"/>
<path d="M9.79487 105.338C16.0326 105.338 24.1639 103.743 32.4528 103.527M9.66678 105.252C16.3239 104.42 23.1395 104.185 31.2709 103.999M4.01235 110.024C15.1339 109.589 23.8693 109.144 42.9254 107.741M4.4138 110.104C12.6536 109.625 21.188 109.404 42.3877 106.468M1.31778 114.009C15.9787 113.872 31.3857 112.158 48.2039 110.8M0.778261 114.509C18.9031 113.014 36.5709 111.428 47.4331 110.891M-2.63939 118.795C15.3123 117.516 31.3586 115.827 52.0401 115.092M-1.66962 118.888C13.4601 117.963 29.1298 116.066 52.3143 114.344M-6.90571 123.83C17.9471 120.25 42.6644 119.237 55.1219 118.743M-6.63808 123.4C5.90518 122.114 18.0484 120.915 55.564 118.326M-8.25652 127.67C10.8583 126.157 28.593 124.131 60.1258 121.547M-7.84761 128C15.6905 126.345 39.5967 124.135 59.8176 122.317M-9.04267 132.062C5.40872 130.004 21.1691 128.503 61.3233 125.266M-9.64637 131.925C17.3401 130.443 44.7092 127.865 61.5199 126.253M-11.5388 136.801C9.5304 134.582 31.6169 132.82 62.802 130.34M-10.9471 136.568C4.57691 135.216 20.2348 134.246 62.9565 130.296M-11.5316 140.122C5.3223 138.613 21.5932 137.801 64.8012 133.998M-11.7327 140.481C15.7907 138.071 41.9469 136.045 64.3161 134.116M-11.4979 144.749C13.2012 141.983 37.682 139.665 64.8402 137.954M-12.0491 144.66C11.5836 142.539 34.9753 140.597 64.8785 138.211M-13.1023 148.875C8.89872 147.608 30.732 145.744 65.7453 142.195M-12.6404 148.777C11.9587 147.093 36.4901 145.176 65.7314 142.244M-12.7283 152.992C15.4095 150.779 43.3927 148.708 66.4127 146.275M-11.9594 153.21C3.90521 152.452 20.1937 151.053 66.4849 146.679M-11.3228 157.196C9.01383 155.504 28.9852 153.105 67.0541 150.175M-11.778 156.884C9.91249 155.663 30.9737 153.691 66.8099 150.413M-11.1137 160.968C16.7254 157.922 44.7218 156.58 66.4088 154.316M-11.341 161.201C14.0207 159.801 39.0373 157.674 66.7005 154.485M-9.24938 165.06C11.5519 162.124 31.3901 161.486 65.8535 159.424M-9.23385 164.983C21.353 163.065 51.4774 160.399 66.1833 158.683M-7.63917 169.93C17.5213 167.531 42.4939 166.077 65.8745 162.915M-7.53149 168.883C7.60786 167.61 23.8718 166.047 65.5489 162.672M-6.1788 173.386C8.03927 172.89 22.2241 171.673 63.9696 166.429M-5.84202 173.294C13.2236 171.544 32.5407 170.069 63.7184 167.413M-3.04816 177.549C16.6681 175.408 35.0273 174.297 60.4298 172.327M-2.99483 176.778C14.5506 175.582 31.7702 174.326 61.1069 171.668M0.0430368 181.039C21.5398 179.022 42.7274 178.758 57.6616 175.8M-0.256418 180.897C14.0041 179.657 27.9415 178.828 57.0449 176.319M0.676424 185.193C15.134 184.541 28.1234 183.414 54.0373 181.298M1.72222 184.952C12.6898 184.086 23.707 182.963 53.8868 180.505M6.02507 189.086C20.8285 187.119 36.0162 186.782 53.5338 185.637M6.34159 189.16C18.3404 187.19 30.3618 185.744 53.3558 184.584M10.8131 193.003C20.6029 191.544 27.7822 192.054 43.5529 189.541M11.0703 192.224C23.8555 191.371 36.2656 190.429 43.8744 189.325" stroke="#FF9494" stroke-linecap="round"/>
</g>
<defs>
<clipPath id="clip0_17628_43774">
<rect width="480" height="360" fill="white"/>
</clipPath>
</defs>
</svg>
