<svg width="480" height="360" viewBox="0 0 480 360" fill="none" xmlns="http://www.w3.org/2000/svg">
<g clip-path="url(#clip0_17344_59895)">
<rect width="480" height="360" fill="#FFF4EB"/>
<path fill-rule="evenodd" clip-rule="evenodd" d="M286.171 -83.5032L287.709 -55.0585L287.628 -37.5732L286.112 -25.3464L282.114 -16.4294L279.346 -10.275L275.984 -4.67907L268.539 4.85112L258.773 13.2621L249.638 19.6809L245.095 22.4116L234.088 25.8992L229.041 27.5426L223.348 29.0493L215.832 29.7582L205.117 29.8425L190.791 32.8331L177.291 32.8331L128.791 32.8331L104.304 37.9141L87.791 44.4141L67.6522 60.9141L64.218 63.5139L61.291 67.4141L57.8458 71.4736L51.3793 84.4141L47.8048 89.743L45.9784 93.8892L43.0108 104.049L38.7564 116.082L35.7322 122.19L33.0507 126.934L28.4968 131.923L14.0071 146.357L2.81679 154.66L-3.30171 158.549L-6.76027 159.618L-10.1028 160.206L-13.8851 160.32L-16.8418 159.165L-18.9946 157.079L-21.5143 153.828L-24.1204 145.691L-26.6833 129.156L-29.5645 99.6994L-32.0006 58.3396L-31.434 29.9793L-30.6409 2.08618L-29.783 -10.8266L-27.8999 -27.6874L-26.4944 -37.7806L-22.526 -49.5309L-16.1674 -64.0234L-13.2943 -69.7219L-9.67923 -75.6643L-6.32861 -80.7793L-1.21362 -85.598L3.30243 -89.3977L8.1611 -93.7377L13.419 -96.881L24.3072 -102.933L30.2234 -106.27L44.1709 -110.788L51.3793 -112.436L59.772 -113.409L69.341 -114.177L79.7544 -115L89.809 -114.654L112.47 -113.069L137.379 -110.386L233.781 -96.1972L255.794 -91.7979L285.848 -83.3482" fill="#FFF0F0"/>
<path fill-rule="evenodd" clip-rule="evenodd" d="M379.716 6.48256L380.076 12.4716L381.375 16.1433L383.655 20.6917L386.663 25.3076L401.657 41.7316L416.266 59.669L421.454 66.64L430.984 82.5973L435 92.0476L435.935 96.6365L437.239 100.788L437.747 105.987L437.672 111.563L436.081 123.498L430.544 156.155L424.941 179.887L422.676 198.234L421.146 212.743L420.889 226.688L421.661 239.003L423.464 249.702L426.115 258.821L433.523 275.954L437.845 283.279L440.724 289.729L453.154 306.685L460.047 320.3L463.019 325.043L466.871 329.133L471.544 331.666L478.45 334.784L492.277 339.071L509.489 341.739L522.375 344.127L535.848 345.19L548.601 343.903L554.836 343.841L560.062 342.087L565.749 339.902L570.395 338.203L575.421 335.3L585.184 327.144L589.583 323.675L598.436 313.445L606.729 301.316L614.638 289.176L618.121 283.055L623.53 270.316L627.628 257.021L628.365 250.849L629.491 244.245L629.265 237.49L628.226 230.1L627.362 222.609L623.466 207.712L618.189 191.76L603.154 147.365L599.457 134.416L597.54 121.879L595.559 111.113L592.01 82.1009L590.905 72.8746L588.965 61.7004L585.785 49.2637L579.255 28.8821L570.778 3.57706L543.033 -70.8624L542.132 -73.3201L542.076 -77.9764L543.306 -79.1122L544.717 -80.2614L544.97 -79.8999L544.437 -79.1176L543.901 -78.3865L540.694 -79.7677L514.59 -86.9249L481.361 -95.4822L461.54 -98.5711L445.846 -101.536L430.328 -102L416.84 -100.147L405.541 -97.5082L393.046 -92.4391L387.473 -88.7971L386.185 -86.4501L384.197 -83.9816L382.583 -76.3496L380.418 -67.3607L379.713 -59.0057L379 -42.3767L379.723 6.02663" fill="#FFF0C9"/>
<path d="M379.27 6.46662C379.951 8.85144 379.833 14.6247 383.525 20.4923C387.218 26.3599 395.136 33.8651 401.428 41.6671C407.717 49.469 415.337 57.3708 421.268 67.3039C427.201 77.2371 435.106 88.2359 437.021 101.269C438.935 114.302 434.935 131.416 432.756 145.501C430.579 159.584 425.874 170.175 423.955 185.774C422.036 201.369 419.61 224.074 421.245 239.084C422.877 254.097 428.945 265.29 433.752 275.839C438.561 286.387 442.585 292.597 450.093 302.376C457.599 312.156 458.661 328.583 478.795 334.515C498.931 340.445 545.931 351.91 570.899 337.957C595.868 324.004 623.825 284.787 628.611 250.798C633.398 216.809 606.788 167.569 599.622 134.022C592.455 100.478 594.865 83.0319 585.613 49.523C576.363 16.0167 552.08 -45.3413 544.109 -67.0178C536.14 -88.6917 554.1 -74.8521 537.793 -80.5282C521.484 -86.2043 469.78 -98.8326 446.261 -101.072C422.745 -103.311 407.548 -99.0241 396.689 -93.9658C385.832 -88.9075 383.963 -87.386 381.116 -70.7219C378.269 -54.0605 379.903 -6.7902 379.605 6.008M379.73 6.32363C380.368 8.60864 379.611 14.166 383.318 19.9716C387.026 25.7772 395.645 33.3687 401.975 41.1572C408.305 48.9456 415.384 56.6667 421.293 66.705C427.201 76.7434 435.582 88.155 437.422 101.388C439.261 114.62 434.554 131.937 432.334 146.095C430.116 160.253 426.004 170.868 424.105 186.337C422.209 201.806 419.282 224.047 420.948 238.912C422.612 253.774 429.227 264.958 434.101 275.515C438.974 286.071 442.844 292.403 450.186 302.252C457.528 312.102 458.064 328.682 478.152 334.612C498.241 340.539 545.623 351.8 570.717 337.82C595.808 323.84 623.907 284.698 628.714 250.733C633.524 216.766 606.754 167.432 599.567 134.017C592.383 100.6 594.821 83.8385 585.599 50.2379C576.377 16.6399 552.131 -45.7999 544.237 -67.5763C536.346 -89.3499 554.601 -74.8548 538.242 -80.4176C521.885 -85.9804 469.605 -98.5682 446.086 -100.953C422.567 -103.338 407.947 -99.6959 397.129 -94.7212C386.311 -89.7465 384.118 -87.9903 381.18 -71.1076C378.239 -54.225 379.792 -6.38014 379.491 6.57183" stroke="#FFF0C9" stroke-width="4" stroke-linecap="round"/>
<path d="M38.2158 274.741C44.7076 275.062 50.5771 277.838 56.3576 279.869C62.1382 281.901 67.9917 284.191 72.897 286.929C77.8046 289.665 82.0442 292.951 85.7961 296.288C89.5503 299.625 92.9102 303.289 95.4152 306.949C97.9203 310.61 99.7188 314.328 100.827 318.25C101.934 322.173 102.342 326.473 102.067 330.485C101.791 334.496 100.904 338.473 99.174 342.317C97.4439 346.162 94.8158 349.998 91.6816 353.548C88.5497 357.098 84.6815 360.597 80.3803 363.616C76.0768 366.638 71.1829 369.316 65.8627 371.669C60.5449 374.024 54.5227 376.061 48.4663 377.742C42.41 379.422 36.0253 380.868 29.529 381.759C23.0304 382.649 16.2173 383.01 9.48166 383.083C2.7483 383.156 -4.29051 383.032 -10.878 382.201C-17.4655 381.37 -23.98 379.781 -30.0455 378.1C-36.1087 376.42 -41.9075 374.431 -47.2619 372.114C-52.6162 369.794 -57.7927 367.204 -62.1714 364.193C-66.5502 361.185 -70.3727 357.616 -73.5366 354.055C-76.7027 350.497 -79.3171 346.682 -81.1612 342.838C-83.0029 338.996 -84.1745 334.99 -84.594 330.995C-85.0111 327.002 -84.6737 322.823 -83.6685 318.876C-82.6633 314.927 -81.0176 310.934 -78.5627 307.303C-76.1077 303.672 -72.7319 300.399 -68.9413 297.086C-65.1529 293.774 -60.6853 290.229 -55.8301 287.431C-50.9773 284.636 -45.5318 282.365 -39.8196 280.312C-34.1074 278.259 -27.8983 276.419 -21.557 275.11C-15.2157 273.802 -8.40484 272.866 -1.7672 272.459C4.8727 272.051 10.8698 272.04 18.2802 272.666C25.6905 273.292 37.9765 275.299 42.6903 276.219C47.4041 277.139 47.1078 277.331 46.5607 278.189M52.3641 278.755C58.7305 279.753 64.3424 283.063 69.4232 285.553C74.5063 288.046 78.7687 290.547 82.8534 293.698C86.9359 296.849 90.9841 300.817 93.9199 304.459C96.8535 308.104 99.0372 311.711 100.464 315.561C101.891 319.408 102.532 323.527 102.477 327.547C102.422 331.569 101.565 335.829 100.143 339.684C98.7181 343.542 96.735 347.122 93.9313 350.683C91.1299 354.244 87.3803 357.867 83.323 361.05C79.2657 364.234 74.6202 367.174 69.5941 369.783C64.5681 372.395 59.0428 374.874 53.1619 376.708C47.2833 378.545 40.8531 379.697 34.3181 380.793C27.783 381.888 20.7396 382.954 13.9561 383.283C7.1749 383.612 0.252342 383.461 -6.3716 382.767C-12.9978 382.074 -19.6264 380.682 -25.7967 379.12C-31.967 377.561 -37.8867 375.567 -43.3937 373.404C-48.8985 371.24 -54.2346 368.974 -58.8276 366.136C-63.4206 363.298 -67.4551 359.788 -70.9449 356.37C-74.4346 352.952 -77.5278 349.402 -79.7662 345.627C-82.0046 341.853 -83.632 337.68 -84.3751 333.722C-85.1205 329.762 -84.9997 325.801 -84.2293 321.874C-83.4611 317.948 -81.8632 313.974 -79.7571 310.165C-77.6509 306.353 -75.0319 302.393 -71.5922 299.01C-68.1526 295.624 -63.7534 292.724 -59.117 289.859C-54.4785 286.997 -49.2541 284.067 -43.7675 281.825C-38.2787 279.586 -32.35 277.962 -26.1933 276.419C-20.0344 274.878 -13.4514 273.279 -6.82065 272.575C-0.189865 271.873 6.8877 271.897 13.5891 272.205C20.2906 272.515 26.9487 273.343 33.3835 274.423C39.8183 275.502 49.198 277.792 52.1977 278.68C55.1974 279.57 52.0815 278.974 51.3771 279.753" fill="#D1ECFF"/>
<path d="M-14.7304 273.996C-8.93156 272.188 -1.20894 272.509 5.47883 272.345C12.1666 272.18 18.8156 272.291 25.394 273.017C31.9746 273.74 38.7695 275.129 44.9559 276.688C51.1422 278.245 57.0025 280.12 62.5118 282.367C68.0189 284.612 73.4621 287.264 78.0049 290.156C82.5455 293.05 86.4091 296.263 89.7598 299.725C93.1083 303.188 96.0373 307.079 98.1025 310.926C100.168 314.773 101.569 318.833 102.146 322.807C102.725 326.783 102.422 330.886 101.569 334.782C100.715 338.678 99.2422 342.409 97.0243 346.183C94.8064 349.96 91.8592 354.071 88.2577 357.438C84.6563 360.805 80.1453 363.573 75.411 366.378C70.6767 369.184 65.4523 372.097 59.8563 374.275C54.2581 376.452 48.1083 378.033 41.8262 379.441C35.5419 380.849 28.763 382.087 22.155 382.721C15.547 383.358 8.82729 383.501 2.18054 383.253C-4.4662 383.005 -11.2907 382.379 -17.7278 381.229C-24.1671 380.08 -30.5517 378.308 -36.4463 376.363C-42.3431 374.415 -48.0576 372.146 -53.1042 369.551C-58.1508 366.956 -62.778 363.999 -66.7259 360.791C-70.6738 357.584 -74.1043 354.004 -76.7895 350.302C-79.4769 346.598 -81.5443 342.463 -82.8481 338.572C-84.1497 334.679 -84.6716 330.881 -84.6078 326.948C-84.544 323.017 -84.0174 318.857 -82.4629 314.98C-80.9061 311.106 -78.262 307.278 -75.2691 303.696C-72.2762 300.11 -68.6064 296.649 -64.5057 293.479C-60.4028 290.309 -55.7893 287.228 -50.6606 284.671C-45.532 282.114 -41.037 280.036 -33.7292 278.132C-26.4214 276.227 -12.6356 273.999 -6.81855 273.241C-0.999231 272.485 0.89951 272.736 1.1776 273.599M23.3471 272.968C29.8685 272.604 36.946 274.449 43.2417 275.855C49.5352 277.26 55.5961 279.178 61.1146 281.407C66.6353 283.632 71.7708 286.292 76.3569 289.211C80.9431 292.13 85.1372 295.43 88.6338 298.915C92.1304 302.403 95.162 306.358 97.3366 310.13C99.5111 313.901 100.872 317.686 101.679 321.547C102.486 325.407 102.905 329.346 102.183 333.29C101.46 337.237 99.5089 341.429 97.3434 345.222C95.1803 349.018 92.5498 352.641 89.1968 356.054C85.8438 359.469 81.7842 362.782 77.23 365.706C72.6757 368.628 67.4331 371.318 61.8736 373.6C56.3141 375.882 50.1278 377.984 43.8754 379.406C37.623 380.825 30.974 381.483 24.3546 382.128C17.7375 382.773 10.9015 383.45 4.16134 383.274C-2.57658 383.099 -9.62678 382.141 -16.0821 381.078C-22.5351 380.013 -28.6325 378.699 -34.5658 376.886C-40.4968 375.07 -46.462 372.71 -51.6773 370.187C-56.8903 367.668 -61.7522 364.94 -65.846 361.757C-69.9398 358.571 -73.4296 354.789 -76.2401 351.085C-79.0483 347.378 -81.2389 343.415 -82.6977 339.517C-84.1588 335.618 -84.9862 331.574 -84.9999 327.695C-85.0113 323.813 -84.2545 320.052 -82.7752 316.238C-81.2958 312.423 -78.8865 308.444 -76.1261 304.807C-73.3635 301.168 -70.1609 297.601 -66.2062 294.407C-62.2514 291.216 -57.4966 288.281 -52.3975 285.648C-47.2985 283.012 -41.5407 280.487 -35.6097 278.598C-29.6787 276.713 -23.2622 275.372 -16.8069 274.32C-10.3516 273.268 -3.59319 272.55 3.11965 272.286C9.83478 272.021 20.0989 272.504 23.477 272.728C26.8574 272.952 23.6229 272.661 23.3995 273.632" stroke="#D1ECFF" stroke-width="4" stroke-linecap="round"/>
<path d="M-5 268C6.11438 271.353 37.5 274.187 61.627 287.866C79.5 298 107.5 301 89 352C74.3613 381.076 54.2486 425.455 63.0722 439.934C71.8957 454.41 99.2577 455.311 111.211 464.637C123.164 473.964 130.802 490.722 134.794 495.894M-3.93096 269.424C7.10592 272.969 27.8613 275.129 61.0047 288.835C82.3613 298.703 93.5208 310.054 93.8718 335C94.2228 359.946 54.2805 424.106 63.1132 438.504C71.9436 452.902 98.5853 455.187 110.643 464.985C122.704 474.786 131.304 492.004 135.464 497.297" stroke="#46464F" stroke-width="2" stroke-linecap="round"/>
<path d="M483.795 315.292C440.795 275.792 421.795 221.292 436.295 170.792C460.795 98.7925 448.614 79.3936 434.295 57.7926C419.973 36.1943 395.839 22.5104 393.295 -3.20743C390.751 -28.9252 392.616 -68.5182 393.295 -84.7075M489.795 311.292C476.757 290.878 414.295 264.292 438.295 168.792C464.295 101.792 448.815 74.4771 434.295 52.7925C419.775 31.1051 394.321 22.5724 391.795 -3.20743C389.269 -28.9873 393.497 -69.3752 394.295 -85.7075" stroke="#46464F" stroke-width="2" stroke-linecap="round"/>
<path d="M303.889 -53.2046C276.865 -1.44642 229.139 31.0117 176.607 30.0761C100.719 25.0459 85.1341 41.8326 67.9752 61.2546C50.8195 80.6782 43.8484 107.532 19.6653 116.646C-4.51778 125.759 -43.2443 134.205 -59.0577 137.739M298.473 -57.9649C282.129 -40.0874 272.615 27.1269 174.158 28.6619C102.711 20.8887 80.3333 42.9113 63.1455 62.5488C45.9551 82.1869 44.3013 108.982 20.0535 118.094C-4.19425 127.206 -44.3003 133.575 -60.2826 137.032" stroke="#46464F" stroke-width="2" stroke-linecap="round"/>
</g>
<defs>
<clipPath id="clip0_17344_59895">
<rect width="480" height="360" fill="white"/>
</clipPath>
</defs>
</svg>
