<svg width="480" height="360" viewBox="0 0 480 360" fill="none" xmlns="http://www.w3.org/2000/svg">
<g clip-path="url(#clip0_17344_16823)">
<rect width="480" height="360" fill="white"/>
<path fill-rule="evenodd" clip-rule="evenodd" d="M-67.4172 94.5377L-38.9725 93L-21.4872 93.0809L-9.2605 94.5971L-0.343468 98.5952L5.81093 101.363L11.4069 104.724L20.9371 112.17L29.3481 121.936L35.7669 131.071L38.4976 135.614L41.9851 146.621L43.6285 151.668L45.1352 157.361L45.8441 164.877L45.9285 175.592L44.6611 190.508L43.0131 199.964L34.3947 245.578L31.069 269.911L30.0775 276.405L28.8808 301.559L29.2295 305.382L30.0205 310.038L31.3266 313.057L34.3468 316.491L37.9916 320.451L43.086 322.863L48.919 325.647L55.4678 328.229L68.1982 332.551L79.5998 335.178L84.0629 336.039L87.5595 335.562L101.215 333.268L105.829 332.904L109.975 334.731L120.134 337.698L132.167 341.953L138.276 344.977L143.02 347.658L148.009 352.212L162.443 366.702L170.746 377.892L174.635 384.011L175.704 387.469L176.292 390.812L176.406 394.594L175.251 397.551L173.165 399.704L169.914 402.223L161.777 404.829L145.242 407.392L115.785 410.273L74.4256 412.71L46.0652 412.143L18.1721 411.35L5.25931 410.492L-11.6014 408.609L-21.6947 407.203L-33.445 403.235L-47.9375 396.876L-53.636 394.003L-59.5784 390.388L-64.6934 387.038L-69.512 381.923L-73.3118 377.407L-77.6518 372.548L-80.7951 367.29L-86.8469 356.402L-90.1839 350.486L-94.7017 336.538L-96.3497 329.33L-97.323 320.937L-98.0912 311.368L-98.9141 300.955L-98.5676 290.9L-96.9834 268.239L-94.3005 243.33L-80.1113 146.928L-75.712 124.915L-67.2622 94.8615" fill="#FFDAD6"/>
<path d="M-67.4011 95.0098C-57.219 95.2176 -23.0826 90.8849 -6.43609 96.0889C10.2104 101.296 23.7979 113.659 32.4756 126.236C41.1556 138.813 45.4249 151.021 45.6392 171.548C45.8557 192.075 36.4008 230.68 33.7749 249.4C31.149 268.123 29.8224 272.633 29.8885 283.87C29.9569 295.109 25.879 308.338 34.1761 316.823C42.4731 325.31 67.1158 331.906 79.6684 334.787C92.2211 337.671 97.3999 330.641 109.494 334.124C121.591 337.606 143.1 344.119 152.242 355.687C161.387 367.252 194.024 395.174 164.36 403.526C134.696 411.876 17.7097 418.262 -25.7381 405.787C-69.1858 393.313 -86.8512 369.599 -96.3267 328.685C-105.8 287.771 -87.4256 199.214 -82.5865 160.298C-77.7473 121.383 -69.8081 106.098 -67.2916 95.1906M-67.7521 94.7373C-57.4628 94.8695 -22.5811 90.3481 -5.89815 95.633C10.7871 100.918 23.7592 113.77 32.3548 126.447C40.9527 139.126 45.4888 151.191 45.6825 171.697C45.874 192.205 36.2253 230.837 33.515 249.489C30.8026 268.142 29.3984 272.296 29.4121 283.611C29.4281 294.925 25.2704 308.73 33.6062 317.381C41.9397 326.033 66.71 332.634 79.4245 335.518C92.1391 338.402 97.7168 331.364 109.887 334.687C122.059 338.008 143.38 343.941 152.448 355.452C161.515 366.963 194.04 395.36 164.294 403.75C134.547 412.14 17.4179 418.353 -26.0276 405.79C-69.473 393.226 -87.0427 369.273 -96.3791 328.372C-105.716 287.471 -86.915 199.257 -82.0462 160.387C-77.1797 121.515 -69.6326 106.022 -67.1754 95.1474" stroke="#FFDAD6" stroke-width="4" stroke-linecap="round"/>
<path fill-rule="evenodd" clip-rule="evenodd" d="M256.257 14.4479L265.664 27.8666L272.049 35.9572L278.8 42.3698L281.458 45.4128L285.88 47.6763L293.742 51.24L301.537 54.4396L316.215 59.5222L322.405 61.0869L329.114 61.4807L335.494 60.5203L339.348 60.2074L342.277 57.8873L364.315 45.545L381.46 38.7925L393.635 34.3412L404.71 31.7109L410.951 30.7316L417.069 30.9555L422.727 32.736L426.435 36.057L429.729 40.9696L435.113 51.5691L437.315 58.1382L443.747 80.6457L450.838 103.935L452.929 111.244L458.639 122.259L467.854 134.668L470.795 138.68L474.253 141.82L495.399 154.532L500.917 156.577L505.314 156.679L509.499 155.8L513.116 153.609L516.932 148.675L519.79 142.773L523.768 134.86L527.397 126.394L529.441 116.882L532.644 106.973L533.822 97.2612L534.919 87.0609L535.117 76.4318L535.4 64.0868L533.845 50.3956L532.288 37.1496L530.966 24.1841L527.167 5.79885L523.659 -3.82678L521.965 -7.895L517.26 -14.8849L513.588 -20.2184L509.187 -23.2939L504.218 -26.4125L498.163 -28.425L491.752 -30.273L466.124 -34.816L451.965 -36.2081L426.608 -38.8087L390.17 -40.5838L300.808 -44.0127L278.128 -43.5811L264.682 -42.8823L256.923 -41.1558L252.029 -38.6253L249.692 -36.7719L248.11 -34.6245L246.843 -30.4106L245.959 -27.8315L245.838 -21.7669L249.606 -6.63515L250.239 0.621838L251.167 3.55431L253.139 7.44988L256.337 13.9083" fill="#D3FFD2"/>
<path d="M256.65 13.6655C260.272 18.4864 269.679 35.4932 278.391 42.7043C287.105 49.9127 299.347 53.9621 308.932 56.9269C318.517 59.8918 326.668 62.3278 335.905 60.4961C345.143 58.6643 354.149 50.5305 364.356 45.9335C374.561 41.3365 387.412 35.102 397.138 32.9114C406.867 30.7208 416.363 29.5851 422.716 32.7927C429.068 36.003 431.79 44.1827 435.252 52.1627C438.713 60.1399 440.513 70.7988 443.479 80.6645C446.447 90.533 449.521 102.908 453.05 111.362C456.579 119.815 460.287 125.752 464.65 131.388C469.013 137.024 471.153 141.513 479.229 145.176C487.305 148.842 503.833 163.07 513.103 153.375C522.374 143.679 533.49 113.869 534.856 87.0016C536.221 60.1319 531.715 12.2843 521.295 -7.83566C510.876 -27.9556 502.488 -27.9961 472.345 -33.7153C442.2 -39.4373 376.751 -41.1234 340.429 -42.1647C304.107 -43.2061 269.478 -46.5297 254.409 -39.9634C239.34 -33.3997 249.659 -11.7987 250.021 -2.76925C250.381 6.26017 255.476 11.4102 256.579 14.2159M256.344 14.2348C259.923 19.1096 269.428 35.8681 278.163 43.0253C286.897 50.1825 299.106 54.2399 308.755 57.1805C318.403 60.1211 326.839 62.5221 336.055 60.6687C345.273 58.818 353.839 50.7463 364.057 46.0711C374.274 41.3959 387.679 34.8754 397.362 32.6173C407.042 30.362 415.857 29.2775 422.146 32.531C428.435 35.7872 431.485 44.0343 435.1 52.1519C438.715 60.2694 440.837 71.3815 443.834 81.2338C446.834 91.086 449.624 102.999 453.089 111.26C456.553 119.523 460.198 125.172 464.623 130.811C469.045 136.449 471.541 141.224 479.632 145.093C487.724 148.961 504.013 163.71 513.176 154.022C522.339 144.332 533.271 113.941 534.616 86.9584C535.963 59.9727 531.591 12.1926 521.25 -7.88152C510.908 -27.9583 502.629 -27.8261 472.571 -33.4941C442.515 -39.1621 377.296 -40.8239 340.906 -41.8949C304.515 -42.966 269.421 -46.465 254.227 -39.9202C239.03 -33.3781 249.324 -11.6017 249.732 -2.63437C250.14 6.33571 255.565 11.1458 256.679 13.8922" stroke="#D3FFD2" stroke-width="4" stroke-linecap="round"/>
<path fill-rule="evenodd" clip-rule="evenodd" d="M336.97 62.1901L337.33 68.1791L338.629 71.8508L340.908 76.3992L343.917 81.0151L358.911 97.4391L373.52 115.377L378.708 122.348L388.238 138.305L392.254 147.755L393.189 152.344L394.493 156.496L395.001 161.694L394.926 167.271L393.335 179.206L387.798 211.862L382.195 235.594L379.93 253.942L378.4 268.45L378.143 282.395L378.915 294.711L380.718 305.41L383.369 314.528L390.777 331.662L395.099 338.986L397.978 345.437L410.408 362.392L417.3 376.008L420.273 380.75L424.125 384.84L428.798 387.373L435.704 390.492L449.531 394.779L466.743 397.447L479.628 399.834L493.102 400.897L505.855 399.61L512.09 399.548L517.316 397.795L523.003 395.61L527.649 393.91L532.675 391.007L542.438 382.852L546.837 379.383L555.69 369.153L563.982 357.023L571.892 344.884L575.375 338.762L580.784 326.023L584.882 312.729L585.619 306.556L586.745 299.952L586.519 293.197L585.48 285.808L584.616 278.316L580.72 263.419L575.443 247.467L560.408 203.073L556.711 190.124L554.794 177.587L552.813 166.82L549.264 137.808L548.159 128.582L546.219 117.408L543.039 104.971L536.509 84.5896L528.032 59.2846L500.287 -15.1549L499.386 -17.6125L499.329 -22.2689L500.56 -23.4046L501.971 -24.5539L502.224 -24.1924L501.691 -23.41L501.155 -22.6789L497.948 -24.0602L471.844 -31.2174L438.615 -39.7747L418.793 -42.8636L403.1 -45.8285L387.582 -46.2925L374.094 -44.4391L362.795 -41.8007L350.3 -36.7316L344.726 -33.0896L343.439 -30.7426L341.451 -28.2741L339.837 -20.6421L337.672 -11.6532L336.967 -3.29819L336.254 13.3308L336.976 61.7342" fill="#FFF0C9"/>
<path d="M336.523 62.1739C337.205 64.5587 337.086 70.3319 340.779 76.1996C344.472 82.0672 352.39 89.5724 358.682 97.3744C364.97 105.176 372.59 113.078 378.521 123.011C384.455 132.944 392.36 143.943 394.274 156.976C396.189 170.009 392.189 187.124 390.01 201.209C387.833 215.291 383.128 225.882 381.209 241.481C379.29 257.077 376.864 279.781 378.499 294.791C380.131 309.805 386.199 320.998 391.006 331.546C395.815 342.094 399.838 348.304 407.347 358.084C414.853 367.863 415.915 384.29 436.049 390.222C456.185 396.152 503.184 407.617 528.153 393.665C553.122 379.712 581.079 340.494 585.865 306.505C590.652 272.516 564.042 223.276 556.876 189.73C549.709 156.186 552.119 138.739 542.867 105.23C533.617 71.724 509.334 10.366 501.363 -11.3106C493.394 -32.9844 511.354 -19.1449 495.047 -24.821C478.738 -30.4971 427.034 -43.1253 403.515 -45.3645C379.999 -47.6036 364.802 -43.3169 353.943 -38.2585C343.086 -33.2002 341.217 -31.6787 338.37 -15.0146C335.523 1.64681 337.157 48.9171 336.859 61.7153M336.984 62.0309C337.622 64.3159 336.865 69.8733 340.572 75.6789C344.28 81.4845 352.899 89.076 359.229 96.8645C365.559 104.653 372.638 112.374 378.547 122.412C384.455 132.451 392.836 143.862 394.676 157.095C396.515 170.327 391.808 187.644 389.588 201.802C387.37 215.96 383.258 226.576 381.359 242.045C379.463 257.514 376.536 279.754 378.202 294.619C379.866 309.481 386.481 320.666 391.355 331.222C396.228 341.778 400.098 348.11 407.44 357.96C414.782 367.809 415.318 384.39 435.406 390.319C455.495 396.246 502.877 407.507 527.971 393.527C553.062 379.547 581.161 340.405 585.968 306.44C590.777 272.473 564.008 223.139 556.821 189.724C549.636 156.307 552.075 139.546 542.853 105.945C533.63 72.3472 509.384 9.90737 501.491 -11.869C493.6 -33.6427 511.855 -19.1476 495.496 -24.7104C479.139 -30.2732 426.859 -42.8609 403.34 -45.2458C379.821 -47.6306 365.201 -43.9886 354.383 -39.0139C343.565 -34.0392 341.372 -32.283 338.434 -15.4004C335.493 1.48225 337.045 49.3271 336.745 62.2791" stroke="#FFF0C9" stroke-width="4" stroke-linecap="round"/>
<path d="M-15.2578 154.834C-4.14343 158.188 40.8247 156.405 51.3692 174.701C61.9137 192.994 47.77 239.261 48.0116 264.604C48.2533 289.949 43.9908 312.29 52.8143 326.769C61.6379 341.245 88.9999 342.146 100.953 351.472C112.906 360.798 120.545 377.557 124.536 382.728M-14.1888 156.259C-3.15189 159.804 40.4828 157.476 50.7469 175.669C61.0134 193.866 47.0497 240.486 47.4008 265.432C47.7518 290.378 44.0227 310.941 52.8554 325.339C61.6858 339.737 88.3275 342.022 100.386 351.82C112.446 361.621 121.046 378.838 125.206 384.131" stroke="#46464F" stroke-width="2" stroke-linecap="round"/>
<path d="M24.5274 280.87C31.0191 281.191 36.8886 283.967 42.6692 285.998C48.4497 288.029 54.3032 290.32 59.2085 293.058C64.1161 295.794 68.3558 299.079 72.1077 302.417C75.8618 305.754 79.2217 309.417 81.7268 313.078C84.2318 316.739 86.0303 320.457 87.1381 324.379C88.2458 328.302 88.6539 332.602 88.3781 336.613C88.1022 340.625 87.2156 344.602 85.4855 348.446C83.7554 352.29 81.1273 356.126 77.9931 359.677C74.8612 363.227 70.993 366.726 66.6918 369.745C62.3883 372.766 57.4944 375.445 52.1743 377.798C46.8564 380.153 40.8342 382.19 34.7778 383.87C28.7215 385.551 22.3369 386.997 15.8405 387.887C9.34196 388.777 2.52882 389.139 -4.20682 389.212C-10.9402 389.285 -17.979 389.161 -24.5665 388.33C-31.1539 387.499 -37.6685 385.91 -43.734 384.229C-49.7972 382.548 -55.596 380.56 -60.9503 378.243C-66.3047 375.923 -71.4812 373.333 -75.8599 370.322C-80.2387 367.314 -84.0612 363.745 -87.225 360.184C-90.3911 356.625 -93.0056 352.811 -94.8496 348.967C-96.6914 345.125 -97.863 341.119 -98.2824 337.123C-98.6996 333.131 -98.3622 328.952 -97.357 325.005C-96.3518 321.055 -94.706 317.063 -92.2511 313.432C-89.7962 309.8 -86.4204 306.528 -82.6298 303.215C-78.8414 299.902 -74.3738 296.357 -69.5186 293.56C-64.6658 290.765 -59.2203 288.493 -53.5081 286.44C-47.7959 284.387 -41.5868 282.548 -35.2455 281.239C-28.9042 279.931 -22.0933 278.995 -15.4557 278.587C-8.81577 278.18 -2.81866 278.169 4.59168 278.795C12.002 279.421 24.288 281.428 29.0018 282.348C33.7156 283.268 33.4193 283.459 32.8723 284.317M38.6756 284.884C45.042 285.882 50.6539 289.192 55.7347 291.682C60.8178 294.175 65.0803 296.676 69.165 299.827C73.2474 302.978 77.2956 306.946 80.2315 310.588C83.1651 314.233 85.3487 317.84 86.7757 321.689C88.2025 325.536 88.8431 329.656 88.7884 333.676C88.7337 337.698 87.8766 341.958 86.4542 345.813C85.0296 349.671 83.0465 353.251 80.2429 356.812C77.4415 360.373 73.6918 363.996 69.6345 367.179C65.5772 370.362 60.9317 373.303 55.9057 375.912C50.8796 378.523 45.3543 381.002 39.4734 382.837C33.5948 384.674 27.1646 385.826 20.6296 386.921C14.0945 388.017 7.05116 389.082 0.267647 389.411C-6.51358 389.741 -13.4361 389.589 -20.0601 388.896C-26.6863 388.203 -33.3148 386.811 -39.4852 385.249C-45.6555 383.689 -51.5751 381.696 -57.0822 379.532C-62.5869 377.369 -67.923 375.102 -72.516 372.264C-77.109 369.426 -81.1436 365.917 -84.6334 362.499C-88.1231 359.08 -91.2163 355.53 -93.4547 351.756C-95.693 347.982 -97.3205 343.808 -98.0636 339.851C-98.809 335.89 -98.6882 331.93 -97.9177 328.002C-97.1496 324.077 -95.5517 320.103 -93.4455 316.294C-91.3394 312.482 -88.7203 308.522 -85.2807 305.139C-81.8411 301.753 -77.4418 298.853 -72.8055 295.988C-68.1669 293.125 -62.9425 290.196 -57.456 287.954C-51.9672 285.715 -46.0385 284.091 -39.8818 282.548C-33.7228 281.007 -27.1399 279.407 -20.5091 278.703C-13.8783 278.002 -6.80078 278.026 -0.0993347 278.334C6.60212 278.644 13.2603 279.472 19.695 280.551C26.1298 281.63 35.5095 283.921 38.5092 284.808C41.5089 285.699 38.393 285.102 37.6886 285.882" fill="#D1ECFF"/>
<path d="M-28.4188 280.125C-22.62 278.318 -14.8974 278.639 -8.20964 278.474C-1.52187 278.309 5.12716 278.42 11.7055 279.146C18.2862 279.869 25.0811 281.258 31.2674 282.817C37.4537 284.374 43.314 286.249 48.8234 288.496C54.3304 290.741 59.7736 293.393 64.3165 296.285C68.857 299.179 72.7206 302.392 76.0714 305.854C79.4198 309.318 82.3489 313.208 84.414 317.055C86.4791 320.902 87.881 324.962 88.4577 328.936C89.0366 332.912 88.7335 337.016 87.881 340.911C87.0262 344.807 85.5537 348.538 83.3358 352.312C81.118 356.089 78.1707 360.2 74.5692 363.567C70.9678 366.934 66.4568 369.702 61.7225 372.507C56.9882 375.313 51.7638 378.227 46.1678 380.404C40.5696 382.581 34.4198 384.162 28.1378 385.57C21.8534 386.978 15.0745 388.216 8.46649 388.85C1.85849 389.487 -4.86119 389.63 -11.5079 389.382C-18.1547 389.134 -24.9792 388.508 -31.4163 387.359C-37.8556 386.209 -44.2402 384.437 -50.1347 382.492C-56.0316 380.544 -61.746 378.275 -66.7926 375.68C-71.8392 373.085 -76.4664 370.128 -80.4144 366.92C-84.3623 363.713 -87.7928 360.133 -90.4779 356.431C-93.1654 352.727 -95.2328 348.592 -96.5366 344.702C-97.8381 340.809 -98.3601 337.01 -98.2963 333.077C-98.2325 329.146 -97.7059 324.986 -96.1514 321.11C-94.5945 317.236 -91.9504 313.407 -88.9576 309.825C-85.9647 306.239 -82.2949 302.778 -78.1942 299.608C-74.0913 296.438 -69.4778 293.358 -64.3491 290.8C-59.2204 288.243 -54.7255 286.165 -47.4177 284.261C-40.1099 282.356 -26.3241 280.128 -20.507 279.37C-14.6877 278.614 -12.789 278.865 -12.5109 279.729M9.65862 279.097C16.18 278.733 23.2576 280.578 29.5533 281.984C35.8467 283.389 41.9076 285.307 47.4261 287.536C52.9468 289.761 58.0823 292.421 62.6685 295.34C67.2546 298.259 71.4487 301.559 74.9453 305.044C78.4419 308.533 81.4736 312.487 83.6481 316.259C85.8227 320.03 87.1835 323.815 87.9904 327.676C88.7973 331.536 89.2167 335.475 88.4941 339.419C87.7715 343.366 85.8204 347.558 83.6549 351.351C81.4918 355.147 78.8614 358.77 75.5084 362.183C72.1554 365.598 68.0957 368.911 63.5415 371.836C58.9872 374.757 53.7446 377.447 48.1851 379.729C42.6257 382.012 36.4393 384.113 30.1869 385.535C23.9345 386.954 17.2855 387.612 10.6661 388.257C4.049 388.902 -2.78694 389.579 -9.52714 389.403C-16.2651 389.228 -23.3153 388.27 -29.7705 387.207C-36.2235 386.142 -42.3209 384.828 -48.2542 383.015C-54.1852 381.2 -60.1504 378.839 -65.3657 376.317C-70.5787 373.797 -75.4407 371.069 -79.5345 367.886C-83.6283 364.7 -87.1181 360.918 -89.9286 357.214C-92.7368 353.507 -94.9273 349.544 -96.3862 345.646C-97.8472 341.747 -98.6747 337.703 -98.6883 333.824C-98.6997 329.942 -97.943 326.181 -96.4637 322.367C-94.9843 318.552 -92.575 314.573 -89.8146 310.936C-87.052 307.297 -83.8494 303.731 -79.8947 300.536C-75.9399 297.345 -71.185 294.41 -66.086 291.777C-60.987 289.141 -55.2292 286.616 -49.2982 284.727C-43.3672 282.842 -36.9507 281.501 -30.4954 280.449C-24.0401 279.397 -17.2817 278.679 -10.5688 278.415C-3.85369 278.15 6.41047 278.633 9.78855 278.857C13.1689 279.081 9.93443 278.79 9.71105 279.761" stroke="#D1ECFF" stroke-width="4" stroke-linecap="round"/>
<path d="M525.703 288.216C531.172 292.126 535.951 298.283 540.59 303.831C545.228 309.378 549.623 315.608 553.535 321.504C557.444 327.398 561.079 333.411 564.049 339.201C567.015 344.992 569.457 350.637 571.34 356.238C573.224 361.836 574.694 367.655 575.353 372.8C576.011 377.945 575.853 382.741 575.291 387.107C574.73 391.471 573.726 395.57 571.984 398.989C570.243 402.404 567.677 405.267 564.84 407.604C562.006 409.94 558.804 411.897 554.973 413.006C551.142 414.115 546.543 414.414 541.857 414.265C537.174 414.116 532.047 413.522 526.866 412.109C521.686 410.697 516.286 408.386 510.771 405.784C505.256 403.178 499.427 400.162 493.775 396.486C488.122 392.812 482.293 388.339 476.858 383.736C471.421 379.131 466.164 374.078 461.155 368.867C456.147 363.656 451.168 358.14 446.811 352.47C442.452 346.802 438.449 340.766 435.009 334.853C431.57 328.943 428.565 322.738 426.171 317.006C423.777 311.274 421.912 305.802 420.646 300.465C419.378 295.127 418.643 289.806 418.571 284.986C418.498 280.165 419.039 275.512 420.212 271.543C421.387 267.576 423.32 264.056 425.616 261.178C427.91 258.301 430.625 255.962 433.98 254.28C437.336 252.599 441.508 251.587 445.748 251.084C449.987 250.583 454.484 250.551 459.419 251.274C464.355 251.998 469.895 253.379 475.363 255.426C480.83 257.47 486.576 260.382 492.225 263.546C497.875 266.711 503.106 269.724 509.26 274.411C515.413 279.096 525.294 287.978 529.143 291.66C532.991 295.343 532.86 295.797 532.353 296.505M490.096 262.801C495.361 264.491 501.828 268.933 507.423 272.839C513.017 276.741 518.462 281.297 523.667 286.224C528.872 291.152 533.889 296.985 538.654 302.403C543.419 307.825 548.217 313.061 552.254 318.747C556.289 324.436 559.796 330.521 562.867 336.532C565.941 342.543 568.715 349.092 570.683 354.812C572.65 360.531 573.803 365.736 574.678 370.848C575.556 375.959 576.279 381.044 575.935 385.48C575.593 389.914 574.357 393.902 572.624 397.464C570.889 401.024 568.26 404.365 565.528 406.84C562.799 409.314 559.846 411.027 556.236 412.31C552.63 413.592 548.408 414.455 543.881 414.536C539.357 414.614 534.312 414.067 529.081 412.784C523.847 411.501 518.049 409.298 512.488 406.832C506.929 404.368 501.311 401.477 495.722 397.996C490.135 394.517 484.429 390.491 478.966 385.959C473.502 381.422 468.03 375.997 462.942 370.796C457.853 365.595 452.899 360.381 448.43 354.749C443.962 349.119 439.699 342.901 436.132 337.008C432.566 331.116 429.486 325.158 427.032 319.39C424.576 313.619 422.778 307.903 421.404 302.386C420.029 296.869 419.024 291.154 418.782 286.287C418.543 281.422 419.004 277.126 419.958 273.187C420.913 269.249 422.347 265.706 424.509 262.658C426.668 259.61 429.578 256.848 432.919 254.903C436.26 252.957 440.395 251.625 444.55 250.993C448.708 250.359 452.998 250.49 457.864 251.098C462.728 251.708 468.339 252.713 473.736 254.645C479.131 256.577 487.509 261.212 490.237 262.69C492.968 264.166 490.021 262.452 490.111 263.502" fill="#FFE3C7"/>
<path d="M529.62 292.151C535.001 296.356 539.755 303.044 544.229 308.665C548.702 314.287 552.786 320.042 556.46 325.886C560.137 331.731 563.613 337.894 566.288 343.731C568.961 349.564 570.952 355.375 572.504 360.895C574.059 366.414 575.222 371.944 575.606 376.843C575.992 381.743 575.699 386.221 574.816 390.298C573.931 394.376 572.31 398.121 570.302 401.299C568.295 404.477 565.889 407.289 562.774 409.367C559.661 411.443 555.759 412.945 551.622 413.759C547.485 414.575 542.78 414.776 537.961 414.258C533.143 413.737 527.97 412.373 522.713 410.639C517.455 408.906 511.975 406.743 506.42 403.857C500.865 400.971 495.005 397.2 489.385 393.322C483.766 389.445 478.062 385.334 472.701 380.591C467.341 375.848 462.05 370.308 457.229 364.86C452.409 359.413 447.956 353.662 443.777 347.905C439.599 342.146 435.356 336.204 432.157 330.312C428.961 324.42 426.668 318.261 424.588 312.559C422.507 306.857 420.645 301.359 419.676 296.102C418.709 290.843 418.488 285.624 418.776 281.007C419.063 276.392 419.955 272.07 421.403 268.406C422.85 264.744 424.867 261.627 427.46 259.033C430.057 256.439 433.381 254.238 436.977 252.842C440.573 251.449 444.587 250.737 449.04 250.666C453.493 250.599 458.574 251.367 463.697 252.426C468.818 253.483 474.287 254.765 479.773 257.018C485.259 259.272 491.016 262.505 496.618 265.946C502.221 269.388 507.239 272.624 513.383 277.666C519.526 282.703 529.627 292.255 533.484 296.188C537.338 300.119 537.103 300.644 536.515 301.261M523.885 286.613C529.381 290.504 534.632 297.081 539.367 302.62C544.102 308.16 548.278 314.062 552.293 319.846C556.308 325.629 560.408 331.501 563.457 337.321C566.507 343.143 568.683 349.211 570.59 354.772C572.497 360.333 574.098 365.588 574.897 370.69C575.695 375.794 575.8 380.787 575.381 385.387C574.961 389.986 574.04 394.671 572.378 398.283C570.716 401.896 568.153 404.689 565.413 407.063C562.672 409.44 559.682 411.28 555.936 412.536C552.188 413.79 547.478 414.573 542.929 414.592C538.381 414.614 533.757 413.915 528.644 412.661C523.531 411.407 517.798 409.644 512.247 407.066C506.697 404.486 501.004 400.805 495.339 397.187C489.675 393.568 483.764 389.752 478.258 385.351C472.75 380.949 467.334 375.945 462.293 370.78C457.255 365.617 452.335 360.036 448.025 354.372C443.716 348.707 439.965 342.735 436.44 336.789C432.914 330.842 429.39 324.512 426.872 318.692C424.353 312.872 422.761 307.228 421.331 301.866C419.899 296.502 418.507 291.298 418.283 286.517C418.062 281.735 418.871 277.283 419.995 273.184C421.118 269.087 422.818 264.939 425.027 261.925C427.235 258.912 429.972 256.894 433.245 255.103C436.517 253.314 440.459 251.84 444.66 251.188C448.863 250.535 453.643 250.534 458.454 251.191C463.266 251.851 468.195 253.172 473.528 255.139C478.859 257.104 484.815 260.034 490.444 262.984C496.069 265.934 501.775 268.861 507.285 272.835C512.797 276.811 520.851 284.42 523.51 286.831C526.17 289.241 523.614 286.559 523.248 287.301" stroke="#FFE3C7" stroke-width="4" stroke-linecap="round"/>
<path d="M491.674 335.082C478.44 314.562 436.77 244.536 412.565 211.872C388.362 179.205 360.772 160.687 346.453 139.086C332.132 117.488 329.184 107.989 326.64 82.2712C324.097 56.5534 330.511 0.971275 331.19 -15.218M492.773 334.572C479.734 314.158 438.324 245.27 413.837 212.8C389.349 180.332 360.36 161.44 345.84 139.755C331.32 118.068 329.248 108.469 326.722 82.6893C324.197 56.9095 329.891 1.41104 330.689 -14.9212" stroke="#46464F" stroke-width="2" stroke-linecap="round"/>
</g>
<defs>
<clipPath id="clip0_17344_16823">
<rect width="480" height="360" fill="white"/>
</clipPath>
</defs>
</svg>
