<svg width="480" height="360" viewBox="0 0 480 360" fill="none" xmlns="http://www.w3.org/2000/svg">
<g clip-path="url(#clip0_17628_45291)">
<rect width="480" height="360" fill="#121212"/>
<path fill-rule="evenodd" clip-rule="evenodd" d="M-67.4172 94.5377L-38.9725 93L-21.4872 93.0809L-9.2605 94.5971L-0.343468 98.5952L5.81093 101.363L11.4069 104.724L20.9371 112.17L29.3481 121.936L35.7669 131.071L38.4976 135.614L41.9851 146.621L43.6285 151.668L45.1352 157.361L45.8441 164.877L45.9285 175.592L44.6611 190.508L43.0131 199.964L34.3947 245.578L31.069 269.911L30.0775 276.405L28.8808 301.559L29.2295 305.382L30.0205 310.038L31.3266 313.057L34.3468 316.491L37.9916 320.451L43.086 322.863L48.919 325.647L55.4678 328.229L68.1982 332.551L79.5998 335.178L84.0629 336.039L87.5595 335.562L101.215 333.268L105.829 332.904L109.975 334.731L120.134 337.698L132.167 341.953L138.276 344.977L143.02 347.658L148.009 352.212L162.443 366.702L170.746 377.892L174.635 384.011L175.704 387.469L176.292 390.812L176.406 394.594L175.251 397.551L173.165 399.704L169.914 402.223L161.777 404.829L145.242 407.392L115.785 410.273L74.4256 412.71L46.0652 412.143L18.1721 411.35L5.25931 410.492L-11.6014 408.609L-21.6947 407.203L-33.445 403.235L-47.9375 396.876L-53.636 394.003L-59.5784 390.388L-64.6934 387.038L-69.512 381.923L-73.3118 377.407L-77.6518 372.548L-80.7951 367.29L-86.8469 356.402L-90.1839 350.486L-94.7017 336.538L-96.3497 329.33L-97.323 320.937L-98.0912 311.368L-98.9141 300.955L-98.5676 290.9L-96.9834 268.239L-94.3005 243.33L-80.1113 146.928L-75.712 124.915L-67.2622 94.8615" fill="#422424"/>
<path d="M-67.4011 95.0098C-57.219 95.2176 -23.0826 90.8849 -6.43609 96.0889C10.2104 101.296 23.7979 113.659 32.4756 126.236C41.1556 138.813 45.4249 151.021 45.6392 171.548C45.8557 192.075 36.4008 230.68 33.7749 249.4C31.149 268.123 29.8224 272.633 29.8885 283.87C29.9569 295.109 25.879 308.338 34.1761 316.823C42.4731 325.31 67.1158 331.906 79.6684 334.787C92.2211 337.671 97.3999 330.641 109.494 334.124C121.591 337.606 143.1 344.119 152.242 355.687C161.387 367.252 194.024 395.174 164.36 403.526C134.696 411.876 17.7097 418.262 -25.7381 405.787C-69.1858 393.313 -86.8512 369.599 -96.3267 328.685C-105.8 287.771 -87.4256 199.214 -82.5865 160.298C-77.7473 121.383 -69.8081 106.098 -67.2916 95.1906M-67.7521 94.7373C-57.4628 94.8695 -22.5811 90.3481 -5.89815 95.633C10.7871 100.918 23.7592 113.77 32.3548 126.447C40.9527 139.126 45.4888 151.191 45.6825 171.697C45.874 192.205 36.2253 230.837 33.515 249.489C30.8026 268.142 29.3984 272.296 29.4121 283.611C29.4281 294.925 25.2704 308.73 33.6062 317.381C41.9397 326.033 66.71 332.634 79.4245 335.518C92.1391 338.402 97.7168 331.364 109.887 334.687C122.059 338.008 143.38 343.941 152.448 355.452C161.515 366.963 194.04 395.36 164.294 403.75C134.547 412.14 17.4179 418.353 -26.0276 405.79C-69.473 393.226 -87.0427 369.273 -96.3791 328.372C-105.716 287.471 -86.915 199.257 -82.0462 160.387C-77.1797 121.515 -69.6326 106.022 -67.1754 95.1474" stroke="#422424" stroke-width="4" stroke-linecap="round"/>
<path fill-rule="evenodd" clip-rule="evenodd" d="M256.257 14.4479L265.664 27.8666L272.049 35.9572L278.8 42.3698L281.458 45.4128L285.88 47.6763L293.742 51.24L301.537 54.4396L316.215 59.5222L322.405 61.0869L329.114 61.4807L335.494 60.5203L339.348 60.2074L342.277 57.8873L364.315 45.545L381.46 38.7925L393.635 34.3412L404.71 31.7109L410.951 30.7316L417.069 30.9555L422.727 32.736L426.435 36.057L429.729 40.9696L435.113 51.5691L437.315 58.1382L443.747 80.6457L450.838 103.935L452.929 111.244L458.639 122.259L467.854 134.668L470.795 138.68L474.253 141.82L495.399 154.532L500.917 156.577L505.314 156.679L509.499 155.8L513.116 153.609L516.932 148.675L519.79 142.773L523.768 134.86L527.397 126.394L529.441 116.882L532.644 106.973L533.822 97.2612L534.919 87.0609L535.117 76.4318L535.4 64.0868L533.845 50.3956L532.288 37.1496L530.966 24.1841L527.167 5.79885L523.659 -3.82678L521.965 -7.895L517.26 -14.8849L513.588 -20.2184L509.187 -23.2939L504.218 -26.4125L498.163 -28.425L491.752 -30.273L466.124 -34.816L451.965 -36.2081L426.608 -38.8087L390.17 -40.5838L300.808 -44.0127L278.128 -43.5811L264.682 -42.8823L256.923 -41.1558L252.029 -38.6253L249.692 -36.7719L248.11 -34.6245L246.843 -30.4106L245.959 -27.8315L245.838 -21.7669L249.606 -6.63515L250.239 0.621838L251.167 3.55431L253.139 7.44988L256.337 13.9083" fill="#244236"/>
<path d="M256.65 13.6655C260.272 18.4864 269.679 35.4932 278.391 42.7043C287.105 49.9127 299.347 53.9621 308.932 56.9269C318.517 59.8918 326.668 62.3278 335.905 60.4961C345.143 58.6643 354.149 50.5305 364.356 45.9335C374.561 41.3365 387.412 35.102 397.138 32.9114C406.867 30.7208 416.363 29.5851 422.716 32.7927C429.068 36.003 431.79 44.1827 435.252 52.1627C438.713 60.1399 440.513 70.7988 443.479 80.6645C446.447 90.533 449.521 102.908 453.05 111.362C456.579 119.815 460.287 125.752 464.65 131.388C469.013 137.024 471.153 141.513 479.229 145.176C487.305 148.842 503.833 163.07 513.103 153.375C522.374 143.679 533.49 113.869 534.856 87.0016C536.221 60.1319 531.715 12.2843 521.295 -7.83566C510.876 -27.9556 502.488 -27.9961 472.345 -33.7153C442.2 -39.4373 376.751 -41.1234 340.429 -42.1647C304.107 -43.2061 269.478 -46.5297 254.409 -39.9634C239.34 -33.3997 249.659 -11.7987 250.021 -2.76925C250.381 6.26017 255.476 11.4102 256.579 14.2159M256.344 14.2348C259.923 19.1096 269.428 35.8681 278.163 43.0253C286.897 50.1825 299.106 54.2399 308.755 57.1805C318.403 60.1211 326.839 62.5221 336.055 60.6687C345.273 58.818 353.839 50.7463 364.057 46.0711C374.274 41.3959 387.679 34.8754 397.362 32.6173C407.042 30.362 415.857 29.2775 422.146 32.531C428.435 35.7872 431.485 44.0343 435.1 52.1519C438.715 60.2694 440.837 71.3815 443.834 81.2338C446.834 91.086 449.624 102.999 453.089 111.26C456.553 119.523 460.198 125.172 464.623 130.811C469.045 136.449 471.541 141.224 479.632 145.093C487.724 148.961 504.013 163.71 513.176 154.022C522.339 144.332 533.271 113.941 534.616 86.9584C535.963 59.9727 531.591 12.1926 521.25 -7.88152C510.908 -27.9583 502.629 -27.8261 472.571 -33.4941C442.515 -39.1621 377.296 -40.8239 340.906 -41.8949C304.515 -42.966 269.421 -46.465 254.227 -39.9202C239.03 -33.3781 249.324 -11.6017 249.732 -2.63437C250.14 6.33571 255.565 11.1458 256.679 13.8922" stroke="#244236" stroke-width="4" stroke-linecap="round"/>
<path fill-rule="evenodd" clip-rule="evenodd" d="M336.97 62.1901L337.33 68.1791L338.629 71.8508L340.908 76.3992L343.917 81.0151L358.911 97.4391L373.52 115.377L378.708 122.348L388.238 138.305L392.254 147.755L393.189 152.344L394.493 156.496L395.001 161.694L394.926 167.271L393.335 179.206L387.798 211.862L382.195 235.594L379.93 253.942L378.4 268.45L378.143 282.395L378.915 294.711L380.718 305.41L383.369 314.528L390.777 331.662L395.099 338.986L397.978 345.437L410.408 362.392L417.3 376.008L420.273 380.75L424.125 384.84L428.798 387.373L435.704 390.492L449.531 394.779L466.743 397.447L479.628 399.834L493.102 400.897L505.855 399.61L512.09 399.548L517.316 397.795L523.003 395.61L527.649 393.91L532.675 391.007L542.438 382.852L546.837 379.383L555.69 369.153L563.982 357.023L571.892 344.884L575.375 338.762L580.784 326.023L584.882 312.729L585.619 306.556L586.745 299.952L586.519 293.197L585.48 285.808L584.616 278.316L580.72 263.419L575.443 247.467L560.408 203.073L556.711 190.124L554.794 177.587L552.813 166.82L549.264 137.808L548.159 128.582L546.219 117.408L543.039 104.971L536.509 84.5896L528.032 59.2846L500.287 -15.1549L499.386 -17.6125L499.329 -22.2689L500.56 -23.4046L501.971 -24.5539L502.224 -24.1924L501.691 -23.41L501.155 -22.6789L497.948 -24.0602L471.844 -31.2174L438.615 -39.7747L418.793 -42.8636L403.1 -45.8285L387.582 -46.2925L374.094 -44.4391L362.795 -41.8007L350.3 -36.7316L344.726 -33.0896L343.439 -30.7426L341.451 -28.2741L339.837 -20.6421L337.672 -11.6532L336.967 -3.29819L336.254 13.3308L336.976 61.7342" fill="#423B24"/>
<path d="M336.523 62.1739C337.205 64.5587 337.086 70.3319 340.779 76.1996C344.472 82.0672 352.39 89.5724 358.682 97.3744C364.97 105.176 372.59 113.078 378.521 123.011C384.455 132.944 392.36 143.943 394.274 156.976C396.189 170.009 392.189 187.124 390.01 201.209C387.833 215.291 383.128 225.882 381.209 241.481C379.29 257.077 376.864 279.781 378.499 294.791C380.131 309.805 386.199 320.998 391.006 331.546C395.815 342.094 399.838 348.304 407.347 358.084C414.853 367.863 415.915 384.29 436.049 390.222C456.185 396.152 503.184 407.617 528.153 393.665C553.122 379.712 581.079 340.494 585.865 306.505C590.652 272.516 564.042 223.276 556.876 189.73C549.709 156.186 552.119 138.739 542.867 105.23C533.617 71.724 509.334 10.366 501.363 -11.3106C493.394 -32.9844 511.354 -19.1449 495.047 -24.821C478.738 -30.4971 427.034 -43.1253 403.515 -45.3645C379.999 -47.6036 364.802 -43.3169 353.943 -38.2585C343.086 -33.2002 341.217 -31.6787 338.37 -15.0146C335.523 1.64681 337.157 48.9171 336.859 61.7153M336.984 62.0309C337.622 64.3159 336.865 69.8733 340.572 75.6789C344.28 81.4845 352.899 89.076 359.229 96.8645C365.559 104.653 372.638 112.374 378.547 122.412C384.455 132.451 392.836 143.862 394.676 157.095C396.515 170.327 391.808 187.644 389.588 201.802C387.37 215.96 383.258 226.576 381.359 242.045C379.463 257.514 376.536 279.754 378.202 294.619C379.866 309.481 386.481 320.666 391.355 331.222C396.228 341.778 400.098 348.11 407.44 357.96C414.782 367.809 415.318 384.39 435.406 390.319C455.495 396.246 502.877 407.507 527.971 393.527C553.062 379.547 581.161 340.405 585.968 306.44C590.777 272.473 564.008 223.139 556.821 189.724C549.636 156.307 552.075 139.546 542.853 105.945C533.63 72.3472 509.384 9.90737 501.491 -11.869C493.6 -33.6427 511.855 -19.1476 495.496 -24.7104C479.139 -30.2732 426.859 -42.8609 403.34 -45.2458C379.821 -47.6306 365.201 -43.9886 354.383 -39.0139C343.565 -34.0392 341.372 -32.283 338.434 -15.4004C335.493 1.48225 337.045 49.3271 336.745 62.2791" stroke="#423B24" stroke-width="4" stroke-linecap="round"/>
<path d="M-15.2578 154.834C-4.14343 158.188 40.8247 156.405 51.3692 174.701C61.9137 192.994 47.77 239.261 48.0116 264.604C48.2533 289.949 43.9908 312.29 52.8143 326.769C61.6379 341.245 88.9999 342.146 100.953 351.472C112.906 360.798 120.545 377.557 124.536 382.728M-14.1888 156.259C-3.15189 159.804 40.4828 157.476 50.7469 175.669C61.0134 193.866 47.0497 240.486 47.4008 265.432C47.7518 290.378 44.0227 310.941 52.8554 325.339C61.6858 339.737 88.3275 342.022 100.386 351.82C112.446 361.621 121.046 378.838 125.206 384.131" stroke="#B9B9C6" stroke-width="2" stroke-linecap="round"/>
<path d="M24.5264 280.87C31.0181 281.191 36.8876 283.967 42.6682 285.998C48.4487 288.029 54.3023 290.32 59.2075 293.058C64.1151 295.794 68.3548 299.079 72.1067 302.417C75.8609 305.754 79.2207 309.417 81.7258 313.078C84.2309 316.739 86.0293 320.457 87.1371 324.379C88.2449 328.302 88.6529 332.602 88.3771 336.613C88.1013 340.625 87.2146 344.602 85.4845 348.446C83.7544 352.29 81.1263 356.126 77.9921 359.677C74.8602 363.227 70.9921 366.726 66.6908 369.745C62.3873 372.766 57.4934 375.445 52.1733 377.798C46.8554 380.153 40.8333 382.19 34.7769 383.87C28.7205 385.551 22.3359 386.997 15.8396 387.887C9.34099 388.777 2.52785 389.139 -4.20779 389.212C-10.9412 389.285 -17.98 389.161 -24.5674 388.33C-31.1549 387.499 -37.6695 385.91 -43.735 384.229C-49.7982 382.548 -55.597 380.56 -60.9513 378.243C-66.3056 375.923 -71.4822 373.333 -75.8609 370.322C-80.2396 367.314 -84.0622 363.745 -87.226 360.184C-90.3921 356.625 -93.0066 352.811 -94.8506 348.967C-96.6924 345.125 -97.864 341.119 -98.2834 337.123C-98.7005 333.131 -98.3632 328.952 -97.358 325.005C-96.3528 321.055 -94.707 317.063 -92.2521 313.432C-89.7972 309.8 -86.4214 306.528 -82.6307 303.215C-78.8424 299.902 -74.3747 296.357 -69.5196 293.56C-64.6667 290.765 -59.2212 288.493 -53.509 286.44C-47.7969 284.387 -41.5878 282.548 -35.2465 281.239C-28.9052 279.931 -22.0943 278.995 -15.4567 278.587C-8.81675 278.18 -2.81964 278.169 4.59071 278.795C12.0011 279.421 24.287 281.428 29.0009 282.348C33.7147 283.268 33.4184 283.459 32.8713 284.317M38.6747 284.884C45.041 285.882 50.6529 289.192 55.7337 291.682C60.8168 294.175 65.0793 296.676 69.164 299.827C73.2464 302.978 77.2946 306.946 80.2305 310.588C83.1641 314.233 85.3478 317.84 86.7747 321.689C88.2016 325.536 88.8421 329.656 88.7874 333.676C88.7327 337.698 87.8756 341.958 86.4533 345.813C85.0286 349.671 83.0455 353.251 80.2419 356.812C77.4405 360.373 73.6909 363.996 69.6335 367.179C65.5762 370.362 60.9308 373.303 55.9047 375.912C50.8786 378.523 45.3533 381.002 39.4724 382.837C33.5939 384.674 27.1637 385.826 20.6286 386.921C14.0936 388.017 7.05019 389.082 0.26667 389.411C-6.51456 389.741 -13.4371 389.589 -20.0611 388.896C-26.6873 388.203 -33.3158 386.811 -39.4862 385.249C-45.6565 383.689 -51.5761 381.696 -57.0832 379.532C-62.5879 377.369 -67.924 375.102 -72.517 372.264C-77.11 369.426 -81.1446 365.917 -84.6343 362.499C-88.1241 359.08 -91.2173 355.53 -93.4556 351.756C-95.694 347.982 -97.3215 343.808 -98.0646 339.851C-98.81 335.89 -98.6891 331.93 -97.9187 328.002C-97.1505 324.077 -95.5527 320.103 -93.4465 316.294C-91.3403 312.482 -88.7213 308.522 -85.2817 305.139C-81.8421 301.753 -77.4428 298.853 -72.8065 295.988C-68.1679 293.125 -62.9435 290.196 -57.457 287.954C-51.9682 285.715 -46.0394 284.091 -39.8828 282.548C-33.7238 281.007 -27.1409 279.407 -20.5101 278.703C-13.8793 278.002 -6.80176 278.026 -0.100311 278.334C6.60114 278.644 13.2593 279.472 19.6941 280.551C26.1288 281.63 35.5086 283.921 38.5083 284.808C41.508 285.699 38.392 285.102 37.6877 285.882" fill="#243642"/>
<path d="M-28.4198 280.125C-22.621 278.318 -14.8984 278.639 -8.21062 278.474C-1.52284 278.309 5.12619 278.42 11.7045 279.146C18.2852 279.869 25.0801 281.258 31.2664 282.817C37.4527 284.374 43.3131 286.249 48.8224 288.496C54.3294 290.741 59.7726 293.393 64.3155 296.285C68.8561 299.179 72.7197 302.392 76.0704 305.854C79.4188 309.318 82.3479 313.208 84.413 317.055C86.4782 320.902 87.88 324.962 88.4567 328.936C89.0356 332.912 88.7325 337.016 87.88 340.911C87.0252 344.807 85.5527 348.538 83.3348 352.312C81.117 356.089 78.1697 360.2 74.5683 363.567C70.9668 366.934 66.4559 369.702 61.7215 372.507C56.9872 375.313 51.7628 378.227 46.1669 380.404C40.5687 382.581 34.4188 384.162 28.1368 385.57C21.8525 386.978 15.0735 388.216 8.46551 388.85C1.85751 389.487 -4.86217 389.63 -11.5089 389.382C-18.1557 389.134 -24.9802 388.508 -31.4172 387.359C-37.8566 386.209 -44.2412 384.437 -50.1357 382.492C-56.0325 380.544 -61.747 378.275 -66.7936 375.68C-71.8402 373.085 -76.4674 370.128 -80.4153 366.92C-84.3633 363.713 -87.7938 360.133 -90.4789 356.431C-93.1663 352.727 -95.2337 348.592 -96.5376 344.702C-97.8391 340.809 -98.3611 337.01 -98.2973 333.077C-98.2334 329.146 -97.7069 324.986 -96.1523 321.11C-94.5955 317.236 -91.9514 313.407 -88.9585 309.825C-85.9657 306.239 -82.2958 302.778 -78.1952 299.608C-74.0923 296.438 -69.4787 293.358 -64.3501 290.8C-59.2214 288.243 -54.7264 286.165 -47.4187 284.261C-40.1109 282.356 -26.325 280.128 -20.508 279.37C-14.6887 278.614 -12.7899 278.865 -12.5119 279.729M9.65764 279.097C16.179 278.733 23.2566 280.578 29.5523 281.984C35.8457 283.389 41.9067 285.307 47.4251 287.536C52.9458 289.761 58.0813 292.421 62.6675 295.34C67.2536 298.259 71.4478 301.559 74.9444 305.044C78.441 308.533 81.4726 312.487 83.6471 316.259C85.8217 320.03 87.1825 323.815 87.9894 327.676C88.7963 331.536 89.2157 335.475 88.4931 339.419C87.7706 343.366 85.8194 347.558 83.654 351.351C81.4908 355.147 78.8604 358.77 75.5074 362.183C72.1544 365.598 68.0948 368.911 63.5405 371.836C58.9863 374.757 53.7436 377.447 48.1842 379.729C42.6247 382.012 36.4384 384.113 30.186 385.535C23.9336 386.954 17.2845 387.612 10.6651 388.257C4.04803 388.902 -2.78791 389.579 -9.52812 389.403C-16.266 389.228 -23.3162 388.27 -29.7715 387.207C-36.2245 386.142 -42.3219 384.828 -48.2552 383.015C-54.1862 381.2 -60.1514 378.839 -65.3667 376.317C-70.5797 373.797 -75.4417 371.069 -79.5355 367.886C-83.6293 364.7 -87.1191 360.918 -89.9296 357.214C-92.7378 353.507 -94.9283 349.544 -96.3871 345.646C-97.8482 341.747 -98.6756 337.703 -98.6893 333.824C-98.7007 329.942 -97.944 326.181 -96.4646 322.367C-94.9853 318.552 -92.576 314.573 -89.8156 310.936C-87.053 307.297 -83.8504 303.731 -79.8956 300.536C-75.9409 297.345 -71.186 294.41 -66.087 291.777C-60.988 289.141 -55.2302 286.616 -49.2992 284.727C-43.3682 282.842 -36.9516 281.501 -30.4964 280.449C-24.0411 279.397 -17.2826 278.679 -10.5698 278.415C-3.85467 278.15 6.40949 278.633 9.78757 278.857C13.1679 279.081 9.93345 278.79 9.71007 279.761" stroke="#243642" stroke-width="4" stroke-linecap="round"/>
<path d="M525.703 288.216C531.172 292.126 535.951 298.283 540.59 303.831C545.228 309.378 549.623 315.608 553.535 321.504C557.444 327.398 561.079 333.411 564.049 339.201C567.015 344.992 569.457 350.637 571.34 356.238C573.224 361.836 574.694 367.655 575.353 372.8C576.011 377.945 575.853 382.741 575.291 387.107C574.73 391.471 573.726 395.57 571.984 398.989C570.243 402.404 567.677 405.267 564.84 407.604C562.006 409.94 558.804 411.897 554.973 413.006C551.142 414.115 546.543 414.414 541.857 414.265C537.174 414.116 532.047 413.522 526.866 412.109C521.686 410.697 516.286 408.386 510.771 405.784C505.256 403.178 499.427 400.162 493.775 396.486C488.122 392.812 482.293 388.339 476.858 383.736C471.421 379.131 466.164 374.078 461.155 368.867C456.147 363.656 451.168 358.14 446.811 352.47C442.452 346.802 438.449 340.766 435.009 334.853C431.57 328.943 428.565 322.738 426.171 317.006C423.777 311.274 421.912 305.802 420.646 300.465C419.378 295.127 418.643 289.806 418.571 284.986C418.498 280.165 419.039 275.512 420.212 271.543C421.387 267.576 423.32 264.056 425.616 261.178C427.91 258.301 430.625 255.962 433.98 254.28C437.336 252.599 441.508 251.587 445.748 251.084C449.987 250.583 454.484 250.551 459.419 251.274C464.355 251.998 469.895 253.379 475.363 255.426C480.83 257.47 486.576 260.382 492.225 263.546C497.875 266.711 503.106 269.724 509.26 274.411C515.413 279.096 525.294 287.978 529.143 291.66C532.991 295.343 532.86 295.797 532.353 296.505M490.096 262.801C495.361 264.491 501.828 268.933 507.423 272.839C513.017 276.741 518.462 281.297 523.667 286.224C528.872 291.152 533.889 296.985 538.654 302.403C543.419 307.825 548.217 313.061 552.254 318.747C556.289 324.436 559.796 330.521 562.867 336.532C565.941 342.543 568.715 349.092 570.683 354.812C572.65 360.531 573.803 365.736 574.678 370.848C575.556 375.959 576.279 381.044 575.935 385.48C575.593 389.914 574.357 393.902 572.624 397.464C570.889 401.024 568.26 404.365 565.528 406.84C562.799 409.314 559.846 411.027 556.236 412.31C552.63 413.592 548.408 414.455 543.881 414.536C539.357 414.614 534.312 414.067 529.081 412.784C523.847 411.501 518.049 409.298 512.488 406.832C506.929 404.368 501.311 401.477 495.722 397.996C490.135 394.517 484.429 390.491 478.966 385.959C473.502 381.422 468.03 375.997 462.942 370.796C457.853 365.595 452.899 360.381 448.43 354.749C443.962 349.119 439.699 342.901 436.132 337.008C432.566 331.116 429.486 325.158 427.032 319.39C424.576 313.619 422.778 307.903 421.404 302.386C420.029 296.869 419.024 291.154 418.782 286.287C418.543 281.422 419.004 277.126 419.958 273.187C420.913 269.249 422.347 265.706 424.509 262.658C426.668 259.61 429.578 256.848 432.919 254.903C436.26 252.957 440.395 251.625 444.55 250.993C448.708 250.359 452.998 250.49 457.864 251.098C462.728 251.708 468.339 252.713 473.736 254.645C479.131 256.577 487.509 261.212 490.237 262.69C492.968 264.166 490.021 262.452 490.111 263.502" fill="#423324"/>
<path d="M529.62 292.151C535.001 296.356 539.755 303.044 544.229 308.665C548.702 314.287 552.786 320.042 556.46 325.886C560.137 331.731 563.613 337.894 566.288 343.731C568.961 349.564 570.952 355.375 572.504 360.895C574.059 366.414 575.222 371.944 575.606 376.843C575.992 381.743 575.699 386.221 574.816 390.298C573.931 394.376 572.31 398.121 570.302 401.299C568.295 404.477 565.889 407.289 562.774 409.367C559.661 411.443 555.759 412.945 551.622 413.759C547.485 414.575 542.78 414.776 537.961 414.258C533.143 413.737 527.97 412.373 522.713 410.639C517.455 408.906 511.975 406.743 506.42 403.857C500.865 400.971 495.005 397.2 489.385 393.322C483.766 389.445 478.062 385.334 472.701 380.591C467.341 375.848 462.05 370.308 457.229 364.86C452.409 359.413 447.956 353.662 443.777 347.905C439.599 342.146 435.356 336.204 432.157 330.312C428.961 324.42 426.668 318.261 424.588 312.559C422.507 306.857 420.645 301.359 419.676 296.102C418.709 290.843 418.488 285.624 418.776 281.007C419.063 276.392 419.955 272.07 421.403 268.406C422.85 264.744 424.867 261.627 427.46 259.033C430.057 256.439 433.381 254.238 436.977 252.842C440.573 251.449 444.587 250.737 449.04 250.666C453.493 250.599 458.574 251.367 463.697 252.426C468.818 253.483 474.287 254.765 479.773 257.018C485.259 259.272 491.016 262.505 496.618 265.946C502.221 269.388 507.239 272.624 513.383 277.666C519.526 282.703 529.627 292.255 533.484 296.188C537.338 300.119 537.103 300.644 536.515 301.261M523.885 286.613C529.381 290.504 534.632 297.081 539.367 302.62C544.102 308.16 548.278 314.062 552.293 319.846C556.308 325.629 560.408 331.501 563.457 337.321C566.507 343.143 568.683 349.211 570.59 354.772C572.497 360.333 574.098 365.588 574.897 370.69C575.695 375.794 575.8 380.787 575.381 385.387C574.961 389.986 574.04 394.671 572.378 398.283C570.716 401.896 568.153 404.689 565.413 407.063C562.672 409.44 559.682 411.28 555.936 412.536C552.188 413.79 547.478 414.573 542.929 414.592C538.381 414.614 533.757 413.915 528.644 412.661C523.531 411.407 517.798 409.644 512.247 407.066C506.697 404.486 501.004 400.805 495.339 397.187C489.675 393.568 483.764 389.752 478.258 385.351C472.75 380.949 467.334 375.945 462.293 370.78C457.255 365.617 452.335 360.036 448.025 354.372C443.716 348.707 439.965 342.735 436.44 336.789C432.914 330.842 429.39 324.512 426.872 318.692C424.353 312.872 422.761 307.228 421.331 301.866C419.899 296.502 418.507 291.298 418.283 286.517C418.062 281.735 418.871 277.283 419.995 273.184C421.118 269.087 422.818 264.939 425.027 261.925C427.235 258.912 429.972 256.894 433.245 255.103C436.517 253.314 440.459 251.84 444.66 251.188C448.863 250.535 453.643 250.534 458.454 251.191C463.266 251.851 468.195 253.172 473.528 255.139C478.859 257.104 484.815 260.034 490.444 262.984C496.069 265.934 501.775 268.861 507.285 272.835C512.797 276.811 520.851 284.42 523.51 286.831C526.17 289.241 523.614 286.559 523.248 287.301" stroke="#423324" stroke-width="4" stroke-linecap="round"/>
<path d="M491.674 335.082C478.44 314.562 436.77 244.536 412.565 211.872C388.362 179.205 360.772 160.687 346.453 139.086C332.132 117.488 329.184 107.989 326.64 82.2712C324.097 56.5534 330.511 0.971275 331.19 -15.218M492.773 334.572C479.734 314.158 438.324 245.27 413.837 212.8C389.349 180.332 360.36 161.44 345.84 139.755C331.32 118.068 329.248 108.469 326.722 82.6893C324.197 56.9095 329.891 1.41104 330.689 -14.9212" stroke="#B9B9C6" stroke-width="2" stroke-linecap="round"/>
</g>
<defs>
<clipPath id="clip0_17628_45291">
<rect width="480" height="360" fill="white"/>
</clipPath>
</defs>
</svg>
