<svg width="140" height="20" viewBox="0 0 140 20" fill="none" xmlns="http://www.w3.org/2000/svg">
<g clip-path="url(#clip0_17766_58387)">
<path d="M138.862 3.88884C138.903 3.58329 138.987 3.63884 137.626 3.47218C136.251 3.30551 136.598 3.12495 136.473 3.76384C136.306 4.72218 136.028 5.80551 135.973 6.12495C135.848 6.86107 135.445 8.01384 135.084 9.4444C134.487 8.02773 133.987 7.1944 133.695 6.6944C132.64 4.93051 133.056 4.9444 131.945 5.3194C131.501 5.47217 131.084 5.5694 131.195 5.83329C131.32 6.12495 131.39 6.18051 131.376 6.1944C130.778 7.05551 130.028 8.15273 129.834 8.45829C129.515 8.9444 129.334 9.23606 129.223 9.41662L129.001 7.77773L128.89 6.76384C128.848 6.30551 128.792 5.95829 128.765 5.73606C128.723 5.45829 128.695 5.1944 128.653 4.9444C128.528 4.12495 128.556 4.26384 128.084 4.26384C127.765 4.26384 127.07 4.4444 126.723 4.49995C125.709 4.68051 126.14 5.40273 126.278 6.1944C126.348 6.61107 126.39 6.80551 126.417 6.91662C126.667 9.02773 126.792 10.9305 126.778 12.5833C126.765 12.8333 126.751 13.0833 126.751 13.3333C126.737 13.6388 126.709 14.3472 126.737 14.5555C126.848 15.1805 127.403 15.0416 128.32 15.0416C128.806 15.0416 129.14 15.0694 129.195 14.9305C129.334 14.5416 129.848 13.4444 130.57 11.9027C131.001 11 131.473 9.99995 131.973 9.16662C132.126 8.93051 132.265 8.68051 132.292 8.65273C132.306 8.66662 132.667 9.37495 132.695 9.41662C132.876 9.6944 133.542 11.1666 134.112 12.4722C135.001 14.5138 135.195 15.9166 135.917 15.6805C136.681 15.4305 137.32 15.4583 137.265 14.8472C137.195 14.0138 137.445 12.9861 137.473 12.7222L138.001 9.87495C138.431 7.20829 138.778 5.51384 138.806 4.68051C138.834 4.5694 138.862 3.98606 138.862 3.88884Z" fill="#030064"/>
<path d="M128.57 4.18048C127.709 4.13882 126.862 4.41659 126.028 4.55548C125.917 4.56937 125.959 4.73604 126.07 4.72215C126.889 4.59715 127.723 4.31937 128.57 4.36104C128.681 4.36104 128.681 4.19437 128.57 4.18048Z" fill="#030064"/>
<path d="M132.862 5.01396C132.598 5.0834 132.334 5.16673 132.07 5.25006C131.834 5.3334 131.612 5.41673 131.389 5.51396C131.292 5.55562 131.334 5.72229 131.431 5.68062C131.653 5.5834 131.889 5.50007 132.112 5.41673C132.375 5.3334 132.639 5.25006 132.903 5.18062C133.014 5.13895 132.959 4.97229 132.862 5.01396Z" fill="#030064"/>
<path d="M137.043 15.3332C136.779 15.4026 136.515 15.486 136.252 15.5693C136.015 15.6526 135.793 15.736 135.571 15.8332C135.474 15.8749 135.515 16.0415 135.613 15.9999C135.835 15.9026 136.071 15.8193 136.293 15.736C136.557 15.6526 136.821 15.5693 137.085 15.4999C137.196 15.4721 137.154 15.3054 137.043 15.3332Z" fill="#030064"/>
<path d="M131.626 6.15263C131.584 6.0693 131.529 5.97208 131.487 5.88875C131.417 5.77764 131.348 5.66653 131.279 5.55541C131.251 5.51375 131.195 5.49986 131.154 5.52763C131.112 5.55541 131.098 5.61097 131.126 5.65264C131.195 5.76375 131.265 5.87486 131.334 5.98597C131.39 6.0693 131.431 6.16653 131.473 6.24986C131.501 6.29153 131.556 6.30542 131.598 6.27764C131.626 6.24986 131.64 6.1943 131.626 6.15263Z" fill="#030064"/>
<path d="M135.695 15.8055C135.64 15.7638 135.556 15.625 135.515 15.5555C135.404 15.375 135.306 15.1944 135.209 15C134.918 14.4583 134.654 13.9027 134.39 13.3472C133.82 12.1388 133.265 10.9166 132.723 9.68051C132.584 9.36106 132.418 9.02773 132.306 8.68051C132.279 8.5694 132.112 8.62495 132.14 8.72217C132.223 9.01384 132.362 9.29162 132.487 9.56939C132.723 10.1388 132.973 10.6944 133.223 11.25C133.779 12.5 134.348 13.7499 134.987 14.9722C135.098 15.1944 135.223 15.4166 135.348 15.6388C135.418 15.75 135.487 15.8888 135.598 15.9583C135.709 16.0138 135.793 15.8749 135.695 15.8055Z" fill="#030064"/>
<path d="M125.889 4.62489C125.945 4.77767 125.973 4.93045 126.001 5.08323C126.042 5.34712 126.07 5.611 126.098 5.87489C126.181 6.63878 126.237 7.41656 126.278 8.19434C126.389 9.87489 126.473 11.5554 126.57 13.236C126.598 13.7221 126.598 14.2221 126.681 14.7082C126.695 14.8193 126.862 14.7777 126.848 14.6666C126.778 14.2916 126.778 13.8332 126.751 13.4443C126.709 12.6804 126.667 11.9166 126.626 11.1527C126.528 9.47211 126.445 7.77767 126.292 6.09711C126.264 5.77767 126.223 5.45823 126.181 5.13878C126.153 4.95823 126.139 4.76378 126.056 4.59712C126.014 4.486 125.848 4.52767 125.889 4.62489Z" fill="#030064"/>
<path d="M136.668 3.56944C136.418 4.31944 136.14 5.05556 135.862 5.79167C135.501 6.75 135.126 7.72222 134.682 8.65278C134.557 8.93055 134.418 9.29167 134.182 9.5C134.098 9.56944 134.223 9.69444 134.307 9.625C134.501 9.44444 134.626 9.16666 134.751 8.93055C134.96 8.51389 135.14 8.08333 135.321 7.65278C135.737 6.66667 136.112 5.66667 136.473 4.66667C136.598 4.31944 136.723 3.98611 136.835 3.63889C136.876 3.5 136.71 3.45833 136.668 3.56944Z" fill="#030064"/>
<path d="M136.556 3.22211C136.417 3.47211 136.334 3.76378 136.236 4.04156C136.084 4.51378 135.945 4.986 135.806 5.45822C135.5 6.49989 135.223 7.55545 134.945 8.611C134.848 8.97211 134.764 9.31934 134.681 9.68045C134.653 9.79156 134.82 9.83322 134.848 9.72211C135.028 8.94434 135.236 8.16656 135.445 7.40267C135.723 6.361 136 5.31934 136.334 4.29156C136.431 3.97211 136.528 3.611 136.695 3.31934C136.764 3.20822 136.611 3.12489 136.556 3.22211Z" fill="#030064"/>
<path d="M129.25 15.0832C130.153 13.0276 131.098 10.9859 132.25 9.05538C132.306 8.95816 132.153 8.87483 132.098 8.97205C130.945 10.9026 130 12.9443 129.098 14.9998C129.056 15.097 129.195 15.1804 129.25 15.0832Z" fill="#030064"/>
<path d="M125.043 13.9447L124.279 12.3891C123.599 11.0141 122.988 9.61133 122.432 8.19466L120.779 3.93077C120.529 3.37521 120.724 3.23633 120.238 3.23633C119.946 3.23633 118.515 3.29188 118.279 3.43077C117.904 3.66688 118.168 3.88911 118.238 4.30577C118.265 4.43077 118.293 4.55577 118.349 4.69466L116.501 9.18077C116.029 10.3197 115.293 11.7502 114.404 13.4724C114.057 14.153 114.002 14.4169 114.043 14.4586C114.321 14.7086 114.474 14.8474 114.779 14.9863C115.21 15.1808 115.182 15.1669 115.488 15.2224C116.071 15.3197 115.988 15.0697 116.377 14.8613C118.14 13.9585 119.835 13.2224 121.349 12.8335C121.849 14.0697 122.154 14.8336 122.293 15.0974C122.613 15.7224 123.029 16.028 123.515 16.028C123.918 16.028 123.96 16.0141 124.418 15.8891C125.835 15.5141 125.946 15.7224 125.043 13.9447ZM120.668 11.0558C119.724 11.2086 118.807 11.4308 117.918 11.7085C118.557 10.153 119.085 8.84744 119.488 7.84744C119.863 8.90299 120.251 9.97244 120.668 11.0558Z" fill="#030064"/>
<path d="M118.764 5.20865C118.597 4.97254 118.486 4.69476 118.389 4.41698C118.264 4.05587 118.166 3.69476 118.111 3.31976C118.097 3.20865 117.93 3.25031 117.944 3.36143C118 3.75031 118.097 4.12531 118.236 4.48642C118.333 4.7642 118.458 5.04198 118.625 5.29198C118.68 5.3892 118.819 5.29198 118.764 5.20865Z" fill="#030064"/>
<path d="M121.709 12.9305C120 13.4028 118.264 13.9305 116.653 14.6944C116.389 14.8194 116.125 14.9583 115.875 15.1111C115.778 15.1666 115.861 15.3194 115.959 15.2639C116.625 14.8472 117.375 14.5416 118.125 14.2639C119.306 13.8194 120.528 13.4444 121.75 13.0972C121.861 13.0694 121.82 12.8889 121.709 12.9305Z" fill="#030064"/>
<path d="M125.083 15.736C124.792 15.8055 124.5 15.8749 124.208 15.9166C123.833 15.9721 123.458 15.9721 123.083 15.986C122.972 15.986 122.972 16.1666 123.083 16.1527C123.472 16.1527 123.861 16.1388 124.236 16.0832C124.542 16.0416 124.833 15.9721 125.139 15.9027C125.236 15.8749 125.194 15.7082 125.083 15.736Z" fill="#030064"/>
<path d="M120.626 3.12508C120.224 3.11119 119.835 3.06953 119.432 3.06953C118.946 3.05564 118.46 3.0973 117.974 3.18064C117.862 3.19452 117.904 3.36119 118.015 3.3473C118.487 3.27786 118.974 3.23619 119.46 3.25008C119.849 3.26397 120.224 3.29175 120.612 3.30564C120.737 3.30564 120.737 3.12508 120.626 3.12508Z" fill="#030064"/>
<path d="M119.625 7.25002C119.486 7.88891 119.264 8.51391 119.056 9.12502C118.792 9.91668 118.514 10.7084 118.167 11.4722C118.056 11.7222 117.945 12 117.764 12.2083C117.695 12.2917 117.806 12.4167 117.889 12.3333C118.056 12.1528 118.153 11.9167 118.25 11.7083C118.417 11.3611 118.556 11.0139 118.695 10.6528C119 9.84724 119.278 9.0278 119.542 8.20835C119.639 7.9028 119.722 7.61113 119.792 7.30557C119.82 7.19446 119.653 7.13891 119.625 7.25002Z" fill="#030064"/>
<path d="M120.612 3.36103C120.737 3.86103 120.974 4.34714 121.168 4.83325C121.557 5.77769 121.946 6.72214 122.335 7.66659C123.21 9.74992 124.085 11.8333 124.96 13.9166C125.196 14.486 125.46 15.0555 125.668 15.6388C125.71 15.7499 125.876 15.6944 125.835 15.5971C125.668 15.111 125.446 14.6388 125.251 14.1527C124.862 13.2083 124.46 12.2777 124.071 11.3333C123.196 9.24992 122.307 7.16658 121.46 5.06936C121.307 4.68047 121.154 4.30547 121.001 3.91659C120.918 3.72214 120.835 3.51381 120.779 3.30547C120.751 3.20825 120.585 3.24992 120.612 3.36103Z" fill="#030064"/>
<path d="M117.611 6.34716C117.459 6.7916 117.25 7.22216 117.056 7.65271C116.764 8.27771 116.459 8.90271 116.153 9.52771C115.542 10.7777 114.917 12.0138 114.334 13.2777C114.236 13.486 114.125 13.7083 114.042 13.9305C114 14.0416 113.931 14.1666 113.917 14.2777C113.903 14.3888 114.07 14.4305 114.084 14.3194C114.097 14.2222 114.153 14.1249 114.181 14.0416C114.264 13.861 114.347 13.6666 114.431 13.486C114.695 12.9305 114.959 12.3888 115.222 11.8333C115.861 10.5138 116.514 9.20827 117.139 7.88882C117.361 7.40271 117.611 6.90271 117.778 6.40271C117.806 6.27771 117.639 6.23605 117.611 6.34716Z" fill="#030064"/>
<path d="M113.931 14.5697C114.223 14.7503 114.528 14.917 114.848 15.0836C115.153 15.2364 115.459 15.3892 115.778 15.4864C115.89 15.5142 115.931 15.3475 115.82 15.3197C115.501 15.2364 115.195 15.0697 114.903 14.9308C114.598 14.7781 114.306 14.6114 114.015 14.4308C113.931 14.3614 113.834 14.5142 113.931 14.5697Z" fill="#030064"/>
<path d="M121.403 13.111C121.625 13.6666 121.889 14.2083 122.153 14.736C122.306 15.0694 122.473 15.3888 122.639 15.7221C122.75 15.9305 122.861 16.1388 123 16.3194C123.07 16.4027 123.195 16.2777 123.125 16.1944C122.986 16.0138 122.889 15.8055 122.778 15.5971C122.611 15.2777 122.459 14.9583 122.306 14.6388C122.056 14.111 121.792 13.5971 121.584 13.0555C121.528 12.9583 121.361 12.9999 121.403 13.111Z" fill="#030064"/>
<path d="M112.054 13.8053C111.166 13.0969 110.124 12.347 108.846 11.7358C111.221 10.0553 112.443 8.38862 112.513 6.76362C112.527 6.56917 112.513 6.38862 112.485 6.20806C112.318 5.24973 111.61 4.54139 110.374 4.08306C109.513 3.77751 108.513 3.61084 107.402 3.61084C105.763 3.61084 103.791 3.99973 102.388 4.43028C101.777 4.61084 101.902 4.86084 102.138 5.4164C102.263 5.72195 102.346 6.06917 102.582 6.22195C102.902 6.43028 102.93 6.40251 102.971 6.4164C103.027 8.76362 102.652 13.8886 102.638 14.2358C102.61 14.6525 102.568 15.2497 102.985 15.3053C103.707 15.3608 103.818 15.347 104.166 15.347C105.027 15.347 105.485 14.7775 105.554 13.6525C105.541 13.5136 105.541 13.4997 105.916 13.472C105.999 13.472 106.346 13.4303 106.429 13.4303C107.166 13.4164 106.818 13.2497 107.763 13.972C108.777 14.722 109.638 15.3886 110.332 15.9581C110.652 16.2219 110.957 16.5136 111.207 16.1803C111.457 15.8608 112.902 14.4858 112.513 14.1525C112.249 13.9581 112.429 14.0969 112.054 13.8053ZM109.11 5.83306C109.541 5.99973 109.777 6.30528 109.832 6.63862C109.943 7.30528 109.457 7.94417 108.291 8.95806C107.513 9.61084 106.61 10.1664 105.568 10.5414C105.554 9.22195 105.513 7.70806 105.429 5.93029C106.457 5.69417 107.235 5.65251 107.929 5.65251C108.374 5.6664 108.777 5.70806 109.11 5.83306Z" fill="#030064"/>
<path d="M102.86 6.5276C102.693 6.2776 102.568 5.98594 102.471 5.70816C102.346 5.34705 102.249 4.95816 102.179 4.56927C102.165 4.45816 101.999 4.49983 102.013 4.61094C102.068 5.01372 102.179 5.4026 102.304 5.7776C102.401 6.06927 102.526 6.34705 102.693 6.61094C102.763 6.70816 102.915 6.62483 102.86 6.5276Z" fill="#030064"/>
<path d="M105.333 15.2363C105.514 14.639 105.611 13.9863 105.527 13.3613C105.514 13.2502 105.347 13.2918 105.361 13.4029C105.444 14.0002 105.333 14.6251 105.166 15.1946C105.125 15.3057 105.305 15.3474 105.333 15.2363Z" fill="#030064"/>
<path d="M104.832 6.15268C104.47 6.19434 104.109 6.2499 103.762 6.31935C103.443 6.38879 103.137 6.43046 102.818 6.47212C102.707 6.48601 102.707 6.65268 102.818 6.63879C103.498 6.56934 104.165 6.38879 104.845 6.31935C104.943 6.30546 104.943 6.13879 104.832 6.15268Z" fill="#030064"/>
<path d="M105.555 15.1248C105.083 15.1803 104.625 15.222 104.153 15.222C103.722 15.222 103.278 15.1803 102.847 15.1526C102.736 15.1387 102.736 15.3192 102.847 15.3192C103.278 15.347 103.722 15.3887 104.153 15.3887C104.625 15.3887 105.083 15.347 105.555 15.2915C105.666 15.2915 105.666 15.1109 105.555 15.1248Z" fill="#030064"/>
<path d="M112.874 14.4858C112.694 14.7497 112.499 14.9997 112.291 15.2358C111.93 15.6525 111.555 16.0553 111.166 16.4303C111.083 16.5136 111.208 16.6247 111.291 16.5553C111.694 16.1664 112.069 15.7636 112.43 15.347C112.638 15.097 112.847 14.847 113.027 14.5831C113.083 14.4858 112.93 14.4025 112.874 14.4858Z" fill="#030064"/>
<path d="M102.958 7.06917C102.889 8.11084 102.875 9.15251 102.833 10.1942C102.792 11.5136 102.75 12.847 102.694 14.1664C102.68 14.4025 102.68 14.6386 102.667 14.8747C102.667 14.9581 102.653 15.0275 102.653 15.1108C102.653 15.1386 102.653 15.1664 102.653 15.1942C102.653 15.2081 102.639 15.2636 102.653 15.2358C102.639 15.347 102.805 15.3886 102.819 15.2775C102.861 14.9858 102.861 14.6803 102.875 14.3886C102.903 13.8053 102.917 13.2081 102.944 12.6247C102.986 11.2497 103.028 9.87473 103.083 8.51362C103.097 8.02751 103.111 7.55528 103.139 7.06917C103.139 6.95806 102.958 6.95806 102.958 7.06917Z" fill="#030064"/>
<path d="M105.484 6.02765C105.595 6.47209 105.609 6.94431 105.623 7.40265C105.665 8.12487 105.679 8.84709 105.692 9.56931C105.706 11.0693 105.706 12.5693 105.609 14.0554C105.595 14.3193 105.567 14.5971 105.526 14.861C105.512 14.9443 105.498 15.0276 105.47 15.1249C105.456 15.1665 105.429 15.236 105.429 15.2499C105.359 15.3332 105.484 15.4582 105.554 15.3749C105.623 15.2776 105.651 15.1526 105.665 15.0415C105.706 14.8332 105.734 14.611 105.748 14.3888C105.804 13.7221 105.831 13.0554 105.845 12.3888C105.887 10.8054 105.887 9.22209 105.804 7.65265C105.776 7.11098 105.762 6.54154 105.637 5.99987C105.623 5.87487 105.456 5.91654 105.484 6.02765Z" fill="#030064"/>
<path d="M113.082 14.5414C112.541 14.0692 111.999 13.6109 111.43 13.1803C110.61 12.5692 109.763 11.9997 108.916 11.4303C108.819 11.3747 108.735 11.5136 108.832 11.5831C109.666 12.1525 110.513 12.7081 111.319 13.3053C111.888 13.7359 112.43 14.1942 112.957 14.6664C113.055 14.7359 113.18 14.6247 113.082 14.5414Z" fill="#030064"/>
<path d="M111.235 16.4167C109.888 15.5139 108.61 14.5417 107.277 13.625C107.027 13.4584 106.791 13.2917 106.527 13.1389C106.43 13.0834 106.347 13.2361 106.444 13.2917C106.972 13.6111 107.472 13.9723 107.972 14.3334C108.68 14.8334 109.374 15.3334 110.083 15.8334C110.43 16.0834 110.791 16.3334 111.152 16.5695C111.235 16.625 111.333 16.4723 111.235 16.4167Z" fill="#030064"/>
<path d="M105.596 10.5834C106.485 10.2361 107.346 9.80558 108.11 9.22225C108.651 8.80558 109.179 8.33336 109.526 7.72225C109.748 7.33336 109.901 6.84725 109.707 6.4167C109.498 5.94447 108.971 5.75003 108.498 5.68058C107.429 5.50003 106.304 5.73614 105.276 6.00003C105.165 6.02781 105.221 6.19447 105.318 6.16669C106.235 5.93058 107.207 5.73614 108.165 5.80558C108.623 5.84725 109.221 5.95836 109.485 6.37503C109.721 6.73614 109.596 7.18059 109.415 7.52781C109.123 8.08336 108.651 8.54169 108.165 8.93058C107.373 9.55558 106.471 10.0278 105.526 10.3889C105.457 10.4445 105.498 10.625 105.596 10.5834Z" fill="#030064"/>
<path d="M112.513 7.77772C112.972 6.91661 112.874 5.90272 112.277 5.13883C111.402 4.02772 109.847 3.6805 108.499 3.61105C107.194 3.54161 105.874 3.72216 104.597 4.01383C104.486 4.04161 104.527 4.20828 104.638 4.1805C106.513 3.76383 108.638 3.49994 110.486 4.15272C111.458 4.49994 112.416 5.20828 112.597 6.27772C112.68 6.76383 112.583 7.26383 112.347 7.69439C112.319 7.79161 112.472 7.87494 112.513 7.77772Z" fill="#030064"/>
<path d="M97.5276 4.6527C95.7915 4.04159 93.986 3.66659 91.4582 3.45825C90.6249 3.38881 90.4999 3.47214 90.3749 3.54159C89.9304 3.7777 90.0832 5.05548 90.1804 5.22214C90.2777 5.37492 90.6804 5.47214 90.986 5.5277C91.0138 7.33325 90.6526 14.486 90.7082 15.611C91.6804 15.4721 95.3749 16.9444 99.986 12.4305C101.611 10.8055 102.014 8.41659 100.986 7.01381C100.403 6.22214 99.5971 5.38881 97.5276 4.6527ZM98.8888 9.16659C98.4443 11.0416 94.9721 13.3471 93.2499 13.0971C93.236 11.736 93.486 7.58325 93.4165 5.95825C95.1249 6.22214 96.0415 6.49992 96.9165 6.86103C98.3332 7.44436 99.111 8.24992 98.8888 9.16659Z" fill="#030064"/>
<path d="M89.9999 5.38867C90.2361 4.77756 90.3055 4.12478 90.236 3.47201C90.2222 3.36089 90.0555 3.36089 90.0694 3.47201C90.1388 4.11089 90.0694 4.74978 89.8472 5.34701C89.7916 5.45812 89.9583 5.49978 89.9999 5.38867Z" fill="#030064"/>
<path d="M101.125 7.79132C101.389 8.73577 101.417 9.72188 101.097 10.6524C100.806 11.5274 100.25 12.2913 99.5834 12.9302C98.0973 14.333 96.0834 15.1385 94.0834 15.4719C92.9723 15.6524 91.8334 15.6941 90.7223 15.4997C90.6112 15.4858 90.5695 15.6524 90.6806 15.6663C92.7362 16.0274 94.9306 15.6663 96.8473 14.8608C98.6389 14.1108 100.403 12.8469 101.167 10.9997C101.583 9.95799 101.611 8.83299 101.306 7.76354C101.264 7.63854 101.097 7.68021 101.125 7.79132Z" fill="#030064"/>
<path d="M92.7635 5.87465C92.319 5.79132 91.8607 5.73576 91.4024 5.66632C90.9301 5.58298 90.4718 5.45798 90.0274 5.26354C89.9301 5.22187 89.8329 5.36076 89.944 5.41632C90.3885 5.61076 90.8329 5.74965 91.319 5.83298C91.7913 5.91632 92.2635 5.95798 92.7218 6.05521C92.8329 6.05521 92.8746 5.88854 92.7635 5.87465Z" fill="#030064"/>
<path d="M98.9303 8.97201C98.7914 9.79145 98.0414 10.472 97.4442 10.972C96.6109 11.6526 95.6526 12.222 94.6387 12.597C94.1387 12.7776 93.6248 12.9165 93.097 12.9442C92.9859 12.9442 92.9859 13.1248 93.097 13.1109C94.1248 13.0692 95.1248 12.6387 96.0137 12.1387C96.9303 11.6248 97.8331 10.9859 98.4998 10.1526C98.7637 9.81923 99.0276 9.43034 99.097 9.01368C99.1109 8.91645 98.9442 8.8609 98.9303 8.97201Z" fill="#030064"/>
<path d="M93.2645 8.05527C93.3617 8.76361 93.3756 9.49972 93.4173 10.2081C93.4589 11.1108 93.4867 12.0275 93.445 12.9442C93.4312 13.2358 93.4312 13.5692 93.3339 13.8608C93.2923 13.9719 93.4589 14.0136 93.5006 13.9025C93.5839 13.6664 93.5978 13.3886 93.6117 13.1247C93.6395 12.6942 93.6395 12.2775 93.6395 11.8469C93.6395 10.9025 93.5978 9.97194 93.5423 9.02749C93.5145 8.68027 93.5006 8.34694 93.445 8.01361C93.4173 7.9025 93.2506 7.94416 93.2645 8.05527Z" fill="#030064"/>
<path d="M90.9158 8.97201C90.763 9.88868 90.7214 10.8192 90.6658 11.7359C90.6102 12.7359 90.5547 13.7359 90.5547 14.7359C90.5547 14.8887 90.5547 15.0553 90.5686 15.222C90.5686 15.3053 90.5686 15.3887 90.6102 15.4581C90.6658 15.5553 90.8047 15.472 90.763 15.3748C90.7769 15.4026 90.763 15.347 90.763 15.3331C90.763 15.2915 90.7491 15.2498 90.7491 15.2081C90.7491 15.0692 90.7352 14.9303 90.7352 14.7915C90.7352 14.3609 90.7491 13.9303 90.763 13.5137C90.8047 12.4581 90.8602 11.4165 90.9436 10.3609C90.9852 9.91645 91.013 9.45812 91.0963 9.01368C91.0963 8.91645 90.9297 8.8609 90.9158 8.97201Z" fill="#030064"/>
<path d="M101.527 8.59679C101.457 7.90234 101.263 7.2079 100.874 6.62457C100.499 6.04123 99.9852 5.5829 99.4019 5.22179C97.8602 4.27734 95.9852 3.94401 94.2213 3.72179C92.8602 3.55512 91.4991 3.4579 90.138 3.40234C90.0269 3.40234 90.0269 3.56901 90.138 3.56901C92.3186 3.66623 94.5269 3.80512 96.6519 4.3329C98.0825 4.68012 99.6241 5.24957 100.541 6.4579C101.013 7.0829 101.263 7.81901 101.346 8.59679C101.36 8.69401 101.541 8.7079 101.527 8.59679Z" fill="#030064"/>
<path d="M88.2213 9.83346C88.1935 7.23624 88.1657 5.47235 88.1657 4.86124C88.1102 4.45846 88.2213 4.13902 87.9991 3.95846C87.8185 3.7918 87.4435 3.77791 87.0546 3.73624C85.9852 3.61124 85.4018 3.55569 85.3324 3.9168C85.2491 4.4168 85.2352 12.1668 85.2352 12.8474C85.2491 14.264 85.2352 14.4585 85.2352 14.5557C85.2213 15.014 85.1657 15.3196 85.4852 15.5279C85.7768 15.7362 86.4157 15.7362 86.7629 15.7224C87.5963 15.6946 87.9435 15.7223 88.1518 15.1112C88.3185 14.6529 88.2491 13.5279 88.2352 12.2918L88.2213 9.83346Z" fill="#030064"/>
<path d="M85.1388 15.6252C85.0971 15.2085 85.1527 14.7641 85.1666 14.3474C85.2082 13.5279 85.2499 12.7085 85.3054 11.9029C85.4166 9.94461 85.5416 7.98627 85.5832 6.01405C85.5971 5.23627 85.6249 4.44461 85.5555 3.66683C85.5416 3.55572 85.3749 3.55572 85.3888 3.66683C85.4443 4.3335 85.4304 5.02794 85.4304 5.69461C85.4166 6.63905 85.3749 7.5835 85.3193 8.52794C85.236 10.3752 85.111 12.2363 85.0138 14.0835C84.986 14.5835 84.9166 15.1113 84.9721 15.5974C84.9721 15.7363 85.1527 15.7363 85.1388 15.6252Z" fill="#030064"/>
<path d="M88.0137 15.4306C87.4442 15.514 86.8748 15.5556 86.3053 15.5417C85.8609 15.5279 85.4164 15.4584 84.972 15.4306C84.8609 15.4167 84.8609 15.5973 84.972 15.5973C85.4303 15.6251 85.8887 15.6945 86.347 15.7084C86.9303 15.7362 87.4998 15.6806 88.0692 15.5973C88.1664 15.5834 88.1248 15.4029 88.0137 15.4306Z" fill="#030064"/>
<path d="M87.8756 3.69461C87.4451 3.69461 87.0007 3.68072 86.5701 3.65294C86.2229 3.63906 85.8757 3.59739 85.5423 3.56961C85.4312 3.55572 85.4312 3.73628 85.5423 3.73628C85.8895 3.76405 86.2229 3.79183 86.5701 3.81961C87.0007 3.84739 87.4451 3.84739 87.8756 3.86128C87.9868 3.87516 87.9868 3.7085 87.8756 3.69461Z" fill="#030064"/>
<path d="M83.1382 12.0553C83.1243 12.0553 83.1105 12.0414 83.0827 12.0414C82.7077 11.9303 82.166 11.8747 81.4577 11.8747C79.9994 11.8747 78.0271 12.2914 76.5827 12.7497V9.36082C76.4993 6.97193 76.6521 4.97193 76.6243 4.2636C76.6105 3.97193 76.6105 3.61082 76.4577 3.56915C76.291 3.49971 74.3605 3.30526 74.0827 3.73582C73.9993 3.84693 74.0271 4.31915 74.0132 4.5136C74.0132 4.68026 73.8466 12.9025 73.791 14.5414C73.791 14.708 73.8049 14.8192 73.8049 14.9025C73.7632 15.6664 74.0271 16.1386 75.3882 15.8747C75.666 15.8608 76.0688 15.6803 76.7216 15.5136C77.7493 15.2497 78.1521 15.1386 78.2632 15.0969C79.8605 14.6803 79.9438 14.6108 81.1799 14.4858C81.3188 14.4719 82.3743 14.3886 82.6799 14.4164C82.8466 14.4303 82.9716 14.4303 83.0966 14.4442C83.5966 14.4858 83.5549 12.1803 83.1382 12.0553Z" fill="#030064"/>
<path d="M76.8744 12.944C76.9021 12.5273 76.8883 12.1107 76.8744 11.7079C76.8466 11.0273 76.8188 10.3607 76.7632 9.68011C76.666 8.22178 76.541 6.76345 76.291 5.33289C76.2077 4.88844 76.1521 4.34678 75.8882 3.97178C75.8188 3.87456 75.6799 3.97178 75.7355 4.05511C75.9577 4.37456 76.0132 4.83289 76.0827 5.20789C76.2077 5.86067 76.291 6.52733 76.3744 7.194C76.5271 8.62456 76.6382 10.069 76.6938 11.5134C76.7077 11.9857 76.7355 12.4718 76.7077 12.944C76.6938 13.0551 76.8605 13.0551 76.8744 12.944Z" fill="#030064"/>
<path d="M77.0406 12.8747C77.0406 11.8608 77.0129 10.8331 76.9712 9.81918C76.9295 8.40251 76.874 6.98585 76.749 5.56918C76.7073 5.06918 76.6795 4.55529 76.5545 4.06918C76.5268 3.95807 76.3601 4.01362 76.3879 4.11085C76.499 4.52751 76.5268 4.95807 76.5684 5.37474C76.624 6.0414 76.6657 6.69418 76.7073 7.36084C76.7768 8.74973 76.8184 10.1386 76.8601 11.5275C76.874 11.972 76.874 12.4303 76.8879 12.8747C76.8601 12.9858 77.0406 12.9858 77.0406 12.8747Z" fill="#030064"/>
<path d="M74.0131 13.9857C74.0131 12.7496 74.0687 11.4996 74.0965 10.2635C74.152 8.6524 74.1937 7.0274 74.2492 5.41629C74.2631 4.81907 74.2909 4.22184 74.2909 3.63851C74.2909 3.5274 74.1242 3.5274 74.1242 3.63851C74.1104 4.9024 74.0548 6.18018 74.0131 7.44407C73.9576 9.05518 73.9159 10.6663 73.8742 12.2774C73.8604 12.8468 73.8465 13.4302 73.8465 13.9996C73.8326 14.0968 74.0131 14.0968 74.0131 13.9857Z" fill="#030064"/>
<path d="M83.3184 14.4303C83.4156 14.097 83.4712 13.7498 83.5129 13.4164C83.5823 12.9164 83.5962 12.4025 83.5129 11.9164C83.499 11.8053 83.3323 11.847 83.3462 11.9581C83.4295 12.4442 83.4018 12.9303 83.3323 13.4164C83.2907 13.7359 83.2351 14.0692 83.1379 14.3887C83.1101 14.4859 83.2768 14.5414 83.3184 14.4303Z" fill="#030064"/>
<path d="M83.0697 11.6111C81.4308 11.6944 79.8058 11.9167 78.1808 12.1389C77.8058 12.1944 77.4169 12.25 77.0419 12.3056C76.9308 12.3194 76.9725 12.4861 77.0836 12.4722C78.6947 12.1944 80.3197 12.0278 81.9447 11.875C82.3197 11.8333 82.6947 11.8056 83.0558 11.7917C83.1808 11.7778 83.1808 11.5972 83.0697 11.6111Z" fill="#030064"/>
<path d="M74.1237 3.76366C74.4709 3.66644 74.8182 3.61088 75.1654 3.56922C75.4432 3.54144 75.7348 3.49977 76.0265 3.51366C76.1376 3.51366 76.1376 3.347 76.0265 3.347C75.7348 3.33311 75.4293 3.37477 75.1376 3.40255C74.7765 3.44422 74.4154 3.49977 74.0682 3.597C73.9709 3.62477 74.0126 3.79144 74.1237 3.76366Z" fill="#030064"/>
<path d="M83.6378 12.0691C83.5684 11.9163 83.2767 11.9025 83.1378 11.8886C82.7628 11.833 82.3879 11.833 82.0129 11.833C80.9156 11.833 79.8323 11.9163 78.749 12.0552C78.1656 12.1247 77.5684 12.2219 76.999 12.3608C76.8878 12.3886 76.9295 12.5552 77.0406 12.5275C78.0545 12.2913 79.0962 12.1663 80.124 12.083C81.0406 12.0136 81.9573 11.958 82.874 12.0275C83.0267 12.0413 83.1656 12.0552 83.3184 12.083C83.3601 12.0969 83.4017 12.0969 83.4434 12.1247C83.4851 12.1386 83.4851 12.1525 83.4851 12.1525C83.5406 12.2636 83.6795 12.1802 83.6378 12.0691Z" fill="#030064"/>
<path d="M72.9449 14.8333C72.9171 14.7083 72.8893 14.5971 72.8477 14.4999L72.0421 12.861C71.3338 11.4166 70.681 9.93048 70.0977 8.44437L68.3615 3.95826C68.3338 3.87492 68.0143 3.59715 67.6254 3.36103C67.431 3.24992 67.4449 3.24992 67.0282 3.34715C66.7088 3.41659 66.2643 3.56937 65.6254 3.83326C65.5421 4.01381 65.6532 4.13881 65.6949 4.37492C65.7227 4.49992 65.7504 4.63881 65.806 4.7777L63.8615 9.48603C63.3615 10.6805 62.6254 12.1944 61.6532 13.9999C61.5282 14.2221 61.4727 14.4305 61.4727 14.6388C61.7227 15.1388 63.181 15.8055 63.3893 15.6388C63.5421 15.5277 63.8754 15.236 64.0838 14.861C65.7365 14.236 67.3754 13.7221 68.9727 13.3194C69.5004 14.6388 69.8199 15.4166 69.9588 15.7083C70.0977 15.9721 70.2504 16.1805 70.4171 16.3333C70.7504 16.4721 72.1532 16.3194 72.7088 15.8471C72.931 15.5416 73.0143 15.1944 72.9449 14.8333ZM65.3477 12.1388C66.0282 10.4999 66.5699 9.13881 66.9865 8.08326C67.3893 9.19437 67.806 10.3194 68.2365 11.4583C67.2504 11.611 66.2782 11.8471 65.3477 12.1388Z" fill="#030064"/>
<path d="M68.2215 12.0556C68.1521 11.6667 68.0132 11.2778 67.8882 10.8889C67.6938 10.2501 67.4854 9.62505 67.2771 9.00005C66.8326 7.66672 66.3743 6.33339 65.9576 5.00006C65.8743 4.75006 65.8049 4.51395 65.7354 4.26395C65.6938 4.13895 65.6521 3.95839 65.6382 3.86117C65.6243 3.75005 65.4576 3.75005 65.4715 3.86117C65.4993 4.18061 65.6382 4.50006 65.7354 4.8195C65.916 5.41672 66.1243 6.01395 66.3188 6.61117C66.7771 7.98617 67.2354 9.34728 67.6799 10.7223C67.8188 11.1806 67.9854 11.6389 68.0826 12.1112C68.0687 12.2223 68.2354 12.1667 68.2215 12.0556Z" fill="#030064"/>
<path d="M61.3745 14.6111C61.5828 14.1111 61.8189 13.6249 62.055 13.1527C62.43 12.3611 62.8189 11.5833 63.1939 10.7916C63.9717 9.19439 64.7634 7.59717 65.4717 5.97217C65.5967 5.69439 65.7217 5.41661 65.8328 5.12494C65.8884 4.98605 65.9717 4.83328 65.9578 4.6805C65.9578 4.56939 65.7772 4.56939 65.7911 4.6805C65.7911 4.76383 65.7217 4.9305 65.68 5.02772C65.5828 5.27772 65.4856 5.51383 65.3745 5.74994C65.055 6.47217 64.7217 7.1805 64.3884 7.88883C63.5967 9.5555 62.7911 11.1944 61.9856 12.8611C61.7217 13.4166 61.43 13.9861 61.2078 14.5555C61.1661 14.6666 61.3328 14.7083 61.3745 14.6111Z" fill="#030064"/>
<path d="M61.3187 14.6528C61.652 14.9861 62.027 15.2778 62.4159 15.5417C62.5826 15.6528 62.7492 15.7639 62.9159 15.8472C63.0131 15.9028 63.1242 15.9722 63.2492 15.9722C63.3603 15.9722 63.3603 15.8055 63.2492 15.8055C63.2492 15.8055 63.2353 15.8055 63.2076 15.7917C63.1798 15.7917 63.1659 15.7778 63.1381 15.7639C63.0687 15.7361 63.0131 15.7083 62.9576 15.6667C62.7909 15.5694 62.6381 15.4722 62.4715 15.3611C62.0965 15.1111 61.7492 14.8194 61.4298 14.5139C61.3603 14.4444 61.2353 14.5694 61.3187 14.6528Z" fill="#030064"/>
<path d="M63.1805 15.9026C63.2499 15.986 63.3472 15.861 63.4027 15.8193C63.5 15.7221 63.5972 15.611 63.7083 15.4999C63.9583 15.2221 64.2222 14.9443 64.4583 14.6387C64.5416 14.5276 64.6388 14.4165 64.6944 14.2915C64.7361 14.1943 64.5833 14.0971 64.5416 14.2082C64.4999 14.3054 64.4305 14.3887 64.375 14.4582C64.2777 14.5832 64.1666 14.7221 64.0555 14.8471C63.8333 15.0971 63.6111 15.361 63.375 15.5971C63.3333 15.6387 63.2916 15.6804 63.2499 15.7221C63.2361 15.736 63.2222 15.7499 63.2083 15.7637C63.2083 15.7637 63.1944 15.7637 63.1944 15.7776C63.2083 15.7499 63.2916 15.7637 63.3055 15.7776C63.2361 15.6943 63.1111 15.8193 63.1805 15.9026Z" fill="#030064"/>
<path d="M71.2625 11.4026C71.1653 11.0138 71.0403 10.6249 70.9153 10.236C70.7069 9.59709 70.4986 8.9582 70.2764 8.3332C69.8042 6.9582 69.3042 5.5832 68.7069 4.24987C68.5125 3.81931 68.3181 3.31931 67.9847 2.98598C67.9014 2.90264 67.7903 3.02764 67.8597 3.11098C68.1375 3.38875 68.3042 3.80542 68.4708 4.16653C68.7625 4.77764 69.0125 5.40264 69.2486 6.02764C69.7625 7.37487 70.2486 8.73598 70.6792 10.111C70.8181 10.5554 70.9708 10.9999 71.0819 11.4582C71.1236 11.5693 71.2903 11.5138 71.2625 11.4026Z" fill="#030064"/>
<path d="M66.1377 5.12489C66.1238 5.08323 66.1238 5.04156 66.1099 4.9999C66.1099 4.97212 66.1099 5.01378 66.1099 4.9999V4.98601C66.1099 4.97212 66.1099 4.97212 66.1099 4.95823C66.1099 4.93045 66.1099 4.91656 66.1099 4.90267C66.1099 4.87489 66.096 4.84712 66.0822 4.81934C66.0405 4.72212 65.9988 4.61101 65.971 4.51378C65.8599 4.22212 65.7627 3.94434 65.6655 3.65267C65.6238 3.54156 65.4572 3.59712 65.4988 3.69434C65.6377 4.08323 65.7627 4.45823 65.9155 4.84712C65.9294 4.87489 65.9294 4.91656 65.9572 4.94434C65.9572 4.95823 65.9572 4.91656 65.9572 4.93045C65.9572 4.94434 65.9572 4.94434 65.9572 4.95823C65.9572 5.02767 65.971 5.111 65.9849 5.18045C65.9988 5.27767 66.1655 5.23601 66.1377 5.12489Z" fill="#030064"/>
<path d="M69.8603 8.48599C69.8603 8.27766 69.8047 8.05544 69.7631 7.8471C69.6797 7.49988 69.5825 7.15266 69.4853 6.80544C69.2353 5.94432 68.9297 5.0971 68.5825 4.27766C68.4019 3.8471 68.2075 3.41655 67.9714 2.99988C67.9158 2.90266 67.7631 2.98599 67.8186 3.08321C68.2353 3.83321 68.5547 4.62488 68.8464 5.43044C69.1242 6.18044 69.3742 6.94433 69.5547 7.7221C69.6103 7.95821 69.6797 8.2221 69.6797 8.4721C69.6936 8.5971 69.8603 8.5971 69.8603 8.48599Z" fill="#030064"/>
<path d="M68.041 3.16634C68.1104 3.05523 68.0271 2.95801 67.9021 2.95801C67.7076 2.95801 67.5132 3.05523 67.3326 3.11078C66.7076 3.33301 66.0965 3.56912 65.4715 3.77745C65.3604 3.80523 65.416 3.9719 65.5132 3.94412C66.0549 3.77745 66.5826 3.56912 67.1104 3.37467C67.3049 3.30523 67.5132 3.2219 67.7215 3.16634C67.7771 3.15245 67.8465 3.13856 67.9021 3.12467C67.9299 3.12467 67.9299 3.12467 67.9299 3.12467C67.9299 3.13856 67.8882 3.06912 67.9021 3.06912C67.9021 3.06912 67.916 3.05523 67.8882 3.06912C67.8326 3.18023 67.9715 3.26356 68.041 3.16634Z" fill="#030064"/>
<path d="M60.2361 13.0694C60.1389 12.7916 60.0417 12.4027 59.7222 11.736C59.4583 11.1944 59.4444 10.8749 59.1111 11.0138C58.7361 11.1527 58.375 11.3333 57.9861 11.5416C56.5694 12.2638 55.6667 13.0277 53.8472 12.8888C52.4583 12.7777 51.6528 11.1666 51.5 10.5972C51.2222 9.52771 51.7917 8.48605 52.5556 7.69438C53.4444 6.7916 54 6.51383 55.375 6.31938C56.1389 6.20827 56.9444 6.51383 57.7083 6.90272C58.2222 7.29161 58.4306 7.27772 58.8333 6.88883C59.0417 6.68049 59.4028 6.56938 59.4028 6.34716C59.4167 6.13883 59.2639 5.73605 58.8056 5.26383C58.1944 4.63883 57.8611 4.40271 57.3889 4.20827C57.1111 4.08327 56.6111 3.94438 56.2917 3.90272C55.4722 3.79161 53.6389 3.59716 51.7639 4.93049C49.8333 6.2916 48.7917 7.98605 48.7222 10.0555C48.7083 10.5694 48.7361 11.0416 48.8056 11.4722C48.9861 12.5138 49.4444 13.4583 50.1528 14.2916C51.2083 15.5277 52.5833 16.1666 54.2222 16.1666C55.5972 16.1666 56.9583 15.5972 58.4583 14.7083C60.5833 13.4722 60.5 13.8472 60.2361 13.0694Z" fill="#030064"/>
<path d="M59.2501 6.31944C59.0001 6.68055 58.6807 6.99999 58.3196 7.26388C58.2779 7.29166 58.264 7.33333 58.2918 7.38888C58.3196 7.43055 58.3751 7.44444 58.4168 7.41666C58.7918 7.13888 59.139 6.79166 59.4029 6.40277C59.4585 6.31944 59.3057 6.22221 59.2501 6.31944Z" fill="#030064"/>
<path d="M56.8887 4.34723C57.5137 4.52779 58.0831 4.93057 58.5692 5.37501C58.7637 5.55557 58.9581 5.75001 59.1109 5.97223C59.1664 6.04168 59.2081 6.12501 59.2498 6.20835C59.2637 6.23612 59.2637 6.2639 59.2776 6.27779C59.2776 6.30557 59.2776 6.31946 59.2776 6.30557C59.2081 6.3889 59.3331 6.5139 59.4025 6.43057C59.5831 6.19445 59.222 5.80557 59.0831 5.6389C58.722 5.22223 58.2914 4.86112 57.8192 4.56946C57.5414 4.40279 57.2637 4.2639 56.9442 4.16668C56.8192 4.1389 56.7776 4.30557 56.8887 4.34723Z" fill="#030064"/>
<path d="M60.1248 13.5553C60.0137 13.6803 59.8609 13.7636 59.7081 13.8609C59.472 14.0136 59.222 14.1386 58.9859 14.2775C58.472 14.5553 57.9442 14.8192 57.4164 15.0831C57.2498 15.1664 57.0831 15.2498 56.9303 15.3053C56.8331 15.347 56.8748 15.5136 56.972 15.472C57.3748 15.3192 57.7498 15.1109 58.1248 14.9164C58.6665 14.6386 59.2081 14.3609 59.7359 14.0414C59.9026 13.9303 60.1109 13.8331 60.2359 13.6803C60.3192 13.597 60.1942 13.472 60.1248 13.5553Z" fill="#030064"/>
<path d="M59.3047 11.3331C59.5547 11.6942 59.6936 12.1525 59.8325 12.5553C59.9019 12.7775 59.9853 12.9997 60.0408 13.2358C60.0547 13.3192 60.0825 13.4025 60.0964 13.4858C60.0964 13.5136 60.0964 13.5275 60.1103 13.5553C60.1103 13.5692 60.1103 13.5831 60.1103 13.5831C60.1103 13.5969 60.1103 13.5692 60.1103 13.5969C60.0825 13.7081 60.2492 13.7497 60.2769 13.6386C60.3186 13.5136 60.263 13.3469 60.2353 13.2219C60.1797 12.9858 60.1103 12.7636 60.0269 12.5275C59.9436 12.2775 59.8464 12.0275 59.7492 11.7914C59.6658 11.5969 59.5825 11.4025 59.4714 11.2358C59.388 11.1664 59.2353 11.2497 59.3047 11.3331Z" fill="#030064"/>
<path d="M58.1937 7.19435C56.2215 6.11102 53.416 6.22213 51.9437 8.11102C51.5687 8.59713 51.3187 9.18046 51.2215 9.79157C51.2076 9.90268 51.3743 9.94435 51.3882 9.83324C51.5549 8.79157 52.166 7.88879 53.0549 7.33324C53.9715 6.76379 55.0965 6.56935 56.166 6.70824C56.8465 6.79157 57.4854 7.0138 58.0826 7.34713C58.2076 7.40268 58.3049 7.24991 58.1937 7.19435Z" fill="#030064"/>
<path d="M51.209 9.44417C51.2507 10.6664 51.6118 12.0414 52.7923 12.6247C53.6812 13.0692 54.7507 12.972 55.6673 12.6942C56.1257 12.5553 56.5701 12.3747 56.9729 12.1247C57.0701 12.0692 56.9868 11.9164 56.8895 11.972C55.459 12.847 53.0423 13.3053 51.9729 11.6664C51.5423 11.0136 51.4173 10.2081 51.3895 9.44417C51.3895 9.33306 51.209 9.33306 51.209 9.44417Z" fill="#030064"/>
<path fill-rule="evenodd" clip-rule="evenodd" d="M48.3613 14.153C48.212 13.944 48.0989 13.7912 47.9507 13.5911L47.9507 13.5911L47.9504 13.5908L47.9503 13.5906L47.9502 13.5904L47.9499 13.59C47.8224 13.4179 47.669 13.2108 47.4446 12.903C46.5557 11.7224 45.7779 10.6391 45.1252 9.66687C47.1788 6.26908 47.5594 5.40307 47.6663 5.15987C47.6787 5.13168 47.6874 5.11186 47.6946 5.09743C47.7363 5.0141 47.9585 4.52799 47.8474 4.47243C47.7643 4.42257 47.7085 4.38763 47.6582 4.35607C47.5402 4.28215 47.452 4.22682 47.1113 4.04187C46.8196 3.87521 46.3613 3.6391 45.9863 3.5141C45.6554 3.3967 45.6526 3.40231 45.4674 3.77037L45.4674 3.77038C45.4116 3.88132 45.3392 4.02518 45.2363 4.20854C45.2083 4.25841 45.1802 4.30785 45.1522 4.35686L44.6529 5.05577C44.5565 5.19481 44.46 5.33443 44.3633 5.47439L44.3633 5.47439L44.3633 5.4744L44.3633 5.4744L44.3633 5.4744L44.3632 5.47444L44.3632 5.47444L44.3632 5.47447C43.9959 6.00611 43.6251 6.54269 43.2379 7.07124C42.3184 5.84505 41.5262 4.88732 40.8613 4.22243C40.8196 4.18076 40.7918 4.15299 40.7502 4.12521C40.4287 3.80376 38.9526 4.99404 38.7793 5.51415C38.7601 5.53247 38.7411 5.55097 38.7224 5.56966C38.6581 5.63396 38.7178 5.71479 38.7867 5.71647C38.8332 5.88019 38.9108 6.04236 39.0279 6.19465C39.983 7.45065 40.8149 8.62037 41.5002 9.669C41.2578 10.1885 40.9238 10.6664 40.5912 11.1424L40.5912 11.1424L40.5912 11.1424L40.5911 11.1424L40.5911 11.1424L40.5911 11.1424L40.5911 11.1425L40.5911 11.1425C40.5046 11.2662 40.4182 11.3899 40.3335 11.5141C40.1995 11.7131 40.0635 11.9111 39.9273 12.1092L39.9273 12.1093L39.9272 12.1093C39.8321 12.2476 39.737 12.386 39.6426 12.5248C39.5746 12.6139 39.5133 12.6937 39.4585 12.7641C39.4301 12.8031 39.3963 12.8476 39.3594 12.8961C39.185 13.1254 38.9426 13.444 38.8868 13.6987C38.8613 13.7439 38.8335 13.7902 38.8051 13.8375C38.6946 14.022 38.5748 14.222 38.5418 14.4308C38.5279 14.5419 38.6946 14.5835 38.7085 14.4724C38.7116 14.4477 38.7162 14.4229 38.7222 14.3982C39.0696 14.6682 39.4178 14.9364 39.7779 15.1808L39.8363 15.2214C40.1379 15.4315 40.4518 15.6501 40.7779 15.8197C40.8295 15.8491 40.8811 15.8199 40.9016 15.7778C40.9659 15.7988 41.0312 15.8174 41.0974 15.8335C41.2085 15.8613 41.2502 15.6946 41.1391 15.6669C40.6391 15.5419 40.2085 15.278 39.8335 14.9169C39.7409 14.8243 39.6607 14.7317 39.5804 14.6391C39.5465 14.5999 39.5125 14.5608 39.4776 14.5216L39.4863 14.528C39.7369 14.7301 40.058 14.9463 40.3676 15.1547C40.5899 15.3044 40.8063 15.45 40.9863 15.5835C41.2503 15.7842 41.5223 15.3506 41.7901 14.9236C41.8746 14.789 41.9586 14.6551 42.0418 14.5419C42.5002 13.8891 43.0279 13.0835 43.4168 12.4863L46.0002 16.0974C46.1537 16.2816 46.2638 16.381 46.3646 16.4233C46.3495 16.4841 46.3904 16.5572 46.4585 16.528C46.8335 16.3891 47.2224 16.2363 47.5835 16.0558C47.7696 15.9731 47.9591 15.8835 48.1419 15.782C48.2201 15.7027 48.2641 15.6268 48.2641 15.5558C48.2779 15.2502 47.9168 14.2086 47.9168 14.2086L48.4724 15.4586C48.4886 15.4909 48.5015 15.5215 48.5109 15.5506C48.5644 15.5123 48.6165 15.4724 48.6668 15.4308C48.6794 15.4218 48.6882 15.4122 48.6939 15.4023C48.8366 15.3088 48.9122 15.23 48.9304 15.1396C48.9614 14.9855 48.8256 14.7977 48.5712 14.4461L48.5711 14.446L48.5709 14.4457C48.508 14.3588 48.4379 14.2619 48.3613 14.153ZM39.122 14.1967C39.0934 14.1638 39.0675 14.1323 39.0424 14.1016C39.0153 14.0684 38.9889 14.0362 38.9606 14.0042C39.3111 13.4127 39.8568 12.6567 40.4248 11.8697L40.4248 11.8696C40.8453 11.2871 41.278 10.6876 41.6529 10.1252C40.8891 10.8891 39.4724 12.903 38.9724 13.6808C38.8891 13.8197 38.8196 13.9724 38.7641 14.1252C38.7502 14.1669 38.7363 14.2224 38.7502 14.2641L38.7918 14.3058C38.7998 14.2905 38.808 14.275 38.8163 14.2594C39.0222 14.4251 39.2285 14.5826 39.4373 14.7344C39.4071 14.6982 39.3773 14.6617 39.3475 14.6253L39.3475 14.6253L39.3474 14.6252C39.3276 14.6021 39.3078 14.5783 39.2879 14.5542L39.2878 14.5541C39.2237 14.4767 39.1576 14.3971 39.0835 14.3335C39.0255 14.2852 39.0617 14.2099 39.122 14.1967ZM41.602 9.8255L41.6115 9.84022C41.5892 9.87153 41.567 9.90287 41.5449 9.93426C41.5644 9.89819 41.5834 9.86194 41.602 9.8255ZM44.1791 6.1665C43.9075 6.58339 43.6298 7.00946 43.278 7.36133C43.1946 7.44466 43.0696 7.31966 43.153 7.25022C43.3891 7.00023 43.5835 6.72246 43.7779 6.44469L43.778 6.44466C43.9367 6.21176 44.0915 5.97685 44.2461 5.74223L44.2461 5.74222C44.4971 5.3612 44.7476 4.98094 45.0141 4.61133L45.0764 4.52779L45.0764 4.52779C45.2229 4.33096 45.3733 4.12878 45.5557 3.95855C45.6669 3.84744 45.8196 3.70855 46.0002 3.72244C46.1113 3.72244 46.1113 3.8891 46.0002 3.8891C45.8269 3.8891 45.6647 4.0765 45.5528 4.20578L45.5528 4.20583L45.5527 4.20598C45.539 4.22174 45.5261 4.23663 45.5141 4.25022C45.1469 4.66332 44.846 5.13331 44.5489 5.59752C44.4864 5.69517 44.424 5.79255 44.3613 5.8891C44.3004 5.98043 44.24 6.07315 44.1793 6.16632L44.1792 6.16646L44.1791 6.1665Z" fill="#030064"/>
<path fill-rule="evenodd" clip-rule="evenodd" d="M35.8741 3.31962C35.8817 3.33601 35.8892 3.3525 35.8965 3.36911C35.6538 3.26402 35.3607 3.23151 35.0963 3.20851C34.5546 3.16685 34.013 3.18073 33.4713 3.20851C32.0546 3.29185 30.638 3.52796 29.263 3.90296C28.7017 4.0533 28.1477 4.23256 27.6113 4.44598C27.1861 4.54929 26.9774 4.63509 26.9081 4.78523C26.8334 4.94698 26.9204 5.18341 27.0726 5.59686L27.0726 5.59687L27.0726 5.59691C27.1095 5.69727 27.1503 5.80806 27.1935 5.93074C27.2137 5.99146 27.2405 6.09149 27.2659 6.18628L27.2659 6.18629L27.2659 6.1863L27.2659 6.1863L27.2659 6.1863L27.2659 6.18631C27.2928 6.28667 27.3181 6.38114 27.3324 6.41685C27.5162 6.95605 27.5811 6.95463 27.9373 6.94682L27.9889 6.94575C27.8838 7.53952 27.8617 8.1568 27.8401 8.76006L27.8324 8.97241C27.7911 9.82669 27.7771 10.6946 27.7633 11.5491L27.763 11.5696V11.5698C27.763 11.801 27.763 12.0322 27.7536 12.2541C27.903 11.9233 27.9578 11.5521 27.9991 11.1946C28.0381 10.8627 28.06 10.5291 28.0714 10.195C28.0704 10.2136 28.0695 10.232 28.0685 10.2502C28.0587 10.4553 28.0146 10.8733 27.941 11.4945C27.9431 11.3807 27.9448 11.2668 27.9466 11.153C27.9497 10.9539 27.9528 10.7548 27.9574 10.5557C27.9629 10.3783 27.9678 10.2014 27.9727 10.0247L27.9727 10.0247L27.9727 10.0246C27.9923 9.32059 28.0117 8.62177 28.0645 7.91475C28.0618 7.7035 28.0602 7.49319 28.0685 7.27795C28.0742 7.24403 28.0752 7.20321 28.0764 7.15922C28.078 7.09516 28.0798 7.02439 28.0963 6.95851H28.2769C28.2717 6.97402 28.2684 6.99146 28.265 7.0101C28.2591 7.04154 28.2526 7.07642 28.2352 7.11129C28.2213 7.27796 28.2213 7.43073 28.2213 7.58351C28.2213 7.90595 28.2271 8.23034 28.233 8.55521C28.2428 9.09795 28.2526 9.64206 28.2352 10.1807C28.2213 10.6252 28.1935 11.0696 28.1241 11.5141C28.0865 11.7771 27.9473 11.9836 27.7981 12.205C27.7831 12.2272 27.768 12.2497 27.7528 12.2723C27.7517 12.2975 27.7505 12.3225 27.7491 12.3474C27.7491 12.4009 27.7877 12.4287 27.8278 12.4306C27.7334 13.2874 27.6801 14.0094 27.7074 14.5835V14.6669C27.7074 14.7409 27.7136 14.8027 27.7177 14.8438C27.7197 14.8644 27.7213 14.8798 27.7213 14.8891C27.7308 14.978 27.7323 15.0712 27.7339 15.1631C27.739 15.4735 27.7439 15.7692 28.0546 15.8335C28.4574 15.9169 28.9296 15.9724 29.2629 15.9724C29.3509 15.9724 29.4347 15.9661 29.5145 15.954C29.9087 15.9779 30.3227 15.9196 30.7074 15.8613C31.1281 15.8035 31.5439 15.7311 31.9577 15.6469C32.4672 15.6188 33.002 15.5754 33.5546 15.4863C35.1796 15.2224 36.9574 14.5835 36.9574 14.5835C37.0994 14.5272 37.2238 14.4811 37.3317 14.4411L37.3318 14.4411C37.8894 14.2345 38.0092 14.1901 37.8463 13.7363C37.7907 13.5835 37.7213 13.3613 37.6241 13.0419L37.5795 12.8913C37.3833 12.227 37.0919 11.2404 36.8602 11.2918C36.8316 11.2918 36.6003 11.3834 36.2965 11.5036C36.1575 11.5587 36.0032 11.6197 35.8463 11.6807C35.0824 11.9724 34.3741 12.2085 33.3324 12.3891C33.2176 12.4055 33.1 12.4235 32.9782 12.4421C32.378 12.5339 31.6749 12.6414 30.6935 12.653C30.7074 11.8198 30.7074 11.1533 30.7074 10.6672V10.6668C32.6935 10.5002 33.7768 10.1391 34.7768 9.77796C35.0546 9.68074 35.4435 9.52796 35.4296 9.33352C35.4144 9.26101 35.3309 9.07108 35.2134 8.83487C35.0806 8.48871 34.9357 8.14375 34.7491 7.81962C34.6102 7.58351 34.3741 7.20851 34.0407 7.27796C33.9964 7.29459 33.9764 7.33114 33.9754 7.36729L33.9697 7.36943C33.9577 7.36806 33.9443 7.36969 33.9296 7.37518C33.2848 7.59012 32.6263 7.75487 31.9698 7.91911L31.9698 7.91912C31.5229 8.03093 31.0769 8.14251 30.6368 8.26953C30.6094 7.42514 30.582 6.74316 30.5546 6.25018C31.5654 6.02556 32.5426 5.92427 33.4962 5.82543C33.604 5.81426 33.7114 5.80313 33.8185 5.79185C34.733 5.69486 35.3848 5.81903 35.6775 5.87478L35.6796 5.87518L35.7177 5.88213C35.8445 5.90528 35.9079 5.91685 35.9713 5.91685C35.9783 5.91766 35.9851 5.91821 35.9919 5.91851C35.9596 6.00997 36.0993 6.09147 36.1519 5.98629C36.1593 5.97111 36.1666 5.95587 36.1738 5.94057C36.2082 5.99742 36.3111 6.00202 36.3324 5.91685C36.3635 5.81323 36.3714 5.69416 36.3792 5.57693L36.3792 5.5769V5.57688C36.3818 5.53698 36.3844 5.4973 36.388 5.45851C36.3912 5.4028 36.393 5.34632 36.3935 5.28943C36.528 4.67017 36.4752 4.01084 36.2352 3.43074C36.2118 3.36844 36.1492 3.35417 36.106 3.37324C36.0858 3.3224 36.0641 3.27209 36.0407 3.2224C35.9713 3.12518 35.8324 3.2224 35.8741 3.31962ZM28.0798 9.84275C28.0798 9.74267 28.0804 9.64248 28.082 9.54235C28.0819 9.64247 28.0812 9.74261 28.0798 9.84275ZM34.8676 3.37603C35.0857 3.3847 35.3393 3.39479 35.5721 3.44955L35.4773 3.44788C35.4225 3.44696 35.3649 3.446 35.3046 3.44463C33.1976 3.37666 31.5163 3.64131 29.167 4.10836C29.8217 3.9279 30.4883 3.78628 31.1518 3.66684C32.3602 3.45851 33.6241 3.30573 34.8463 3.37518L34.8676 3.37603ZM30.0059 15.7872C30.2253 15.7726 30.4446 15.7414 30.6572 15.7072C30.4544 15.7183 30.258 15.7318 30.0685 15.7502C30.048 15.763 30.0271 15.7753 30.0059 15.7872Z" fill="#030064"/>
<path d="M20.4842 16.4441C20.4425 16.4163 20.4008 16.4024 20.3453 16.4163C19.3036 14.8746 17.9703 13.4163 16.6925 11.9996L16.4842 11.7635C16.4842 11.7357 16.4703 11.708 16.4564 11.6941C16.4286 11.6663 16.4008 11.6524 16.373 11.6385L16.3314 11.5969C16.3175 11.583 16.3175 11.583 16.3036 11.5691C16.2619 11.4857 16.1647 11.4302 16.0675 11.4857C15.6786 11.6802 15.3175 11.9719 14.9703 12.2496C14.5119 12.6107 14.0536 12.9719 13.623 13.3746C13.4425 13.5413 13.2758 13.708 13.1369 13.8885C13.0675 13.9857 13.123 14.0691 13.2064 14.1107C12.9008 14.4163 12.5953 14.7219 12.2897 15.0413C12.2619 15.0691 12.248 15.1107 12.248 15.1524C12.248 15.1941 12.2758 15.2357 12.3036 15.2496L12.8453 15.6663C12.8453 15.6663 12.8453 15.6663 12.8453 15.6802C13.6092 16.4441 14.9564 17.4857 16.3869 18.6107C16.5953 18.7774 16.8175 18.9441 17.0258 19.1107C17.123 19.2219 17.2203 19.3469 17.3036 19.458C17.3453 19.5135 17.4425 19.5274 17.498 19.4857C17.5258 19.5135 17.5675 19.5413 17.5953 19.5691C17.623 19.583 17.6508 19.5969 17.6786 19.5969C17.7203 19.5969 17.7619 19.583 17.7897 19.5413C17.8036 19.5135 17.8175 19.4857 17.8175 19.458C17.8314 19.458 17.8314 19.4719 17.8453 19.4719C17.8869 19.4719 17.9286 19.458 17.9564 19.4302L20.4842 16.6663C20.5536 16.5969 20.5397 16.4996 20.4842 16.4441ZM13.2064 15.4857C13.2203 15.5135 13.2342 15.5274 13.2619 15.5552C13.5536 15.8052 13.8592 16.0552 14.1786 16.333L12.9008 15.3607C12.9008 15.3607 12.8175 15.3052 12.7758 15.2774C12.748 15.2635 12.7203 15.2357 12.6925 15.2219L12.5953 15.1385C12.6092 15.1246 12.6092 15.1246 12.623 15.1107C12.6369 15.0969 12.6369 15.0969 12.6508 15.083C12.6647 15.0691 12.6925 15.0413 12.7064 15.0274C13.1369 14.5969 13.873 13.8746 14.248 13.5135C13.8453 13.9163 13.0397 15.0969 13.2064 15.4857ZM17.5675 18.9302L16.5119 18.1246C16.0953 17.6941 15.6647 17.2774 15.2064 16.8746C15.7758 17.3052 16.2619 17.6802 16.3314 17.7496C16.8869 18.2357 16.8592 18.1524 17.2342 18.4719L17.6925 18.8052C17.6647 18.8469 17.623 18.8885 17.5675 18.9302ZM17.8453 19.1385L17.8175 19.1246C17.8592 19.0969 17.9008 19.0691 17.9425 19.0274L17.8453 19.1385Z" fill="#6965DB"/>
<path d="M1.17947 2.87495C1.20725 3.0555 1.24892 3.23606 1.27669 3.40272C1.44336 4.31939 1.61003 5.15273 1.91558 5.77773L2.04058 6.24995C2.08225 6.4305 2.15169 6.65272 2.22114 6.70828C2.92947 7.33328 4.01281 8.26383 5.17947 9.15272C5.23503 9.19439 5.30447 9.19439 5.36003 9.15272C5.36003 9.15272 5.36003 9.16661 5.37392 9.16661C5.40169 9.19439 5.42947 9.20828 5.47114 9.20828C5.5128 9.20828 5.55447 9.19439 5.58225 9.16661C7.06836 7.51384 8.17947 6.15273 8.97114 5.01384C9.02669 4.95828 9.04058 4.87495 9.04058 4.8055C9.09614 4.74995 9.1378 4.6805 9.19336 4.63883C9.24892 4.58328 9.24892 4.48606 9.19336 4.44439L9.17947 4.4305C9.17947 4.40272 9.16558 4.36106 9.13781 4.34717C8.79058 4.01383 8.54058 3.77772 8.27669 3.52772C7.81836 3.09717 7.34614 2.65272 6.34614 1.65272L6.33225 1.63884C6.31836 1.62495 6.30447 1.61106 6.27669 1.61106C5.99892 1.51384 5.42947 1.41661 4.72114 1.29161C3.66558 1.11106 2.23503 0.861057 0.943362 0.472168C0.943362 0.472168 0.860027 0.472169 0.846138 0.486058C0.832249 0.499947 0.818362 0.513836 0.804473 0.527725C0.790584 0.541614 0.776693 0.555502 0.693359 0.58328C0.707248 0.58328 0.70725 0.58328 0.721139 0.58328H0.693359C0.707248 0.666613 0.707251 0.722168 0.735029 0.81939C0.735029 0.847168 0.790583 1.06939 0.790583 1.09717L1.17947 2.87495ZM8.8878 4.51384L8.72114 4.34717C8.76281 4.40272 8.81836 4.44439 8.8878 4.51384ZM7.12392 6.84717C7.11003 6.86106 7.11003 6.86106 7.09614 6.87495C7.09614 6.86106 7.11003 6.84717 7.12392 6.84717ZM6.11003 1.84717C6.19336 1.9305 6.54058 2.26384 6.62392 2.33328C6.2628 2.16661 5.36003 1.74995 4.94336 1.61106C5.36003 1.69439 5.92947 1.77772 6.11003 1.84717ZM1.34614 1.15272C1.55447 1.51384 1.72114 2.76384 1.8878 3.98606C1.79058 3.59717 1.72114 3.20828 1.63781 2.84717C1.51281 2.20828 1.38781 1.63884 1.22114 1.13884C1.24892 1.13884 1.29058 1.13884 1.34614 1.15272ZM1.2628 0.861057C1.20725 0.861057 1.15169 0.84717 1.11003 0.84717C1.11003 0.833281 1.11003 0.81939 1.09614 0.81939C1.16558 0.81939 1.20725 0.83328 1.2628 0.861057ZM0.721139 0.972169C0.721139 0.95828 0.721139 0.95828 0.721139 0.972169V0.972169Z" fill="#6965DB"/>
<path d="M20.2625 0.666449C20.2764 0.610894 19.9847 0.360893 20.082 0.347004C20.2903 0.333115 20.2903 0.0136719 20.082 0.0136719C19.8042 0.0275608 19.5125 0.0970044 19.2486 0.138671C18.7625 0.235893 18.2625 0.333115 17.7764 0.444226C16.6792 0.680337 15.5958 0.930338 14.5125 1.222C14.1792 1.31923 13.8042 1.38867 13.4847 1.55534C13.3736 1.61089 13.3875 1.722 13.4431 1.79145C13.4153 1.80534 13.4014 1.80534 13.3736 1.81923C13.2764 1.83312 13.1931 1.847 13.0958 1.86089C13.0125 1.87478 12.9708 1.94423 12.9847 2.02756C12.9847 2.04145 12.9986 2.06923 12.9986 2.08312C12.4153 2.86089 11.7625 3.68034 11.0542 4.55534C10.3597 5.36089 9.62362 6.20812 8.88751 7.08312C6.54029 9.83311 3.88751 12.9581 0.956957 15.7081C0.901402 15.7637 0.901402 15.847 0.956957 15.9026C0.970846 15.9164 0.984737 15.9303 0.998626 15.9303C0.95696 15.972 0.915294 15.9998 0.873627 16.0414C0.845849 16.0692 0.831958 16.097 0.831958 16.1248C0.818069 16.1387 0.790292 16.1664 0.776403 16.1942C0.720848 16.2498 0.720849 16.347 0.790293 16.3887C0.845849 16.4442 0.94307 16.4442 0.984737 16.3748C0.998626 16.3609 0.998627 16.347 1.01252 16.347C1.09585 16.2637 1.23474 16.2637 1.31807 16.347C1.48474 16.5276 1.6514 16.7081 1.80418 16.8609L1.45696 16.5692C1.4014 16.5137 1.30418 16.5276 1.26251 16.5831C1.20696 16.6387 1.22085 16.7359 1.2764 16.7776L4.97085 19.8748C4.99863 19.9026 5.0264 19.9026 5.06807 19.9026C5.10974 19.9026 5.13752 19.8887 5.16529 19.8609C5.19307 19.8331 5.22085 19.8053 5.24863 19.7776C5.26252 19.7914 5.29029 19.7914 5.30418 19.7914C5.34585 19.7914 5.37362 19.7776 5.4014 19.7498C10.4014 14.722 14.4292 10.9303 19.0403 7.54145C19.082 7.51367 19.0958 7.45811 19.0958 7.41645C19.1514 7.41645 19.1931 7.37478 19.2208 7.31923C20.0681 4.72201 20.2347 2.41645 20.2903 1.27756V1.26367C20.2903 1.24978 20.3042 1.23589 20.3042 1.222C20.3181 1.19423 20.3181 1.18034 20.3181 1.18034C20.3597 1.01367 20.332 0.819227 20.2625 0.666449ZM11.3181 4.74978C11.5403 4.49978 11.7625 4.23589 11.9847 3.99978C10.5542 5.88867 8.17918 8.79145 4.81807 12.2498C7.10974 9.70812 9.41529 7.08312 11.3181 4.74978ZM3.22085 17.8887C3.23474 17.8887 3.26251 17.8887 3.26251 17.8887C3.24862 17.8887 3.23474 17.8887 3.22085 17.8887ZM4.94307 19.4859C4.92918 19.472 4.92918 19.472 4.94307 19.472C4.94307 19.472 4.94307 19.472 4.94307 19.4859ZM7.01251 17.6942C7.12362 17.5692 7.23474 17.4581 7.35974 17.3331C7.35974 17.3331 7.35974 17.347 7.37363 17.347C7.24863 17.4581 7.13751 17.5692 7.01251 17.6942ZM7.58196 17.1387C7.6514 17.0692 7.72085 16.972 7.80418 16.8887C7.80418 16.8887 7.80418 16.8887 7.81807 16.8748C8.63752 16.0276 9.48474 15.1803 10.3458 14.3192L10.3597 14.3053C10.5681 14.1387 10.8181 13.9581 11.0403 13.7914C9.9014 14.8609 8.76252 15.972 7.58196 17.1387ZM12.9708 3.23589C12.5125 3.83312 11.9986 4.62478 11.5681 5.24978C10.207 7.222 5.83196 12.0414 5.73474 12.1248C5.05418 12.7776 3.0264 14.722 1.73474 15.9442C1.70696 15.972 1.67918 15.9998 1.6514 16.0276C1.58196 15.9442 1.58196 15.8192 1.66529 15.7498C7.84585 9.93034 11.5958 5.08312 13.1097 2.95812C13.0681 3.05534 13.0403 3.13867 12.9708 3.23589ZM15.3736 6.08311C14.8181 5.76367 14.5542 5.26367 14.707 4.77756L14.7486 4.61089C14.7625 4.56923 14.7903 4.51367 14.8181 4.47201C14.9708 4.22201 15.1931 4.01367 15.4431 3.88867C15.457 3.88867 15.4708 3.88867 15.4847 3.87478C15.4708 3.847 15.4708 3.80534 15.4708 3.76367C15.4847 3.68034 15.5403 3.62478 15.6375 3.62478C15.8042 3.62478 16.3181 3.77756 16.5125 3.94423C16.5681 3.98589 16.6236 4.04145 16.6792 4.097C16.7486 4.18034 16.8597 4.31923 16.9153 4.43034C16.9431 4.44423 16.9708 4.58312 17.0125 4.65256C17.0403 4.76367 17.0681 4.88867 17.0542 4.99978C17.0403 5.01367 17.0542 5.09701 17.0403 5.09701C17.0125 5.27756 16.957 5.45811 16.8597 5.61089C16.8458 5.62478 16.8458 5.63867 16.832 5.65256C16.832 5.65256 16.832 5.65256 16.8181 5.66645C16.7486 5.77756 16.6514 5.87478 16.5542 5.94422C16.2347 6.16645 15.8736 6.23589 15.5125 6.13867C15.5125 6.13867 15.4153 6.097 15.3736 6.08311ZM19.4292 5.66645C19.3042 6.18034 19.1653 6.70812 18.9847 7.24978C18.9847 7.26367 18.9708 7.29145 18.9847 7.30534C18.957 7.30534 18.9431 7.31922 18.9153 7.33311C17.8181 8.13867 16.7486 8.98589 15.6792 9.847C16.5958 9.02756 17.5125 8.19423 18.4708 7.37478C18.7486 7.12478 18.9431 6.80534 18.9986 6.44423L19.1375 5.61089C19.1375 5.597 19.1375 5.59701 19.1375 5.58312C19.207 5.41645 19.4708 5.48589 19.4292 5.66645Z" fill="#6965DB"/>
</g>
<defs>
<clipPath id="clip0_17766_58387">
<rect width="139" height="20" fill="white" transform="translate(0.5)"/>
</clipPath>
</defs>
</svg>
