<svg xmlns="http://www.w3.org/2000/svg" xmlns:xlink="http://www.w3.org/1999/xlink" viewBox="0 0 681.26 129.61"><defs><style>.cls-1{fill:none;}.cls-2{clip-path:url(#clip-path);}.cls-3{fill:#ebff00;}</style><clipPath id="clip-path" transform="translate(0 0)"><rect class="cls-1" width="681.26" height="129.61"/></clipPath></defs><g id="Layer_2" data-name="Layer 2"><g id="Layer_1-2" data-name="Layer 1"><g class="cls-2"><path class="cls-3" d="M490.67,0c-18.19,0-28.85,10.69-35.27,22.76a1.34,1.34,0,0,1-2.33.07C445.33,10.19,432.31.94,417.88,0a10.56,10.56,0,0,0-8,3L390.21,22.23a1.31,1.31,0,0,1-1.65.55.61.61,0,0,1-.14-.07l-.06,0a1.3,1.3,0,0,1-.68-1.15V2.22a1.33,1.33,0,0,0-1.29-1H353.1a1.32,1.32,0,0,0-1.33,1.33V126.32a1.33,1.33,0,0,0,1.33,1.34h33.29a1.34,1.34,0,0,0,1.34-1.34V33.94a2.66,2.66,0,0,1,2.67-2.67h31.44a2.67,2.67,0,0,1,2.67,2.67v92.38a1.34,1.34,0,0,0,1.34,1.34h33.28a1.34,1.34,0,0,0,1.34-1.34V33.94a2.67,2.67,0,0,1,2.68-2.67h31.43a2.66,2.66,0,0,1,2.67,2.67v92.38a1.34,1.34,0,0,0,1.34,1.34h33.29a1.34,1.34,0,0,0,1.33-1.34V47.76C533.21,23.84,513.78,0,490.67,0Z" transform="translate(0 0)"/><path class="cls-3" d="M95,97.54H27.5a2.67,2.67,0,0,1-2.59-3.33L47.73,2.89a1.33,1.33,0,0,0-1.29-1.67H1.34A1.34,1.34,0,0,0,0,2.56V96.2a1.34,1.34,0,0,0,1.34,1.34h13.2a2.67,2.67,0,0,1,2.59,3.32L10.85,126a1.34,1.34,0,0,0,1.3,1.66H95a1.34,1.34,0,0,0,1.34-1.34V98.87A1.34,1.34,0,0,0,95,97.54Z" transform="translate(0 0)"/><path class="cls-3" d="M224.16,1.22H190.88a1.34,1.34,0,0,0-1.34,1.34V95a2.68,2.68,0,0,1-2.68,2.67h-43.5A2.68,2.68,0,0,1,140.68,95V2.56a1.34,1.34,0,0,0-1.34-1.34H106.06a1.34,1.34,0,0,0-1.34,1.34V80.39c0,22.62,15.77,42.35,36,47.22a46.22,46.22,0,0,0,21.06,1.33,10.5,10.5,0,0,0,5.4-2.84l19.92-19.45a1.31,1.31,0,0,1,1.65-.54l.13.06.06,0a1.29,1.29,0,0,1,.69,1.15v19.3a1.34,1.34,0,0,0,1.29,1h33.28a1.34,1.34,0,0,0,1.34-1.34V2.56a1.34,1.34,0,0,0-1.34-1.34Z" transform="translate(0 0)"/><path class="cls-3" d="M615.16.27c-48.37,0-65.91,32.31-65.91,64.62,0,32.86,17.54,64.25,65.91,64.25,48.75,0,66.1-31.58,66.1-64.25C681.26,32.76,663.91.27,615.16.27Zm0,99.72c-23.47,0-29.63-12.84-29.63-35.11,0-22.61,6.16-35.28,29.63-35.28C639,29.6,645,42.27,645,64.88,645,87.15,639,100,615.17,100Z" transform="translate(0 0)"/><path class="cls-3" d="M292.42,97.54A2.67,2.67,0,0,1,290,93.67L335.28,3.16a1.34,1.34,0,0,0-1.2-1.94h-85.6a1.33,1.33,0,0,0-1.29,1l-7.25,29v.05H283.7a2.67,2.67,0,0,1,2.4,3.86l-44.93,90.59a1.33,1.33,0,0,0,1.19,1.93h85.31a1.34,1.34,0,0,0,1.3-1l6.86-27.45a1.34,1.34,0,0,0-1.3-1.66Z" transform="translate(0 0)"/></g></g></g></svg>