<svg xmlns="http://www.w3.org/2000/svg" width="991.4" height="192.8"><path d="M320 2h-41l-2 2v138c0 2-2 4-4 4h-45c-12 0-22-10-22-22V4a2 2 0 0 0-2-2h-41a2 2 0 0 0-2 2v116c0 50 39 73 69 73 14 0 22-12 43-34h3l1 2v28a2 2 0 0 0 2 2h41a2 2 0 0 0 2-2V4a2 2 0 0 0-2-2zM141 146H41c-2 0-4-2-4-5L71 4a2 2 0 0 0-2-2H2a2 2 0 0 0-2 2v140a2 2 0 0 0 2 2h20c2 0 4 2 4 5l-10 37a2 2 0 0 0 2 3h123a2 2 0 0 0 2-2v-41a2 2 0 0 0-2-2zM893 0c-73 0-99 48-99 97s26 96 99 96c72 0 98-47 98-96 0-48-26-97-98-97zm44 114c0 18-14 32-32 32h-25c-17 0-32-14-32-32V79c0-18 15-32 32-32h25c18 0 32 14 32 32zm-428 32h-78a2 2 0 0 1-2-3L497 5a2 2 0 0 0-1-3H360a2 2 0 0 0-2 1l-10 42a2 2 0 0 0 2 2h79a2 2 0 0 1 2 3l-69 138 2 3h134a2 2 0 0 0 2-2l11-40a2 2 0 0 0-2-3zM710 0c-13 0-14 6-37 35a2 2 0 0 1-4 0c-5-8-23-35-48-35-10 0-12 6-36 33l-3 1-1-2V3a2 2 0 0 0-2-1h-41a2 2 0 0 0-2 2v185a2 2 0 0 0 2 2h41l2-2V51c0-2 2-4 4-4h21c12 0 22 10 22 22v120a2 2 0 0 0 2 2h41a2 2 0 0 0 2-2V51c0-2 2-4 4-4h21c12 0 22 10 22 22v120a2 2 0 0 0 2 2h41a2 2 0 0 0 2-2V73c0-50-32-73-55-73z" style="fill:#262626;fill-opacity:1"/></svg>