<svg width="232" height="232" viewBox="0 0 232 232" fill="none" xmlns="http://www.w3.org/2000/svg">
<g clip-path="url(#clip0_103_119727)">
<path d="M108.954 155.458C110.625 148.776 105.559 142.3 98.658 142.3H46.305C43.375 142.3 41 139.928 41 137.004V0H20C8.954 0 0 8.954 0 20V212C0 223.046 8.954 232 20 232H89.786L108.954 155.458Z" fill="#262626"/>
<path d="M150.081 142.295H232V20C232 8.954 223.046 0 212 0H172.125L139.785 129.136C138.114 135.819 143.175 142.295 150.081 142.295Z" fill="#262626"/>
<path d="M46.305 142.3H98.658C105.559 142.3 110.625 148.776 108.954 155.458L89.786 232H212C223.046 232 232 223.046 232 212V142.295H150.081C143.175 142.295 138.114 135.819 139.785 129.136L172.125 0H41V137.004C41 139.928 43.376 142.3 46.305 142.3Z" fill="#EBFF00"/>
</g>
<defs>
<clipPath id="clip0_103_119727">
<rect width="232" height="232" fill="white"/>
</clipPath>
</defs>
</svg>
