<svg viewBox="0 0 138 165" fill="none" xmlns="http://www.w3.org/2000/svg"><g clip-path="url(#a)"><path d="m11.55 6.521 114.882-.02 4.293.973 1.369 1.457.168 4.434.44 55.498-.595 3.556-1.573 2.251-4.433.734-114.808.115-3.06-1.048-2.497-2.759.721-3.003-.73-55.875 1.064-1.95.021-2.498 2.04-.472 3.437-1.008" fill="#E3E2FE"/><path d="M12.061 6.822c42.517-.332 85.113-.654 114.106 0m-114.106 0c44.606.049 88.915.018 114.106 0m-114.106 0C7.883 6.67 6.534 9.165 5.778 13.07m6.283-6.248c-3.454.646-5.415 1.355-6.283 6.248m120.389-6.248c3.423-.486 5.903 2.349 6.284 6.248m-6.284-6.248c3.67.603 7.067 1.423 6.284 6.248m0 0c-1.174 20.402-.324 40.87 0 55.71m0-55.71c.322 15.398.224 30.96 0 55.71m0 0c.428 4.795-2.496 5.927-6.284 6.247m6.284-6.248c.717 4.866-1.638 7.074-6.284 6.248m0 0c-27.612.672-55.472.188-114.106 0m114.106 0c-29.165-.576-58.4-.527-114.106 0m0 0c-3.426.569-5.816-2.704-6.283-6.248m6.283 6.248c-3.324-.404-6.219-1.706-6.283-6.248m0 0c-.34-15.249-.85-31.052 0-55.709m0 55.71c.214-12.22.465-24.702 0-55.71" stroke="#6965DB" stroke-width="2" stroke-linecap="round"/><path d="m4.818 1.617 128.861-.121 1.518.425.913 2.093-.515 4.907.073 2.435-2.376 1.068-128.85-.933-2.084.523-.8-2.734.815-5.539.063-1.968 2.082-.043" fill="#E3E2FE"/><path d="M4.486 1.953c31.255-.176 62.584-.637 128.731 0m-128.731 0c27.438-.186 54.944-.141 128.731 0m-128.731 0c-1.734.443-1.813.247-2.521 2.507m2.52-2.507c-1.935-.88-2.595.152-2.52 2.507m131.252-2.507c1.133.078 2.786.818 2.521 2.507m-2.521-2.507c1.196-.247 2.794 1.132 2.521 2.507m0 0c-.76 1.243.069 2 0 5.012m0-5.012c.35 1.41-.218 2.7 0 5.012m0 0c-.349 1.161-1.143 2.768-2.521 2.507m2.521-2.507c-.371 2.5-1.103 3.106-2.521 2.507m0 0c-33.063.421-66.11.32-128.731 0m128.731 0c-47.335-.244-94.721-.092-128.731 0m0 0c-1.357-.434-2.321-.16-2.521-2.507m2.52 2.507c-1.76-.06-2.793-.127-2.52-2.507m0 0c-.393-1.154.294-3.628 0-5.012m0 5.012a83.685 83.685 0 0 1 0-5.012" stroke="#6965DB" stroke-width="2" stroke-linecap="round"/><path d="m4.819 72.339 128.965.9.658-.17 1.569 1.123.002 5.428.135 3.008-2.517.875L4.47 82.172l-1.97-.463.118-1.738.328-5.635.463-1.708 1.514-.498" fill="#E3E2FE"/><path d="M4.785 72.706c50.976.318 102.405.498 128.731 0m-128.73 0c28.322.185 56.85-.028 128.73 0m-128.73 0c-1.727-.49-2.447 1.28-2.522 2.507m2.521-2.507c-2.148-.22-2.794 1.595-2.521 2.507m131.252-2.507c1.999-.196 3.079.185 2.522 2.507m-2.522-2.507c1.446.742 3.113 1.683 2.522 2.507m0 0c-.597 1.523.604 3.92 0 5.012m0-5.012c.015 2.296-.246 3.815 0 5.012m0 0c.597 2.072-.564 2.085-2.522 2.507m2.522-2.507c-.032 1.527-.591 2.517-2.522 2.507m0 0c-26.528.62-52.8.594-128.73 0m128.73 0c-37.61.555-74.95.318-128.73 0m0 0c-2.387-.37-2.699-.879-2.522-2.507m2.521 2.507c-.95-.166-1.736-.213-2.521-2.507m0 0c-.403-1.103-.526-2.683 0-5.012m0 5.012c-.14-1.533.212-2.513 0-5.012" stroke="#6965DB" stroke-width="2" stroke-linecap="round"/><path d="M62.287 24.268c2.167-1.127 5.572-1.601 8.166-1.568 2.592.033 5.172.717 7.391 1.77 2.217 1.052 4.31 2.727 5.917 4.547 1.606 1.82 2.867 4.002 3.723 6.372.856 2.37 1.479 5.358 1.412 7.854-.067 2.495-.733 4.852-1.81 7.118-1.079 2.27-2.785 4.698-4.659 6.492-1.873 1.795-4.243 3.464-6.582 4.276-2.338.813-5.01.746-7.451.596-2.443-.15-4.96-.535-7.2-1.496-2.238-.96-4.482-2.489-6.234-4.27-1.75-1.78-3.444-3.983-4.273-6.416-.828-2.432-.777-5.63-.695-8.179.08-2.55.189-4.88 1.184-7.117.996-2.237 2.382-4.479 4.792-6.308 2.411-1.832 7.52-3.954 9.67-4.677 2.149-.722 3.152-.011 3.227.34m16.33 6.453c1.521 1.607 1.941 4.323 2.468 6.752.526 2.429.797 5.256.695 7.828-.104 2.57-.151 5.402-1.308 7.595-1.157 2.193-3.495 3.99-5.632 5.559-2.138 1.57-4.771 3.278-7.195 3.858-2.42.58-4.88-.047-7.334-.38-2.454-.335-5.2-.466-7.395-1.62-2.195-1.151-4.273-3.373-5.775-5.3-1.502-1.93-2.513-3.87-3.236-6.268-.722-2.398-1.406-5.522-1.1-8.119.309-2.596 1.642-5.375 2.94-7.458 1.296-2.084 2.92-3.534 4.846-5.044 1.925-1.507 4.265-3.36 6.708-4.006 2.443-.646 5.435-.117 7.947.123 2.511.242 4.919.105 7.122 1.326 2.201 1.22 5.12 4.977 6.09 5.992.97 1.015.064-.006-.274.101" fill="#fff"/><path d="M78.568 25.176c2.26.828 4.224 3.18 5.756 5.139 1.53 1.96 2.62 4.272 3.43 6.617.81 2.347 1.599 5.01 1.426 7.459-.175 2.446-1.314 5.059-2.469 7.226-1.156 2.167-2.55 4.21-4.463 5.777-1.912 1.57-4.597 2.9-7.018 3.638-2.421.738-5.038 1.025-7.51.793-2.47-.233-5.108-1.057-7.32-2.185-2.21-1.129-4.327-2.687-5.945-4.589-1.618-1.901-3-4.397-3.762-6.828-.76-2.428-1.021-5.22-.801-7.75.22-2.526.991-5.316 2.118-7.415 1.128-2.099 2.779-3.655 4.644-5.178 1.866-1.52 4.092-3.089 6.551-3.954 2.46-.863 4.862-2.071 8.208-1.226 3.344.844 9.349 4.528 11.862 6.297 2.514 1.769 3.49 4.106 3.217 4.315m-4.307-5.555c2.052 1.295 3.715 3.32 4.856 5.655 1.141 2.337 1.929 5.806 1.992 8.362.06 2.558-.713 4.706-1.623 6.984-.907 2.277-2.21 4.78-3.832 6.684-1.624 1.904-3.714 3.676-5.903 4.737-2.19 1.06-4.827 1.482-7.234 1.622-2.41.143-4.846.106-7.214-.771-2.369-.877-5.127-2.806-6.999-4.489-1.87-1.685-3.216-3.38-4.22-5.615-1.005-2.236-1.659-5.217-1.806-7.8-.147-2.582.075-5.397.923-7.69.848-2.292 2.476-4.233 4.165-6.064 1.686-1.834 3.707-3.938 5.957-4.932 2.25-.996 5.131-.98 7.543-1.043 2.413-.06 4.677-.13 6.933.674 2.254.802 5.535 3.542 6.598 4.149 1.062.607-.096-.687-.222-.508" stroke="#6965DB" stroke-width="2" stroke-linecap="round"/><path fill-rule="evenodd" clip-rule="evenodd" d="m65.283 35.18-.713 12.115 1.159 2.609 1.347-.256 4.141-.922 3.586-3.328 3.389-2.02.58-1.628-.645-1.144-2.543-1.359-9.158-4.485" fill="#E3E2FE"/><path d="M66.207 35.762c.008 2.398-2.608 12.644-.644 13.712 1.964 1.068 12.365-4.861 12.424-7.302.057-2.443-10.076-6.281-12.076-7.351m-.215.675c.215 2.496-1.08 13.363.888 14.564 1.97 1.2 11.016-4.858 10.924-7.363-.093-2.503-9.45-6.57-11.478-7.664M67.325 81.178c.31 1.886 1.008 9.376 1.106 11.23m-1.665-11.777c.316 1.765 1.288 9.275 1.404 11.079" stroke="#6965DB" stroke-width="2" stroke-linecap="round"/><path d="M70.594 90.499c1.15.47 2.358 1.806 2.902 3.014.546 1.207.71 2.935.368 4.235-.34 1.299-1.238 2.847-2.412 3.56-1.176.714-3.26.892-4.638.722-1.376-.17-2.716-.9-3.627-1.745-.91-.844-1.773-2.07-1.844-3.32-.072-1.25.542-3 1.416-4.176.874-1.177 2.186-2.767 3.827-2.884 1.642-.117 4.896 1.515 6.02 2.183 1.126.67.896 1.7.73 1.828m-10.864-1.54c.747-.876 3.203-1.627 4.627-1.924 1.425-.299 2.816-.488 3.923.136 1.106.625 2.266 2.297 2.712 3.613.444 1.318.54 2.993-.043 4.285-.585 1.295-2.288 2.793-3.466 3.476-1.178.683-2.329.996-3.601.627-1.27-.369-3.119-1.785-4.03-2.837-.91-1.05-1.555-2.216-1.435-3.472.118-1.257 1.742-3.448 2.146-4.069.405-.623.17.19.283.336" fill="#E3E2FE"/><path d="M73.075 92.693c.802.973.982 2.646.766 3.927-.214 1.283-1.135 2.772-2.058 3.764-.92.994-2.252 2.033-3.475 2.197-1.226.166-2.757-.398-3.869-1.211-1.109-.81-2.417-2.374-2.796-3.653-.379-1.277.02-2.845.523-4.012.502-1.168 1.278-2.404 2.491-2.988 1.214-.583 3.207-1.427 4.784-.517 1.578.91 4.12 4.471 4.685 5.977.566 1.505-1.113 3.096-1.29 3.055m-2.152-8.003c.96.539 2.073 1.77 2.458 3.09.385 1.323.416 3.54-.147 4.835-.562 1.295-2.072 2.335-3.228 2.933-1.155.599-2.469.986-3.704.656-1.233-.328-2.947-1.455-3.7-2.628-.75-1.176-1.014-3.052-.806-4.415.208-1.363 1.101-2.759 2.056-3.762.954-1.002 2.301-2.1 3.672-2.25 1.368-.15 3.864 1.031 4.544 1.346.679.314-.313.459-.47.542" stroke="#6965DB" stroke-width="2" stroke-linecap="round"/><path fill-rule="evenodd" clip-rule="evenodd" d="m47.761 121.861 6.533 7.621 6.22 14.003 3.553 7.713-.222 2.909-.436 3.257-1.374 1.493-2.588 1.648-5.125.744-9.241.453-6.508-.178-7.348-.136-10.88-.771-4.045-1.127-2.928-1.597-1.502-1.578-.163-2.027.222-2.423 1.192-3.567 5.873-17.17 3.281-3.667 1.866-3.366 4.606-2.941 3.89-1.134 15.91 1.294" fill="#E3E2FE"/><path d="M48.838 121.363c1.382 2.072 5.527 6.229 7.624 12.613 2.098 6.385 11.937 21.464 4.959 25.696-6.98 4.229-39.55 3.596-46.833-.311-7.285-3.909.819-16.903 3.128-23.135 2.311-6.233 5.604-11.809 10.727-14.261 5.124-2.451 16.736-.432 20.016-.448m-.087-.634c1.57 2.13 6.904 7.388 9.064 13.689 2.16 6.299 11.018 20.136 3.898 24.112-7.122 3.977-39.235 3.42-46.624-.254-7.391-3.675.133-15.681 2.286-21.796 2.152-6.115 5.33-12.283 10.625-14.892 5.294-2.609 17.549-.799 21.14-.76" stroke="#6965DB" stroke-width="2" stroke-linecap="round"/><path d="M35.978 99.486c1.785-.297 4.17.519 5.964 1.189 1.797.67 3.38 1.564 4.813 2.833 1.431 1.269 3.108 3.015 3.786 4.786.677 1.771.597 3.825.277 5.84-.319 2.015-1.177 4.633-2.192 6.246-1.015 1.615-2.205 2.437-3.901 3.44-1.695 1.004-4.346 2.33-6.272 2.579-1.929.25-3.527-.376-5.29-1.083-1.766-.705-3.93-1.722-5.296-3.153-1.369-1.432-2.304-3.617-2.906-5.43-.601-1.816-.896-3.62-.707-5.458.186-1.837.834-3.983 1.834-5.57 1-1.588 2.056-2.952 4.165-3.958 2.108-1.007 6.686-1.822 8.49-2.08 1.803-.255 2.317.29 2.33.539m-7.066-.052c1.809-.568 4.228-.461 6.038-.139 1.81.324 3.213 1.041 4.825 2.076 1.61 1.033 3.87 2.335 4.836 4.125.966 1.791.874 4.548.956 6.621.081 2.072.193 4.046-.467 5.813-.66 1.767-1.973 3.6-3.487 4.788-1.516 1.187-3.558 1.858-5.602 2.335-2.045.476-4.747.935-6.667.525-1.919-.41-3.32-1.833-4.852-2.983-1.53-1.151-3.325-2.244-4.328-3.919-1.003-1.675-1.697-4.134-1.693-6.135.004-1.999.953-4.206 1.717-5.871.764-1.668 1.394-3.017 2.865-4.126 1.468-1.111 5.042-2.126 5.951-2.534.91-.408-.465-.108-.496.09" fill="#E3E2FE"/><path d="M48.279 104.604c1.347 1.339 2.152 3.756 2.59 5.625.44 1.87.51 3.817.047 5.592-.464 1.773-1.616 3.618-2.828 5.055-1.211 1.435-2.71 2.743-4.446 3.557-1.735.813-3.929 1.301-5.969 1.32-2.04.018-4.438-.5-6.276-1.206-1.84-.709-3.548-1.617-4.755-3.046-1.206-1.428-2.033-3.648-2.485-5.522-.453-1.876-.661-3.848-.227-5.735.436-1.886 1.549-4.051 2.837-5.578 1.286-1.527 3.089-2.733 4.884-3.587 1.795-.853 3.95-1.525 5.879-1.534 1.926-.012 3.801.29 5.684 1.472 1.884 1.179 4.6 4.377 5.618 5.607 1.018 1.23.692 1.777.493 1.777m-14.752-8.538c1.675-.644 3.618-.77 5.517-.324 1.9.447 4.271 1.655 5.875 3.003 1.607 1.347 2.877 3.309 3.759 5.078.884 1.771 1.66 3.694 1.541 5.538-.117 1.845-1.37 3.801-2.25 5.527-.88 1.728-1.498 3.62-3.024 4.835-1.524 1.214-4.245 2.128-6.123 2.452-1.877.324-3.263.023-5.138-.514-1.874-.535-4.523-1.525-6.11-2.7-1.584-1.175-2.587-2.687-3.402-4.35-.815-1.664-1.416-3.667-1.488-5.629-.073-1.963.22-4.388 1.05-6.143.83-1.755 2.297-3.348 3.937-4.387 1.638-1.039 4.819-1.564 5.899-1.843 1.08-.28.573-.034.581.166M24.451 127.469c1.049 1.703 4.415 8.204 5.28 9.839m-5.688-10.23c1.023 1.578 4.389 7.941 5.257 9.499M21.986 132.6c.723 1.622 3.93 7.868 4.809 9.452m-5.479-9.686c.597 1.458 4.03 7.45 5 8.936M19.963 138.373c1.247 1.71 6.376 8.632 7.572 10.296m-8.289-10.548c1.212 1.804 6.812 8.287 8.069 9.825M17.27 143.308c1.455 1.783 6.938 8.81 8.257 10.64m-8.715-10.864c1.39 1.57 6.69 8.237 8.281 9.971M15.383 149.52c1.09 1.374 5.804 7.16 6.935 8.561m-7.607-8.958c1.233 1.472 7.263 6.934 8.685 8.254" stroke="#6965DB" stroke-width="2" stroke-linecap="round"/><path fill-rule="evenodd" clip-rule="evenodd" d="m114.531 122.411 6.777 7.285 6.835 14.203 2.435 8.169-.803 2.905-.122 3.196-.157 1.34-3.941.929-3.444 1.668-10.258.107-6.873 1.099-7.198-1.032-10.694-1.822-4.648-.756-2.347-1.796-1.245-.088-.516-3.27.202-3.462.538-1.898 7.978-16.977 1.776-4.885 2.605-3.251 3.668-2.308 4.876-1.238 15.78 1.884" fill="#E3E2FE"/><path d="M115.032 121.536c1.447 2.146 7.089 6.551 9.159 13 2.067 6.449 10.35 21.515 3.255 25.695-7.094 4.181-38.63 3.484-45.823-.615-7.19-4.1.397-17.65 2.67-23.977 2.275-6.328 5.876-11.674 10.97-13.989 5.093-2.316 16.284.076 19.593.091m1.066-.755c1.39 2.243 6.205 7.884 8.039 14.282 1.834 6.401 9.981 20.219 2.965 24.116-7.016 3.897-38.1 3.243-45.065-.726-6.965-3.97 1.18-16.833 3.275-23.095 2.097-6.261 4.338-12.072 9.304-14.472 4.966-2.399 17.134-.017 20.488.074" stroke="#6965DB" stroke-width="2" stroke-linecap="round"/><path d="M103.833 99.731c1.804-.287 3.788.84 5.58 1.625 1.793.785 3.894 1.683 5.175 3.089 1.28 1.404 1.951 3.469 2.509 5.342.556 1.872 1.139 4.098.829 5.895-.311 1.794-1.432 3.411-2.687 4.879-1.256 1.468-3.11 2.966-4.846 3.924-1.738.959-3.638 1.725-5.576 1.826-1.937.104-4.305-.463-6.048-1.209-1.744-.745-3.134-1.868-4.413-3.264-1.278-1.394-2.625-3.257-3.257-5.108-.635-1.851-.957-4.176-.542-5.996.414-1.818 1.777-3.409 3.028-4.915 1.25-1.505 2.342-3.176 4.48-4.114 2.137-.935 6.483-1.446 8.34-1.505 1.858-.057 2.83.924 2.806 1.16m-8.763-.732c1.59-.906 3.564-1.3 5.425-1.014 1.86.29 4.143 1.529 5.738 2.746 1.594 1.216 2.855 2.973 3.829 4.549.974 1.576 1.783 3.02 2.012 4.905.23 1.882-.015 4.5-.632 6.398-.616 1.896-1.667 3.774-3.067 4.983-1.4 1.206-3.495 1.851-5.339 2.265-1.844.414-3.751.49-5.724.218-1.975-.273-4.37-.802-6.12-1.847-1.754-1.044-3.52-2.852-4.4-4.424-.879-1.574-.724-3.212-.877-5.01-.153-1.798-.75-4.005-.037-5.782.713-1.774 2.765-3.59 4.31-4.875 1.547-1.285 4.192-2.341 4.968-2.835.776-.494-.397-.318-.314-.125" fill="#E3E2FE"/><path d="M104.764 100.225c1.975-.099 4.304.729 6.079 1.562 1.777.834 3.456 1.904 4.576 3.441 1.121 1.536 1.818 3.879 2.15 5.775.33 1.896.312 3.847-.163 5.6-.473 1.754-1.361 3.415-2.686 4.92-1.326 1.508-3.492 3.312-5.263 4.118-1.771.809-3.397.877-5.365.727-1.967-.151-4.667-.711-6.444-1.631-1.775-.921-3.052-2.409-4.212-3.895-1.16-1.486-2.435-3.122-2.75-5.022-.313-1.902.37-4.455.867-6.379.495-1.925.887-3.737 2.107-5.162 1.22-1.427 2.821-2.847 5.211-3.399 2.388-.555 7.042-.12 9.119.08 2.078.201 3.362.937 3.344 1.122m-17.759 2.486c1.125-1.615 3.603-2.507 5.41-3.357 1.807-.847 3.629-1.72 5.426-1.733 1.796-.014 3.585.728 5.358 1.65 1.775.919 4.055 2.366 5.284 3.873 1.23 1.506 1.636 3.294 2.094 5.165.457 1.868 1.105 4.096.653 6.054-.451 1.957-2.11 4.14-3.361 5.694-1.251 1.552-2.378 2.962-4.143 3.624-1.766.664-4.527.457-6.449.351-1.92-.103-3.311-.242-5.086-.976-1.775-.734-4.253-1.978-5.565-3.432-1.311-1.453-1.857-3.511-2.305-5.292-.448-1.782-.787-3.475-.38-5.4.406-1.926 2.21-5.167 2.815-6.153.605-.986.52 0 .809.24M90.826 127.281c.836 1.499 4.237 7.999 5.207 9.622m-5.861-8.591c.98 1.544 5.81 7.624 6.841 9.161M88.277 132.191c.853 1.504 5.086 7.742 5.938 9.398m-5.201-8.334c.799 1.556 4.402 7.539 5.046 8.855M86.574 137.874c1.208 1.691 6.34 9.052 7.5 10.909m-6.634-9.911c1.147 1.494 5.059 7.529 6.26 9.087M83.617 143.513c1.569 1.825 7.399 8.376 8.942 10.096m-9.657-10.376c1.565 1.92 7.686 8.976 9.337 10.819M82.48 149.857c1.148 1.388 5.35 6.396 6.507 7.685m-7.03-8.062c1.322 1.492 6.845 7.162 8.025 8.587" stroke="#6965DB" stroke-width="2" stroke-linecap="round"/></g><defs><clipPath id="a"><path fill="#fff" d="M0 0h138v165H0z"/></clipPath></defs></svg>
