<svg xmlns="http://www.w3.org/2000/svg" width="180" height="37" viewBox="0 0 180 37"><path fill="#fff" d="m0 0h180v37H0z" /><path fill="#263238" d="M46.6 20c0 2.8.8 5 2.5 6.7 1.7 1.6 4 2.5 6.8 2.5 2.9 0 4.8-.7 6.2-2.1 1.5-1.4 2.2-3 2.2-5V22H60v.1c0 .8-.3 1.4-1 2-.6.5-1.7.8-3.2.8-1.8 0-3-.4-3.8-1.3-.8-.8-1.2-2-1.2-3.4v-.9c0-1.4.4-2.5 1.2-3.3.8-.9 2-1.3 3.8-1.3 1.5 0 2.5.3 3.2.8.7.5 1 1.1 1 2v.1h4.2v-.2a7 7 0 0 0-2.2-4.9c-1.4-1.4-3.5-2-6.2-2-2.9 0-5.1.7-6.8 2.4a8.8 8.8 0 0 0-2.5 6.6zm21.2 8.7H72v-8.8a4 4 0 0 1 1.7-3.4c.8-.6 1.7-.9 2.6-.9a6.3 6.3 0 0 1 1.6.2v-5.1l-.6-.2a4.7 4.7 0 0 0-3.5.7c-.7.5-1.3 1.1-1.7 1.8h-.2l-.3-2h-3.8zM79.6 20c0 2.8 1 5 2.7 6.7 1.7 1.6 4 2.5 6.9 2.5a10 10 0 0 0 6.9-2.5 8.7 8.7 0 0 0 2.6-6.6v-.6c0-2.7-.9-5-2.6-6.6a9.6 9.6 0 0 0-7-2.5c-2.8 0-5 .8-6.8 2.5a8.7 8.7 0 0 0-2.7 6.6zm4.4-.7c0-1.5.4-2.6 1.3-3.3 1-.7 2.2-1 3.9-1a6 6 0 0 1 3.8 1c1 .7 1.4 1.8 1.4 3.3v1c0 1.5-.5 2.7-1.4 3.4-.9.6-2.1 1-3.8 1-1.7 0-3-.4-4-1-.8-.7-1.2-1.9-1.2-3.5zm16.6-8.3 5.4 17.7h4.8l3.8-13h.2l4.1 13h4.8l5.4-17.8h-5.3l-2.6 9.9-.3 1.3-.2 1h-.2a44.2 44.2 0 0 0-.6-2.3l-3-9.9h-5L108.6 23h-.2l-3-12zm29.9 9c0 2.7.7 4.8 2.1 6.5a7.6 7.6 0 0 0 6 2.5c1.4 0 2.5-.2 3.5-.7.7-.4 1.5-1.1 2-1.6l.5 2h4.2V2.9h-4.5V13a5.5 5.5 0 0 0-2.2-1.9c-1-.4-2-.6-3.4-.6-2.4 0-4.4.8-6 2.5a9.2 9.2 0 0 0-2.2 6.4zm4.3.2v-.8c0-1.3.4-2.4 1.2-3.1.8-.8 2-1.2 3.6-1.2 1.2 0 2.2.2 3 .8a4 4 0 0 1 1.7 3.2v1.3a4 4 0 0 1-1.8 3.3 5 5 0 0 1-3 .8c-1.7 0-2.9-.4-3.6-1.2a4.4 4.4 0 0 1-1.1-3m19 8.4h4.2V10.9h-4.2zm-1-22.6c0 .7.3 1.4.9 1.9.5.4 1.2.7 2.2.7a3 3 0 0 0 2.2-.8c.5-.5.8-1 .8-1.8s-.3-1.4-.8-1.9-1.2-.7-2.2-.7c-1 0-1.7.2-2.2.7-.6.5-.8 1.1-.8 1.9m10.2 22.6h4.2v-7.2c0-4.1 1.5-6.7 4.6-6.7 3.2 0 3.9 1.8 3.9 4.4v9.5h4.2V18c0-3-.6-5-1.9-6a7.3 7.3 0 0 0-4.7-1.5c-1.3 0-2.5.2-3.6.7a6 6 0 0 0-2.4 1.8l-.3-2.2h-4zM26.4 0H10.7C9.1 0 7.5.3 6.2.8A9.6 9.6 0 0 0 .8 6.3a12 12 0 0 0-.8 4.4v15.5c0 1.7.3 3.3.8 4.6a9.6 9.6 0 0 0 5.4 5.4c1.4.5 3 .8 4.7.8h15.5a13 13 0 0 0 4.6-.8 9.7 9.7 0 0 0 5.4-5.4c.6-1.3.8-2.9.8-4.6V10.8c0-1.7-.2-3.2-.8-4.5A9.6 9.6 0 0 0 31 .8a13 13 0 0 0-4.6-.8"/><path fill="#fff" d="M23 22.7c0-.2 0-.7-.4-.7h-1.2s-.4 0-.4.5c0 .8.5 1.6 1.1 2 .5.5 1.1.7 1.8.7s.7-.5.4-.6c-.5-.2-1.1-.7-1.2-2zm3.4-11.9a15 15 0 0 0-8.3 2c-1.1.6-2 1.4-2.5 2.3-.5.8-.8 1.6-1 2.4 0 .3 0 1.2 1 1.4.5.2 1.5.2 2 .3 1 .1 1.3-1 1.4-1.2a8 8 0 0 1 3.6-4.5c1-.6 2.3-1 3.8-1.2l3.4-.2c.4 0 1.4 0 1.4-.4s-.8-.6-1.7-.7c-1.3-.2-2.8-.2-3.1-.2M22 27c-1.1-.2-3-1.4-3.4-4.5-.1-.6-.5-.9-1-1l-2.1-.2c-.6 0-1 .3-.9 1.2a6 6 0 0 0 1.6 3.6c1.2 1.3 2.7 2 4.2 2 1.8 0 2-.4 2-.6 0-.2-.2-.4-.4-.4zm-4.7 2.7c-1.8 0-5.5-2.8-5.5-7.2 0-.7-.4-1.5-1.4-1.8-.8-.2-1.9-.6-2.6-.6-1.7-.1-1.6 1.3-1.6 2a8.9 8.9 0 0 0 3.8 7.2c1 .6 2.1 1 3.4 1.3.3 0 1.4.3 2.6.2 1.7 0 1.9-.5 1.9-.7 0-.3-.2-.4-.6-.4"/><path fill="#fff" d="M31.6 7.8a32 32 0 0 0-19.8.8 10 10 0 0 0-5.1 5.7c-.2.6-.5 2.6 1.4 3.1.7.2 1.3.5 2 .6 1.9.3 2.3-1.5 2.4-1.8l.4-1a9.5 9.5 0 0 1 2.6-3.3 15 15 0 0 1 7.3-3 25.2 25.2 0 0 1 6.7-.2H31c1.2.1 1.5.1 1.6-.2.1-.4-.7-.7-1-.7m-3.9 7c-5 0-6.3 2.6-6.7 4.2-.2.8.3 1 .8 1 .6.1 1.2 0 1.4-.6.7-2 1.7-3.8 4.7-3.8.3 0 .6-.2.6-.4s-.2-.4-.8-.4"/></svg>
