<svg height="50" viewBox="0 0 164 50" xmlns="http://www.w3.org/2000/svg" style="background:#fff" fill-rule="evenodd" clip-rule="evenodd" stroke-linejoin="round" stroke-miterlimit="2">
	<path d="M78.21 15.587c-5.672 0-9.762 3.864-9.762 9.661s4.604 9.66 10.276 9.66c3.427 0 6.448-1.416 8.319-3.805l-3.931-2.372c-1.038 1.186-2.615 1.879-4.388 1.879-2.461 0-4.552-1.342-5.328-3.489h14.397c.113-.601.18-1.223.18-1.879 0-5.79-4.09-9.655-9.763-9.655zm-4.86 7.783c.642-2.142 2.399-3.489 4.855-3.489 2.461 0 4.219 1.347 4.855 3.489h-9.71zm60.187-7.783c-5.673 0-9.763 3.864-9.763 9.661s4.604 9.66 10.276 9.66c3.427 0 6.449-1.416 8.319-3.805l-3.931-2.372c-1.038 1.186-2.615 1.879-4.388 1.879-2.461 0-4.552-1.342-5.328-3.489h14.397c.113-.601.18-1.223.18-1.879 0-5.79-4.09-9.655-9.762-9.655zm-4.856 7.783c.642-2.142 2.4-3.489 4.856-3.489 2.46 0 4.218 1.347 4.855 3.489h-9.711zm-20.054 1.878c0 3.22 2.015 5.367 5.139 5.367 2.116 0 3.704-1.003 4.52-2.64l3.947 2.378c-1.634 2.843-4.696 4.556-8.467 4.556-5.678 0-9.763-3.864-9.763-9.661s4.09-9.66 9.763-9.66c3.77 0 6.828 1.712 8.467 4.556l-3.946 2.377c-.817-1.637-2.405-2.64-4.521-2.64-3.12 0-5.139 2.147-5.139 5.367zm42.378-15.565v24.69h-4.624V9.682h4.624zM24.73 7l18.985 34.35H5.744L24.73 7zm47.465 2.683L57.956 35.446 43.72 9.683h5.338l8.9 16.102 8.898-16.102h5.339zm30.268 6.44v5.202a5.634 5.634 0 00-1.644-.263c-2.985 0-5.138 2.147-5.138 5.367v7.943h-4.624V16.124h4.624v4.938c0-2.727 3.036-4.938 6.782-4.938z" fill-rule="nonzero" />
</svg>
