<?xml version="1.0" encoding="UTF-8"?>
<svg width="89px" height="90px" viewBox="0 0 89 90" version="1.1" xmlns="http://www.w3.org/2000/svg" xmlns:xlink="http://www.w3.org/1999/xlink">
    <g id="Page-1" stroke="none" stroke-width="1" fill="none" fill-rule="evenodd">
        <g id="noun_high-five_1154833" fill="#000000" fill-rule="nonzero">
            <g id="Group">
                <path d="M87.1,47.4 C85.4,45.2 82.4,44.7 79.2,46 C78.4,46.3 77.2,46.8 75.8,47.4 L81.6,31.5 C82.1,30.1 82,28.6 81.4,27.3 C80.8,26 79.7,25 78.3,24.5 C77.3,24.1 76.2,24.1 75.2,24.4 L75.9,22.4 C76.4,21 76.3,19.5 75.7,18.2 C75.1,16.9 74,15.9 72.6,15.4 C69.8,14.4 66.7,15.9 65.7,18.6 C65.1,17.8 64.2,17.1 63.2,16.7 C60.4,15.7 57.3,17.2 56.2,20 L55.2,22.8 C54.6,22 53.7,21.3 52.7,21 C49.9,20 46.8,21.5 45.7,24.4 L42.5,33.4 L41,29.6 C40.5,28.2 39.4,27.1 38.1,26.5 C36.8,25.9 35.4,25.9 34.1,26.4 C33.1,26.8 32.3,27.5 31.7,28.3 L30.6,25.6 C30.1,24.2 29,23.1 27.7,22.5 C26.4,21.9 25,21.9 23.7,22.4 C22.7,22.8 21.9,23.5 21.3,24.3 C20.7,23 19.7,22 18.4,21.4 C17.1,20.8 15.7,20.8 14.4,21.3 C11.7,22.4 10.3,25.6 11.4,28.4 L12.2,30.4 C11.2,30.2 10.2,30.2 9.2,30.6 C6.5,31.7 5.1,34.9 6.2,37.7 L13.3,55.7 L9,53.1 C7.8,52.3 6.4,51.9 5.1,52.1 C3.7,52.3 2.4,53.1 1.6,54.3 C-0.1,56.7 0.5,60.1 2.8,61.9 C3.7,62.8 15.3,72 19.5,75 C22.6,77.2 26.4,78.4 30.2,78.4 C32.7,78.4 35.3,77.9 37.8,76.9 C41.7,75.3 45,72.6 47.2,69 C48.4,69.8 49.7,70.4 51.1,70.9 C53.4,71.7 55.8,72.1 58.2,72.1 C62.4,72.1 66.4,70.8 69.8,68.3 C74,65.2 85.5,55.6 86.2,55 C88.5,53.2 88.9,49.7 87.1,47.4 Z M36.8,74.6 C31.3,76.8 25.4,76.2 20.8,73 C16.7,70 4.7,60.4 4.6,60.3 C4.6,60.3 4.6,60.3 4.6,60.3 C3.3,59.3 3,57.4 3.9,56 C4.3,55.4 5,54.9 5.8,54.8 C6.6,54.7 7.3,54.9 7.9,55.3 C7.9,55.3 8,55.3 8,55.4 L15.5,59.9 C15.9,60.2 16.5,60.1 16.9,59.8 C17.3,59.5 17.4,58.9 17.2,58.4 L8.7,37 C8.1,35.4 8.8,33.7 10.3,33.1 C10.9,32.9 11.6,32.9 12.3,33.2 C13,33.5 13.6,34.1 14,34.8 L18.5,46.4 C18.7,46.9 19.2,47.2 19.6,47.2 C19.7,47.2 19.9,47.2 20,47.1 C20.6,46.9 20.9,46.1 20.7,45.5 L16.3,34.3 C16.3,34.3 16.3,34.2 16.3,34.2 C16.3,34.1 16.2,34 16.2,33.9 L13.8,27.7 C13.2,26.1 13.9,24.4 15.4,23.8 C16.1,23.5 16.9,23.5 17.6,23.8 C18.3,24.1 18.9,24.7 19.2,25.5 L20.8,29.7 C20.8,29.7 20.8,29.7 20.8,29.7 L26,43.2 C26.2,43.7 26.7,44 27.1,44 C27.2,44 27.4,44 27.5,43.9 C28.1,43.7 28.4,42.9 28.2,42.3 L23.2,29.2 C23.2,29.2 23.2,29.2 23.2,29.2 L23.1,28.9 C22.5,27.3 23.2,25.6 24.7,25 C25.4,24.7 26.2,24.7 26.9,25 C27.6,25.3 28.2,25.9 28.5,26.7 L31.2,33.5 C31.2,33.5 31.2,33.5 31.2,33.5 C31.2,33.6 31.2,33.6 31.3,33.7 L34.9,43.2 C35.1,43.8 35.9,44.1 36.5,43.9 C37.1,43.7 37.4,42.9 37.2,42.3 L33.5,32.8 C32.9,31.2 33.6,29.5 35.1,28.9 C35.8,28.6 36.6,28.6 37.3,28.9 C38,29.2 38.6,29.8 38.9,30.6 L46.9,51.4 C50.2,60.8 45.8,71 36.8,74.6 Z M84.6,53.1 C84.6,53.1 84.6,53.1 84.6,53.1 C84.5,53.2 72.4,63.2 68.3,66.3 C63.8,69.7 57.6,70.5 52,68.5 C50.8,68.1 49.6,67.5 48.5,66.8 C48.6,66.6 48.7,66.4 48.8,66.1 C50.9,61.2 51.1,55.7 49.3,50.6 C49.3,50.6 49.3,50.6 49.3,50.6 L44,37 L48.1,25.3 C48.7,23.7 50.4,22.9 51.9,23.4 C52.6,23.7 53.2,24.2 53.6,24.9 C53.9,25.6 54,26.5 53.7,27.2 L50.1,37.4 C49.9,38 50.2,38.7 50.8,39 C50.9,39 51.1,39.1 51.2,39.1 C51.7,39.1 52.2,38.8 52.4,38.3 L56,28.1 C56,28 56,28 56.1,27.9 C56.1,27.9 56.1,27.9 56.1,27.9 L58.6,21 C59.2,19.4 60.9,18.6 62.4,19.1 C63.1,19.4 63.7,19.9 64.1,20.6 C64.4,21.3 64.5,22.2 64.2,23 L64.2,23 L64.1,23.3 C64.1,23.3 64.1,23.3 64.1,23.3 L59.1,37.8 C58.9,38.4 59.2,39.1 59.9,39.4 C60,39.4 60.2,39.5 60.3,39.5 C60.8,39.5 61.3,39.2 61.5,38.7 L66.7,23.9 L68.2,19.7 C68.8,18.1 70.5,17.3 72,17.8 C72.7,18.1 73.3,18.6 73.7,19.3 C74,20 74.1,20.9 73.8,21.6 L71.6,27.6 C71.5,27.8 71.5,27.9 71.4,28.1 C71.4,28.2 71.4,28.3 71.3,28.3 L66.8,40.7 C66.6,41.3 66.9,42 67.5,42.3 C67.6,42.3 67.8,42.4 67.9,42.4 C68.4,42.4 68.9,42.1 69.1,41.6 L73.8,28.6 C74.5,27.2 76.2,26.4 77.5,26.9 C78.2,27.2 78.8,27.7 79.2,28.4 C79.5,29.1 79.6,30 79.3,30.7 L72.7,48.6 C71.6,49 70.6,49.4 70.1,49.6 C63.8,47.2 60.4,50 57.6,52.2 C57.1,52.6 57,53.4 57.4,53.9 C57.8,54.4 58.6,54.5 59.1,54.1 C61.8,51.9 64.3,49.8 69.6,52 C69.9,52.1 70.2,52.1 70.5,52 C70.8,51.9 77.7,49.2 80.1,48.2 C81.4,47.7 83.8,47 85.1,48.8 C86.2,50.2 85.9,52.1 84.6,53.1 Z" id="Shape"></path>
                <path d="M16.4,12.9 L22.6,16.9 C22.8,17 23,17.1 23.3,17.1 C23.7,17.1 24.1,16.9 24.3,16.5 C24.7,15.9 24.5,15.2 23.9,14.8 L17.7,10.8 C17.1,10.4 16.4,10.6 16,11.2 C15.6,11.8 15.8,12.5 16.4,12.9 Z" id="Path"></path>
                <path d="M31,11.9 C31.2,12.4 31.6,12.7 32.2,12.7 C32.3,12.7 32.5,12.7 32.6,12.6 C33.2,12.4 33.6,11.7 33.4,11 L30,1.1 C29.8,0.5 29.1,0.1 28.4,0.3 C27.8,0.5 27.4,1.2 27.6,1.9 L31,11.9 Z" id="Path"></path>
                <path d="M41.8,11 C41.9,11.1 42.1,11.1 42.2,11.1 C42.7,11.1 43.2,10.8 43.3,10.3 L45.8,3.4 C46,2.8 45.7,2.1 45.1,1.8 C44.5,1.6 43.8,1.9 43.5,2.5 L41,9.4 C40.8,10.1 41.2,10.8 41.8,11 Z" id="Path"></path>
                <path d="M50.6,80 C50,79.8 49.3,80.2 49.1,80.8 L47,87.8 C46.8,88.4 47.2,89.1 47.8,89.3 C47.9,89.3 48,89.4 48.2,89.4 C48.7,89.4 49.2,89.1 49.4,88.5 L51.5,81.5 C51.6,80.9 51.3,80.2 50.6,80 Z" id="Path"></path>
                <path d="M61,78.2 C60.7,77.6 60,77.3 59.4,77.5 C58.8,77.8 58.5,78.5 58.7,79.1 L62.7,88.8 C62.9,89.3 63.4,89.6 63.8,89.6 C64,89.6 64.1,89.6 64.3,89.5 C64.9,89.2 65.2,88.5 65,87.9 L61,78.2 Z" id="Path"></path>
                <path d="M75.6,75.8 L69.2,72.2 C68.6,71.9 67.9,72.1 67.5,72.7 C67.2,73.3 67.4,74 68,74.4 L74.4,78 C74.6,78.1 74.8,78.2 75,78.2 C75.4,78.2 75.8,78 76.1,77.6 C76.4,76.9 76.2,76.2 75.6,75.8 Z" id="Path"></path>
            </g>
        </g>
    </g>
</svg>
