<svg width="178" height="162" viewBox="0 0 178 162" fill="none" xmlns="http://www.w3.org/2000/svg">
<path fill-rule="evenodd" clip-rule="evenodd" d="M40.3329 54.3823L38.5547 94.3134L39.7731 111.754L40.1282 118.907L41.0832 123.59L44.3502 131.942L48.9438 137.693L52.5472 143.333L58.5544 147.755L62.5364 150.239L72.3634 154.486L83.15 156.361L91.1212 158.708L101.174 157.525L110.808 156.719L115.983 154.049L124.511 151.377L129.276 148.71L133.701 143.947L139.666 135.877L142.001 128.136L145.746 118.192L145.188 111.065L145.489 94.3675L145.873 75.2546L143.227 59.7779L142.022 47.4695L138.595 46.8345L102.952 45.4703L56.9173 46.7498L46.0719 49.1207L41.9323 50.6825L39.5684 53.4297" fill="#E3E2FE"/>
<path d="M41.0014 54.2859C41.0861 64.8796 38.3765 102.581 40.9779 117.876C43.5793 133.17 48.2646 139.346 56.6121 146.047C64.9596 152.746 79.1214 157.662 91.0653 158.078C103.009 158.492 119.347 155.242 128.277 148.543C137.206 141.842 142.112 133.527 144.641 117.874C147.169 102.221 146.061 66.4132 143.446 54.6222C140.83 42.8289 143.97 48.2857 128.948 47.1238C113.925 45.9619 67.9608 46.477 53.3051 47.6483C38.6493 48.8197 43.2053 53.0675 41.0155 54.1518M40.5263 53.9801C40.5404 64.6138 37.9249 103.418 40.5921 118.587C43.257 133.755 48.147 138.325 56.5251 144.991C64.9008 151.655 78.7263 157.935 90.8536 158.577C102.981 159.221 120.212 155.413 129.289 148.844C138.368 142.277 142.872 134.995 145.321 119.168C147.767 103.343 146.805 65.8698 143.977 53.8837C141.148 41.8975 143.615 48.4292 128.348 47.2508C113.081 46.0724 67.14 45.6726 52.3737 46.8157C37.6074 47.9564 41.7776 53.091 39.7524 54.1024" stroke="#6965DB" stroke-width="2" stroke-linecap="round"/>
<path fill-rule="evenodd" clip-rule="evenodd" d="M64.7935 45.726L66.36 36.6964L65.5979 34.4501L67.3384 30.7668L70.4197 26.5048L74.8157 21.0598L81.9095 16.9131L89.9419 14.4951L95.6127 12.8534L97.7555 13.2133L103.819 15.269L106.552 18.5807L109.967 22.3793L114.45 27.2387L114.904 34.3937L117.153 38.9214L116.031 44.5005L116.765 45.5448L118.863 47.3559L126.164 47.6782L127.744 46.7797L128.76 44.7052L123.882 25.8227L120.641 20.4835L116.351 15.8758L112.809 11.0729L108.617 7.36601L101.352 5.43025L93.263 3.31104L84.2451 5.1433L77.7299 7.86229L76.0011 8.0975L62.1168 19.8532L59.5366 24.5597L55.7733 32.3215L55.0371 39.5282L56.0626 44.8933L56.5636 47.1725L59.6401 46.8644L66.1648 46.0388" fill="#E3E2FE"/>
<path d="M65.0037 46.0106C65.1166 43.8231 64.9237 36.8492 66.1421 33.2412C67.3605 29.6307 69.0799 27.2857 72.314 24.3527C75.5481 21.422 81.273 17.6093 85.5444 15.6453C89.8157 13.6813 94.3317 12.1148 97.9421 12.5664C101.555 13.0157 104.544 15.857 107.219 18.3478C109.893 20.8387 112.356 24.0869 113.986 27.5115C115.618 30.9338 116.389 35.8684 117.006 38.8861C117.622 41.9038 115.992 44.2888 117.69 45.6178C119.388 46.949 125.617 48.1721 127.195 46.8667C128.773 45.5613 127.717 41.1888 127.157 37.7877C126.597 34.3866 125.494 30.1247 123.838 26.4601C122.183 22.7956 119.746 18.9029 117.222 15.7982C114.698 12.6934 112.791 9.9086 108.696 7.83642C104.601 5.76189 97.8081 3.42863 92.6547 3.35337C87.5013 3.2781 81.5529 5.74308 77.7708 7.38717C73.991 9.03127 72.8879 10.6166 69.9666 13.218C67.043 15.8217 62.4306 19.6768 60.2384 23.0026C58.0486 26.3284 57.4818 29.252 56.8185 33.1753C56.1529 37.0962 54.6499 44.39 56.2517 46.5327C57.8511 48.6731 64.7756 45.98 66.4267 46.0247M65.9704 45.5096C65.9845 43.348 64.2652 37.5525 65.5423 33.8456C66.8172 30.1364 70.2959 26.4789 73.6264 23.259C76.9546 20.039 81.3177 16.3015 85.5208 14.5281C89.7216 12.7523 95.1079 11.7903 98.8383 12.6111C102.569 13.432 105.283 16.8072 107.903 19.4486C110.526 22.09 113.146 25.3029 114.567 28.4664C115.987 31.6276 116.03 35.4051 116.425 38.4204C116.82 41.4334 115.124 45.1426 116.937 46.5515C118.751 47.9604 125.539 48.2968 127.31 46.8761C129.081 45.4578 127.978 41.4428 127.562 38.0347C127.145 34.6265 126.501 30.1646 124.81 26.4296C123.116 22.6921 120.195 18.7594 117.413 15.6194C114.63 12.4818 112.247 9.39349 108.117 7.58945C103.987 5.78541 97.5776 5.02099 92.6335 4.79519C87.6895 4.56939 82.3503 4.78813 78.4505 6.23466C74.5484 7.68118 72.0882 10.6542 69.228 13.4696C66.3679 16.2851 63.4725 19.7873 61.2898 23.1319C59.1071 26.4789 56.9761 29.4896 56.1293 33.5469C55.285 37.6043 54.577 45.2132 56.2117 47.4759C57.8487 49.7409 64.2675 47.3418 65.9445 47.1301" stroke="#6965DB" stroke-width="2" stroke-linecap="round"/>
<path d="M140.37 54.8958C137.884 58.1322 127.704 71.2286 125.185 74.5427M139.697 54.209C137.098 57.5466 127.005 71.7884 124.51 75.3565" stroke="#6965DB" stroke-width="2" stroke-linecap="round"/>
<path d="M141.663 63.1765C139.661 66.0413 131.311 77.1501 129.077 79.9726M141.065 62.5908C139.021 65.2792 130.631 76.1364 128.717 78.8625" stroke="#6965DB" stroke-width="2" stroke-linecap="round"/>
<path d="M141.888 72.9917C139.475 75.8589 130.268 86.8478 127.966 89.7455M141.02 72.726C138.503 75.6496 129.775 87.2476 127.58 90.3242" stroke="#6965DB" stroke-width="2" stroke-linecap="round"/>
<path d="M141.948 82.215C139.815 85.1057 130.308 96.8214 127.961 99.7709M141.459 81.7375C139.298 84.4119 129.816 95.9888 127.479 98.8606" stroke="#6965DB" stroke-width="2" stroke-linecap="round"/>
<path d="M141.357 91.7838C138.885 95.2484 128.808 108.535 126.428 111.76M142.474 91.4757C139.917 94.7921 128.38 107.493 125.781 110.883" stroke="#6965DB" stroke-width="2" stroke-linecap="round"/>
<path d="M142.568 101.479C140.028 104.403 129.867 115.528 127.195 118.356M141.811 101.018C139.212 104.055 129.477 115.975 126.828 118.97" stroke="#6965DB" stroke-width="2" stroke-linecap="round"/>
<path d="M141.023 112.172C138.591 114.775 128.028 125.905 125.422 128.664M140.51 113.465C138.008 116.147 127.36 125.233 124.742 127.582" stroke="#6965DB" stroke-width="2" stroke-linecap="round"/>
<path d="M139.004 123.69C136.501 126.275 125.952 137.248 123.287 140.108M138.343 124.817C135.805 127.454 125.487 138.261 122.848 140.75" stroke="#6965DB" stroke-width="2" stroke-linecap="round"/>
<path d="M132.192 139.862C129.854 141.624 120.87 148.168 118.574 150.012M131.39 139.496C128.97 141.333 120.524 148.89 118.322 150.621" stroke="#6965DB" stroke-width="2" stroke-linecap="round"/>
<path fill-rule="evenodd" clip-rule="evenodd" d="M82.6351 92.3124L78.2767 89.0148L78.6718 88.8784L75.6282 79.6865L74.4922 76.0525L75.0379 74.1074L78.6248 69.5444L83.6182 65.186L86.6924 64.0711L93.7768 63.9864L99.9181 63.9276L103.905 64.4215L106.038 66.068L109.333 67.6392L110.251 69.4479L112.438 73.1877L112.702 81.928L111.674 82.93L110.907 85.5573L107.828 89.2336L101.273 92.9193L102.785 120.401L99.5488 125.521L98.0059 127.838L96.1313 129.414L93.17 130.237L92.2198 130.033L90.1358 129.233L88.8328 126.594L87.8378 95.2549L88.9386 93.3215L86.0409 91.294L80.9533 91.1552" fill="white"/>
<path d="M82.8214 92.0607C82.0664 91.4327 79.291 90.7201 77.8539 88.2033C76.4167 85.6866 73.5284 80.4438 74.1964 76.9581C74.862 73.4723 78.6959 69.6384 81.8524 67.2887C85.0089 64.939 88.9227 63.1138 93.1353 62.8574C97.3478 62.6034 103.957 63.9888 107.132 65.7575C110.31 67.5263 111.416 70.5651 112.196 73.4747C112.977 76.3842 112.606 80.6626 111.82 83.2122C111.035 85.7642 109.078 87.1661 107.481 88.7749C105.883 90.3837 103.106 91.2751 102.233 92.8651C101.363 94.4551 102.327 95.3254 102.25 98.3125C102.172 101.3 101.76 107.227 101.767 110.788C101.772 114.349 102.487 116.981 102.285 119.676C102.085 122.374 101.52 125.126 100.556 126.965C99.5917 128.805 98.077 130.256 96.5011 130.715C94.9275 131.171 92.4485 130.36 91.1101 129.713C89.7742 129.066 89.0144 128.341 88.4805 126.836C87.9489 125.331 87.9678 123.964 87.9137 120.681C87.8596 117.397 88.1159 111.599 88.1583 107.14C88.203 102.68 89.2779 96.445 88.1724 93.9236C87.0693 91.4022 82.7791 92.4347 81.5325 92.0137M82.0194 91.6068C81.222 90.7624 78.4536 89.7886 77.3623 87.1567C76.2733 84.5247 74.6621 79.3125 75.4783 75.815C76.2921 72.3151 79.1428 68.3166 82.2522 66.1597C85.3617 64.0029 90.1693 63.062 94.1302 62.8739C98.0911 62.6857 102.925 63.0832 106.02 65.0331C109.118 66.9853 111.834 71.5836 112.705 74.5801C113.572 77.5743 111.949 80.7731 111.234 83.0076C110.519 85.2444 109.835 86.3711 108.417 87.9916C107.001 89.6146 103.738 90.9623 102.732 92.7358C101.725 94.5092 102.351 95.6382 102.377 98.6301C102.405 101.62 102.866 106.949 102.894 110.682C102.922 114.417 102.955 118.291 102.544 121.038C102.13 123.783 101.408 125.54 100.42 127.161C99.4318 128.781 98.1005 130.233 96.6163 130.759C95.1322 131.286 92.9353 130.893 91.51 130.322C90.0846 129.753 88.7769 128.889 88.0618 127.335C87.3468 125.78 87.0128 124.317 87.2198 120.998C87.4268 117.68 89.0874 112.046 89.299 107.422C89.5107 102.798 89.8494 95.9322 88.4946 93.2509C87.1398 90.5695 82.4804 91.4845 81.1679 91.3316" stroke="#6965DB" stroke-width="2" stroke-linecap="round"/>
<path d="M28.1943 139.31C26.7936 139.432 25.332 140.402 23.8703 140.523C23.1395 140.766 22.5914 140.16 21.9824 139.735C21.5561 139.553 21.008 138.461 20.8253 138.219C20.5817 136.884 19.9118 134.276 20.0336 133.002C19.7291 131.364 21.5561 129.787 23.0786 129.727C23.2613 129.727 23.8094 129.787 23.8703 129.787C25.7583 130.151 27.5853 131.546 29.5341 131.728C29.595 131.728 29.6559 131.728 29.6559 131.668C30.4476 130.333 30.204 126.937 30.813 125.542C30.813 125.36 31.1784 123.54 31.1784 123.237C31.6048 122.327 32.1529 121.781 33.1273 122.084C33.7972 122.266 34.6498 122.388 34.6498 123.237V128.635C34.8325 129.242 36.1114 128.999 36.5986 128.999C38.7911 128.028 40.8617 127.422 43.3586 127.058C45.6729 127.179 46.7082 129.242 46.5864 131.304C46.6473 132.396 45.4293 133.245 44.6985 133.973C44.4549 134.094 43.4804 134.519 43.115 134.397C42.2624 133.791 41.1662 134.033 40.1309 134.094C40.1309 134.155 40.0091 134.337 40.07 134.397C41.288 135.853 43.5413 136.096 45.0639 137.066C46.1601 138.34 47.4999 138.643 47.1345 140.341C47.0736 141.191 47.1345 142.1 46.221 142.404C45.9774 142.586 44.5767 142.828 44.2722 142.828C43.9677 142.768 43.3586 142.343 43.115 142.04C40.9835 141.13 38.6693 140.402 36.2332 140.159V145.133C35.9896 146.468 35.6851 147.923 34.6498 148.955C34.2844 149.015 33.1273 149.015 32.7619 148.955C32.4574 148.773 31.4221 147.741 31.1784 147.438C30.5694 145.133 30.4476 142.404 29.6559 140.159C29.1687 139.553 28.986 139.25 28.1943 139.31Z" fill="#6965DB"/>
<path d="M59.5964 139.31C58.1956 139.432 56.734 140.402 55.2724 140.523C54.5416 140.766 53.9935 140.16 53.3845 139.735C52.9582 139.553 52.41 138.461 52.2273 138.219C51.9837 136.884 51.3138 134.276 51.4356 133.002C51.1311 131.364 52.9582 129.787 54.4807 129.727C54.6634 129.727 55.2115 129.787 55.2724 129.787C57.1603 130.151 58.9874 131.546 60.9362 131.728C60.9971 131.728 61.058 131.728 61.058 131.668C61.8497 130.333 61.6061 126.937 62.2151 125.542C62.2151 125.36 62.5805 123.54 62.5805 123.237C63.0068 122.327 63.5549 121.781 64.5293 122.084C65.1992 122.266 66.0519 122.388 66.0519 123.237V128.635C66.2346 129.242 67.5135 128.999 68.0007 128.999C70.1931 128.028 72.2638 127.422 74.7607 127.058C77.0749 127.179 78.1103 129.242 77.9885 131.304C78.0494 132.396 76.8313 133.245 76.1005 133.973C75.8569 134.094 74.8825 134.519 74.5171 134.397C73.6645 133.791 72.5683 134.033 71.5329 134.094C71.5329 134.155 71.4112 134.337 71.4721 134.397C72.6901 135.853 74.9434 136.096 76.4659 137.066C77.5621 138.34 78.902 138.643 78.5366 140.341C78.4757 141.191 78.5366 142.1 77.623 142.404C77.3794 142.586 75.9787 142.828 75.6742 142.828C75.3697 142.768 74.7607 142.343 74.5171 142.04C72.3856 141.13 70.0713 140.402 67.6353 140.159V145.133C67.3917 146.468 67.0872 147.923 66.0519 148.955C65.6865 149.015 64.5293 149.015 64.1639 148.955C63.8594 148.773 62.8241 147.741 62.5805 147.438C61.9715 145.133 61.8497 142.404 61.058 140.159C60.5708 139.553 60.3881 139.25 59.5964 139.31Z" fill="#6965DB"/>
<path d="M90.9984 139.31C89.5977 139.432 88.1361 140.402 86.6745 140.523C85.9436 140.766 85.3955 140.16 84.7865 139.735C84.3602 139.553 83.8121 138.461 83.6294 138.219C83.3858 136.884 82.7159 134.276 82.8377 133.002C82.5332 131.364 84.3602 129.787 85.8827 129.727C86.0654 129.727 86.6136 129.787 86.6745 129.787C88.5624 130.151 90.3894 131.546 92.3382 131.728C92.3991 131.728 92.46 131.728 92.46 131.668C93.2518 130.333 93.0082 126.937 93.6172 125.542C93.6172 125.36 93.9826 123.54 93.9826 123.237C94.4089 122.327 94.957 121.781 95.9314 122.084C96.6013 122.266 97.4539 122.388 97.4539 123.237V128.635C97.6366 129.242 98.9155 128.999 99.4028 128.999C101.595 128.028 103.666 127.422 106.163 127.058C108.477 127.179 109.512 129.242 109.391 131.304C109.451 132.396 108.233 133.245 107.503 133.973C107.259 134.094 106.285 134.519 105.919 134.397C105.067 133.791 103.97 134.033 102.935 134.094C102.935 134.155 102.813 134.337 102.874 134.397C104.092 135.853 106.345 136.096 107.868 137.066C108.964 138.34 110.304 138.643 109.939 140.341C109.878 141.191 109.939 142.1 109.025 142.404C108.782 142.586 107.381 142.828 107.076 142.828C106.772 142.768 106.163 142.343 105.919 142.04C103.788 141.13 101.473 140.402 99.0373 140.159V145.133C98.7937 146.468 98.4892 147.923 97.4539 148.955C97.0885 149.015 95.9314 149.015 95.566 148.955C95.2615 148.773 94.2262 147.741 93.9826 147.438C93.3736 145.133 93.2518 142.404 92.46 140.159C91.9728 139.553 91.7901 139.25 90.9984 139.31Z" fill="#6965DB"/>
</svg>
